<?xml version="1.0" encoding="UTF-8" standalone="no"?>
<svg width="25px" height="24px" viewBox="0 0 25 24" version="1.1" xmlns="http://www.w3.org/2000/svg" xmlns:xlink="http://www.w3.org/1999/xlink">
    <!-- Generator: Sketch 3.6.1 (26313) - http://www.bohemiancoding.com/sketch -->
    <title>Сalendar@3x</title>
    <desc>Created with Sketch.</desc>
    <defs></defs>
    <g id="Page-1" stroke="none" stroke-width="1" fill="none" fill-rule="evenodd">
        <g id="Экран-3.0-" transform="translate(-175.000000, -626.000000)">
            <g id="Сalendar" transform="translate(175.000000, 626.000000)">
                <g id="Capa_1">
                    <g id="_x31_5_38_">
                        <g id="Group">
                            <path d="M6.10850515,5.60161006 L6.46613402,5.60161006 C7.00963918,5.60161006 7.45020619,5.17142138 7.45020619,4.6410566 L7.45020619,1.99033962 L7.45020619,0.998842767 C7.45020619,0.468477987 7.00963918,0.0383396226 6.46613402,0.0383396226 L6.10850515,0.0383396226 C5.56505155,0.0383396226 5.12448454,0.468477987 5.12448454,0.998842767 L5.12448454,1.99038994 L5.12448454,4.6410566 C5.12448454,5.17142138 5.56505155,5.60161006 6.10850515,5.60161006 L6.10850515,5.60161006 Z" id="Shape" fill="#00D56F"></path>
                            <path d="M18.730567,5.57781132 L19.0881959,5.57781132 C19.6316495,5.57781132 20.0722165,5.14767296 20.0722165,4.61725786 L20.0722165,1.7387673 L20.0722165,0.974993711 C20.0722165,0.444679245 19.6316495,0.0145408805 19.0881959,0.0145408805 L18.730567,0.0145408805 C18.1870103,0.0145408805 17.7464433,0.444679245 17.7464433,0.974993711 L17.7464433,1.7387673 L17.7464433,4.61720755 C17.7465464,5.14767296 18.1871134,5.57781132 18.730567,5.57781132 L18.730567,5.57781132 Z" id="Shape" fill="#00D56F"></path>
                            <path d="M20.8721649,1.99033962 L20.8721649,4.86877987 C20.8721649,5.82898113 20.0719072,6.35859119 19.088299,6.35859119 L18.7306701,6.35859119 C17.7469588,6.35859119 16.946701,5.57740881 16.946701,4.61720755 L16.946701,1.99033962 L8.25015464,1.99033962 L8.25015464,4.64100629 C8.25015464,5.60120755 7.44989691,6.38238994 6.46618557,6.38238994 L6.1085567,6.38238994 C5.12489691,6.38238994 4.32463918,5.60120755 4.32463918,4.64100629 L4.32463918,1.99033962 L1.59979381,1.99033962 C0.717680412,1.99033962 0,2.69086792 0,3.55194969 L0,22.4213836 C0,23.2824654 0.717680412,23.9829937 1.59979381,23.9829937 L23.397732,23.9829937 C24.2798454,23.9829937 24.9974742,23.2824654 24.9974742,22.4213836 L24.9974742,3.55194969 C24.9975773,2.69091824 24.2798454,1.99033962 23.397732,1.99033962 L20.8721649,1.99033962 Z" id="Shape" fill="#00D56F"></path>
                            <path d="M10.291383,14 L14.3508586,14 C14.5117749,14 14.6422417,13.8726513 14.6422417,13.7155808 L14.6422417,10.2844192 C14.6422417,10.1273487 14.5117749,10 14.3508586,10 L10.291383,10 C10.1304668,10 10,10.1273487 10,10.2844192 L10,13.7155808 C10,13.8726513 10.1304668,14 10.291383,14 L10.291383,14 Z" id="Shape" fill="#FFFFFF"></path>
                            <path d="M10.291383,20 L14.3508586,20 C14.5117749,20 14.6422417,19.8726513 14.6422417,19.7155808 L14.6422417,16.2844192 C14.6422417,16.1273487 14.5117749,16 14.3508586,16 L10.291383,16 C10.1304668,16 10,16.1273487 10,16.2844192 L10,19.7155808 C10,19.8726513 10.1304668,20 10.291383,20 L10.291383,20 Z" id="Shape-Copy" fill="#FFFFFF"></path>
                            <path d="M17.291383,14 L21.3508586,14 C21.5117749,14 21.6422417,13.8726513 21.6422417,13.7155808 L21.6422417,10.2844192 C21.6422417,10.1273487 21.5117749,10 21.3508586,10 L17.291383,10 C17.1304668,10 17,10.1273487 17,10.2844192 L17,13.7155808 C17,13.8726513 17.1304668,14 17.291383,14 L17.291383,14 Z" id="Shape" fill="#FFFFFF"></path>
                            <path d="M17.291383,20 L21.3508586,20 C21.5117749,20 21.6422417,19.8726513 21.6422417,19.7155808 L21.6422417,16.2844192 C21.6422417,16.1273487 21.5117749,16 21.3508586,16 L17.291383,16 C17.1304668,16 17,16.1273487 17,16.2844192 L17,19.7155808 C17,19.8726513 17.1304668,20 17.291383,20 L17.291383,20 Z" id="Shape-Copy-2" fill="#FFFFFF"></path>
                            <path d="M3.29137785,14 L7.35070843,14 C7.51162185,14 7.64208629,13.8726536 7.64208629,13.7155859 L7.64208629,10.2844141 C7.64208629,10.1273464 7.51162185,10 7.35070843,10 L3.29137785,10 C3.13046443,10 3,10.1273464 3,10.2844141 L3,13.7155859 C3,13.8726536 3.13046443,14 3.29137785,14 L3.29137785,14 Z" id="Shape" fill="#FFFFFF"></path>
                            <path d="M7.35070843,20 C7.51162185,20 7.64208629,19.8726536 7.64208629,19.7155859 L7.64208629,16.2844141 C7.64208629,16.1273464 7.51162185,16 7.35070843,16 L3.29137785,16 C3.13046443,16 3,16.1273464 3,16.2844141 L3,19.7155859 C3,19.8726536 3.13046443,20 3.29137785,20 L7.35070843,20 Z" id="Shape-Copy-3" fill="#FFFFFF"></path>
                        </g>
                    </g>
                </g>
            </g>
        </g>
    </g>
</svg>