<?xml version="1.0" encoding="UTF-8" standalone="no"?>
<svg width="72px" height="161px" viewBox="0 0 72 161" version="1.1" xmlns="http://www.w3.org/2000/svg" xmlns:xlink="http://www.w3.org/1999/xlink">
    <!-- Generator: Sketch 3.6.1 (26313) - http://www.bohemiancoding.com/sketch -->
    <title>torch@3x</title>
    <desc>Created with Sketch.</desc>
    <defs></defs>
    <g id="Page-1" stroke="none" stroke-width="1" fill="none" fill-rule="evenodd">
        <g id="Экран-1.0" transform="translate(-25.000000, -78.000000)">
            <g id="torch" transform="translate(25.000000, 78.000000)">
                <g id="Group-2">
                    <g id="tool-copy">
                        <g id="Capa_1">
                            <g id="Group">
                                <path d="M40.1016955,30.2742123 C42.8091342,21.6953066 43.4853856,52.2706921 43.4853856,52.2706921 C45.5811617,47.743729 48.9231325,46.4217453 51.8011791,40.0981586 C54.6792256,33.7745718 55.0548011,30.9338901 53.9809018,25.9388889 C53.4352354,23.400844 50.486735,17.2692759 50.6274175,11.7824934 C50.7636053,6.47100933 53.2175645,1.77436853 52.8953586,0.894444444 C52.2403128,-0.894444444 30.6851335,12.8469286 25.1014422,27.7277778 C19.5243016,42.6057265 20.9195959,59.3496384 36.6903857,69.2407768 C23.9454435,47.2496623 37.3942569,38.853118 40.1016955,30.2742123 Z" id="Shape" fill="#FAC039"></path>
                                <path d="M29.6124616,149.449653 C29.6888236,149.997264 30.1975955,150.441191 30.7569982,150.441191 L41.3002745,150.441191 C41.8560226,150.441191 42.3616107,150.000892 42.4305505,149.449653 L47.7461767,106.946208 C47.8146629,106.398597 47.4272491,105.95467 46.8713493,105.95467 L24.5461053,105.95467 C23.9944653,105.95467 23.6086705,106.394969 23.6855384,106.946208 L29.6124616,149.449653 Z" id="Shape" fill="#303030"></path>
                                <rect id="Rectangle-path" fill="#303030" x="19.1110909" y="99.6985647" width="33.2078182" height="4.63914725" rx="2"></rect>
                                <path d="M36.1963636,97.8843812 C54.2203636,97.8843812 69.1325455,86.9378886 71.8761818,72.6245458 L0.516545455,72.6245458 C3.26072727,86.9325712 18.1696364,97.8843812 36.1963636,97.8843812 Z" id="Shape" fill="#303030"></path>
                                <rect id="Rectangle-path" fill="#303030" x="29.5887273" y="152.429397" width="12.7178182" height="8.43573604"></rect>
                            </g>
                        </g>
                    </g>
                    <path d="M30.1333602,50.102757 C30.9243082,45.9620375 39.1070697,41.5625959 41.4204095,39.0305002 C45.8597642,34.1713475 44.3100125,24.3373468 46.2222354,25.9388889 C48.1344583,27.5404309 51.5126312,35.1675341 50.4147563,42.3155416 C49.9223134,45.5217229 46.5548289,49.4210157 46.5548289,49.4210157 C46.5548289,49.4210157 47.6624971,49.3333294 49.9817141,48.3309702 C52.3009311,47.328611 52.5983929,43.4915019 52.778283,45.01954 C52.958173,46.5475781 54.2301845,49.9274158 51.1254404,52.4010294 C47.7475481,55.0922658 45.1155522,56.6982486 43.0062278,58.7838561 C38.4588227,63.280131 41.3504817,69.087499 41.3504817,69.087499 C41.3504817,69.087499 27.8245638,62.1896168 30.1333602,50.102757 Z" id="Rectangle-31" fill="#F00026"></path>
                    <path d="M44.0838486,61.1631042 C46.4317772,56.1135924 51.1630418,55.2143469 54.5307296,51.8392938 C57.8984173,48.4642408 53.3664682,40.2679878 55.0997418,40.9137092 C56.8330154,41.5594305 60.8096713,47.1966346 60.9504051,51.1323827 C61.1107066,55.6153591 57.2853047,57.4137227 57.2853047,57.4137227 C57.2853047,57.4137227 57.8795599,57.3666798 59.1238014,56.828922 C60.3680429,56.2911643 61.0263182,54.8060091 61.1228278,55.6257894 C61.2193373,56.4455697 60.9940429,60.8293443 57.0070346,63.9794762 C53.0200263,67.1296082 45.1795841,68.7262305 45.1795841,68.7262305 C45.1795841,68.7262305 41.468947,66.7867747 44.0838486,61.1631042 Z" id="Rectangle-31-Copy" fill="#009F4A"></path>
                    <path d="M18.7941062,51.390078 C17.0622124,43.1728475 19.5162698,37.1808483 19.5369368,35.8983842 C19.551307,35.0066617 17.0096592,36.1622944 14.1227761,38.9389959 C11.2358929,41.7156974 8.95521302,45.5148023 8.71260327,49.624466 C8.42252745,54.5381765 11.6996725,56.9356319 12.3689265,58.2537676 C12.9707116,59.4390195 8.84073884,56.1680298 9.47393173,57.5712829 C11.8324236,62.7980647 14.9100493,64.5001651 18.0202736,65.9924077 C23.6451844,68.691162 31.468457,68.8159591 31.468457,68.8159591 C31.468457,68.8159591 20.5259999,59.6073084 18.7941062,51.390078 Z" id="Rectangle-31-Copy-2" fill="#008BC8"></path>
                </g>
                <path d="M56.1146871,33.9835306 C57.8833164,31.8304912 56.9136394,30.1618902 57.4202948,30.5418661 C57.9269502,30.921842 59.9505935,33.4262865 58.747254,35.4121821 C57.5439144,37.3980776 58.185129,39.0529788 57.5249842,38.6204737 C56.8648394,38.1879685 54.3460578,36.13657 56.1146871,33.9835306 Z" id="Rectangle-34" fill="#009F4A"></path>
            </g>
        </g>
    </g>
</svg>