<?xml version="1.0" encoding="UTF-8" standalone="no"?>
<svg width="28px" height="25px" viewBox="0 0 28 25" version="1.1" xmlns="http://www.w3.org/2000/svg" xmlns:xlink="http://www.w3.org/1999/xlink">
    <!-- Generator: Sketch 3.6.1 (26313) - http://www.bohemiancoding.com/sketch -->
    <title>Home off@3x</title>
    <desc>Created with Sketch.</desc>
    <defs></defs>
    <g id="Page-1" stroke="none" stroke-width="1" fill="none" fill-rule="evenodd">
        <g id="Экран-3.0-" transform="translate(-48.000000, -626.000000)" stroke="#AAAAAA">
            <path d="M51.4474409,648.096829 C51.4474409,649.202104 52.3428441,650.098106 53.4514241,650.098106 L60.278849,650.098106 L60.278849,644.967606 C60.278849,643.859027 61.1705149,642.960347 62.2728163,642.960347 L61.8184399,642.960347 C62.9196776,642.960347 63.8124072,643.864349 63.8124072,644.967606 L63.8124072,650.098106 L70.6406563,650.098106 C71.7475592,650.098106 72.6448814,649.203679 72.6448814,648.096829 L72.6448814,639.391467 L73.1813909,639.391467 C74.8360264,639.391467 75.2282541,638.432644 74.0618149,637.254278 L64.8550718,627.953401 C63.3038514,626.38632 60.7922407,626.382807 59.2374645,627.953401 L49.3212639,637.970486 C48.5443812,638.755272 48.80608,639.391467 49.9081596,639.391467 L51.4474409,639.391467 L51.4474409,648.096829 Z" id="Home-off"></path>
        </g>
    </g>
</svg>