<?xml version="1.0" encoding="UTF-8" standalone="no"?>
<svg width="25px" height="25px" viewBox="0 0 25 25" version="1.1" xmlns="http://www.w3.org/2000/svg" xmlns:xlink="http://www.w3.org/1999/xlink">
    <!-- Generator: Sketch 3.6.1 (26313) - http://www.bohemiancoding.com/sketch -->
    <title>info</title>
    <desc>Created with Sketch.</desc>
    <defs></defs>
    <g id="Page-1" stroke="none" stroke-width="1" fill="none" fill-rule="evenodd">
        <g id="Экран-5.0-" transform="translate(-300.000000, -626.000000)">
            <g id="info" transform="translate(300.000000, 626.000000)">
                <path d="M12.4495135,0.0393223432 C5.59423141,0.0393223432 0.0384615385,5.42623837 0.0384615385,12.0759549 C0.0384615385,18.7222283 5.59423141,24.1100051 12.4495135,24.1100051 C19.303908,24.1100051 24.8605655,18.7213675 24.8605655,12.0759549 C24.8614531,5.42623837 19.303908,0.0393223432 12.4495135,0.0393223432 L12.4495135,0.0393223432 Z M12.4495135,22.8781935 C6.29547093,22.8781935 1.30868149,18.0413317 1.30868149,12.0759549 C1.30868149,6.10627411 6.29547093,1.27113392 12.4495135,1.27113392 C18.6017808,1.27113392 23.5894579,6.10627411 23.5894579,12.0759549 C23.5894579,18.0413317 18.6017808,22.8781935 12.4495135,22.8781935 L12.4495135,22.8781935 Z" id="Shape" fill="#00D56F"></path>
                <circle id="Oval-179" fill="#00D56F" cx="12.5" cy="12.5" r="11.5"></circle>
                <rect id="Rectangle-path" fill="#FFFFFF" x="10.6937518" y="9.12081228" width="3.69692302" height="9.60995695"></rect>
                <path d="M12.4610529,4.40446315 C11.338182,4.40446315 10.6014367,5.13786878 10.6014367,6.09422284 C10.6014367,7.02991759 11.313328,7.78484334 12.415783,7.78484334 C13.5848114,7.78484334 14.2967027,7.02991759 14.2967027,6.09422284 C14.2736239,5.13786878 13.5856991,4.40446315 12.4610529,4.40446315 L12.4610529,4.40446315 Z" id="Shape" fill="#FFFFFF"></path>
            </g>
        </g>
    </g>
</svg>