<?xml version="1.0" encoding="UTF-8" standalone="no"?>
<svg width="25px" height="25px" viewBox="0 0 25 25" version="1.1" xmlns="http://www.w3.org/2000/svg" xmlns:xlink="http://www.w3.org/1999/xlink">
    <!-- Generator: Sketch 3.6.1 (26313) - http://www.bohemiancoding.com/sketch -->
    <title>info off@3x</title>
    <desc>Created with Sketch.</desc>
    <defs></defs>
    <g id="Page-1" stroke="none" stroke-width="1" fill="none" fill-rule="evenodd">
        <g id="Экран-1.0" transform="translate(-300.000000, -626.000000)" fill="#AAAAAA">
            <g id="info-off" transform="translate(299.000000, 625.000000)">
                <g id="c126_exclamation">
                    <rect id="Rectangle-path" x="11.5432311" y="10.3846154" width="3.78000011" height="10.3846154"></rect>
                    <path d="M13.4578073,4.72983508 C12.2413638,4.72983508 11.4432231,5.52435785 11.4432231,6.56040808 C11.4432231,7.57407738 12.2144386,8.39191362 13.4087649,8.39191362 C14.6752124,8.39191362 15.4464279,7.57407738 15.4464279,6.56040808 C15.4214259,5.52435785 14.676174,4.72983508 13.4578073,4.72983508 L13.4578073,4.72983508 Z" id="Shape"></path>
                </g>
                <path d="M13.4495135,1.03932234 C6.59423141,1.03932234 1.03846154,6.42623837 1.03846154,13.0759549 C1.03846154,19.7222283 6.59423141,25.1100051 13.4495135,25.1100051 C20.303908,25.1100051 25.8605655,19.7213675 25.8605655,13.0759549 C25.8614531,6.42623837 20.303908,1.03932234 13.4495135,1.03932234 L13.4495135,1.03932234 Z M13.4495216,24.0393223 C7.18356318,24.0393223 2.10608528,19.1144986 2.10608528,13.040637 C2.10608528,6.96239314 7.18356318,2.03932234 13.4495216,2.03932234 C19.7136724,2.03932234 24.7920541,6.96239314 24.7920541,13.040637 C24.7920541,19.1144986 19.7136724,24.0393223 13.4495216,24.0393223 L13.4495216,24.0393223 Z" id="Shape"></path>
                <rect id="Rectangle-path" x="11.6937518" y="10.1208123" width="3.69692302" height="9.60995695"></rect>
                <path d="M13.4610529,5.40446315 C12.338182,5.40446315 11.6014367,6.13786878 11.6014367,7.09422284 C11.6014367,8.02991759 12.313328,8.78484334 13.415783,8.78484334 C14.5848114,8.78484334 15.2967027,8.02991759 15.2967027,7.09422284 C15.2736239,6.13786878 14.5856991,5.40446315 13.4610529,5.40446315 L13.4610529,5.40446315 Z" id="Shape"></path>
            </g>
        </g>
    </g>
</svg>