<?xml version="1.0" encoding="UTF-8" standalone="no"?>
<svg width="20px" height="24px" viewBox="0 0 20 24" version="1.1" xmlns="http://www.w3.org/2000/svg" xmlns:xlink="http://www.w3.org/1999/xlink">
    <!-- Generator: Sketch 3.6.1 (26313) - http://www.bohemiancoding.com/sketch -->
    <title>Notification off@3x</title>
    <desc>Created with Sketch.</desc>
    <defs></defs>
    <g id="Page-1" stroke="none" stroke-width="1" fill="none" fill-rule="evenodd">
        <g id="Экран-6.1" transform="translate(-15.000000, -398.000000)" fill="#FAC039">
            <g id="Notification-off" transform="translate(15.000000, 398.000000)">
                <path d="M9.86347481,23.1956753 C11.0105127,23.1956753 11.9489983,22.2418699 11.9489983,21.0761077 L7.77795132,21.0761077 C7.77795132,22.2418699 8.71643689,23.1956753 9.86347481,23.1956753 L9.86347481,23.1956753 Z M15.6521709,7.41095705 C16.2815728,8.44905253 16.6414261,9.67636047 16.6414261,11.008162 L16.6414261,16.8369727 L18.7269496,18.9565402 L18.7269496,20.016324 L4.86348178,20.016324 L15.6521709,7.41095705 Z M13.1577123,5.01014381 C12.6231194,4.71216882 12.0426201,4.48239649 11.4276174,4.33152428 L11.4276174,3.58967565 C11.4276174,2.74184863 10.6976842,2 9.86347481,2 C9.02926541,2 8.29933219,2.74184863 8.29933219,3.58967565 L8.29933219,4.33152428 C5.27532314,5.07337291 3.08552348,7.72283232 3.08552348,11.008162 L3.08552348,16.6659332 C3.16447073,16.6046205 3.24604833,16.5275004 3.33027843,16.4328455 C5.99000981,13.4439285 9.99161881,8.75142504 13.1577123,5.01014381 Z" id="Shape"></path>
                <path d="M18.6133726,0.269063767 C18.889391,-0.0527623952 19.3885388,-0.0875753156 19.7068325,0.173724103 L19.7068325,0.173724103 C20.0347154,0.442895623 20.0823286,0.915501028 19.8007415,1.24382007 L1.37203698,22.7309362 C1.09601858,23.0527624 0.596870734,23.0875753 0.278577023,22.8262759 L0.278577023,22.8262759 C-0.0493058408,22.5571044 -0.0969190037,22.084499 0.184668088,21.7561799 L18.6133726,0.269063767 L18.6133726,0.269063767 Z" id="Rectangle-153"></path>
            </g>
        </g>
    </g>
</svg>