<?xml version="1.0" encoding="UTF-8" standalone="no"?>
<svg width="18px" height="22px" viewBox="0 0 18 22" version="1.1" xmlns="http://www.w3.org/2000/svg" xmlns:xlink="http://www.w3.org/1999/xlink">
    <!-- Generator: Sketch 3.6.1 (26313) - http://www.bohemiancoding.com/sketch -->
    <title>notification (экран настроек)@3x</title>
    <desc>Created with Sketch.</desc>
    <defs></defs>
    <g id="Page-1" stroke="none" stroke-width="1" fill="none" fill-rule="evenodd">
        <g id="Экран-6.0" transform="translate(-16.000000, -400.000000)" fill="#FAC039">
            <path d="M24.8634748,421.195675 C26.0105127,421.195675 26.9489983,420.24187 26.9489983,419.076108 L22.7779513,419.076108 C22.7779513,420.24187 23.7164369,421.195675 24.8634748,421.195675 L24.8634748,421.195675 Z M31.6414261,414.836973 L31.6414261,409.008162 C31.6414261,405.722832 29.4516265,403.073373 26.4276174,402.331524 L26.4276174,401.589676 C26.4276174,400.741849 25.6976842,400 24.8634748,400 C24.0292654,400 23.2993322,400.741849 23.2993322,401.589676 L23.2993322,402.331524 C20.2753231,403.073373 18.0855235,405.722832 18.0855235,409.008162 L18.0855235,414.836973 L16,416.95654 L16,418.016324 L33.7269496,418.016324 L33.7269496,416.95654 L31.6414261,414.836973 L31.6414261,414.836973 Z" id="notification-(экран-настроек)"></path>
        </g>
    </g>
</svg>