<?xml version="1.0" encoding="UTF-8" standalone="no"?>
<svg width="22px" height="21px" viewBox="0 0 22 21" version="1.1" xmlns="http://www.w3.org/2000/svg" xmlns:xlink="http://www.w3.org/1999/xlink">
    <!-- Generator: Sketch 3.6.1 (26313) - http://www.bohemiancoding.com/sketch -->
    <title>settings@3x</title>
    <desc>Created with Sketch.</desc>
    <defs></defs>
    <g id="Page-1" stroke="none" stroke-width="1" fill="none" fill-rule="evenodd">
        <g id="Экран-5.0-" transform="translate(-345.000000, -31.000000)" fill="#00D56F">
            <path d="M362.665658,36.0810831 C362.160218,35.4132709 361.562486,34.8191816 360.891658,34.317824 C361.11965,33.0934124 361.210059,32.3276928 361.210059,32.3276928 C361.2199,32.2504364 361.183426,32.1532856 361.10291,32.0954216 C361.10291,32.0954216 360.814029,31.8425207 359.864317,31.439392 C358.914606,31.0362634 358.532011,31.0041398 358.532011,31.0041398 C358.447364,30.9899362 358.338929,31.0277376 358.290496,31.0884118 C358.290496,31.0884118 357.807547,31.6791714 357.091341,32.6841268 C356.6044,32.6010148 356.104068,32.5577261 355.593843,32.5577261 C355.083362,32.5577261 354.58296,32.6008901 354.096088,32.6837663 C353.380023,31.6790301 352.897189,31.0884118 352.897189,31.0884118 C352.848451,31.0276661 352.753229,30.9864172 352.655674,31.0041398 C352.655674,31.0041398 352.273079,31.0362634 351.323368,31.439392 C350.373656,31.8425207 350.084776,32.0954216 350.084776,32.0954216 C350.015757,32.1464451 349.967625,32.2507055 349.977626,32.3276928 C349.977626,32.3276928 350.067907,33.0923231 350.295541,34.3152112 C349.499541,34.9097222 348.80677,35.6348275 348.248981,36.4587502 C347.006949,36.2715592 346.231119,36.2073136 346.231119,36.2073136 C346.153567,36.2001749 346.057748,36.2400179 346.002729,36.3225043 C346.002729,36.3225043 345.760064,36.6200351 345.390326,37.583237 C345.020587,38.546439 345.001835,38.9299221 345.001835,38.9299221 C344.990595,39.0150135 345.032157,39.1220628 345.094485,39.1683484 C345.094485,39.1683484 345.726586,39.6492912 346.794137,40.3527097 C346.752023,40.7030699 346.730353,41.0597118 346.730353,41.4214069 L346.730353,41.5785936 C346.730353,42.1005468 346.77558,42.6119626 346.862313,43.1091544 C345.835425,43.8658914 345.230903,44.3779506 345.230903,44.3779506 C345.171017,44.4277409 345.131436,44.5236683 345.150859,44.620899 C345.150859,44.620899 345.189655,45.0028752 345.609297,45.9454065 C346.028939,46.8879379 346.286843,47.1723607 346.286843,47.1723607 C346.339063,47.2404779 346.444148,47.2867839 346.520949,47.2754406 C346.520949,47.2754406 347.291993,47.1707279 348.522027,46.9189176 C349.027467,47.5867297 349.625199,48.1808191 350.296027,48.6821765 C350.068035,49.9065878 349.977626,50.6723071 349.977626,50.6723071 C349.967785,50.7495633 350.00426,50.8467144 350.084776,50.9045783 C350.084776,50.9045783 350.373656,51.1574799 351.323368,51.5606085 C352.273079,51.9637371 352.655675,51.9958602 352.655675,51.9958602 C352.740322,52.0100637 352.848756,51.9722622 352.897189,51.911588 C352.897189,51.911588 353.380138,51.3208288 354.096344,50.3158737 C354.583285,50.3989857 355.083617,50.4422744 355.593843,50.4422744 C356.104323,50.4422744 356.604725,50.3991104 357.091598,50.3162342 C357.807662,51.32097 358.290496,51.911588 358.290496,51.911588 C358.339234,51.9723338 358.434456,52.0135828 358.532011,51.9958602 C358.532011,51.9958602 358.914606,51.9637371 359.864317,51.5606085 C360.814029,51.1574799 361.102909,50.9045783 361.102909,50.9045783 C361.171928,50.8535548 361.22006,50.7492944 361.210059,50.6723071 C361.210059,50.6723071 361.119778,49.907677 360.892144,48.6847894 C361.688145,48.0902784 362.380916,47.365173 362.938704,46.5412502 C364.180736,46.7284411 364.956565,46.7926866 364.956565,46.7926866 C365.034118,46.7998253 365.129937,46.7599823 365.184955,46.6774961 C365.184955,46.6774961 365.427621,46.3799654 365.79736,45.4167635 C366.167098,44.4535615 366.185849,44.0700782 366.185849,44.0700782 C366.19709,43.9849868 366.155527,43.8779375 366.0932,43.8316518 C366.0932,43.8316518 365.461099,43.3507092 364.393548,42.647291 C364.435662,42.2969306 364.457332,41.9402887 364.457332,41.5785936 L364.457332,41.4214069 C364.457332,40.8994537 364.412105,40.3880378 364.325372,39.890846 C365.35226,39.1341091 365.956782,38.6220502 365.956782,38.6220502 C366.016667,38.57226 366.056248,38.4763326 366.036826,38.3791017 C366.036826,38.3791017 365.99803,37.9971253 365.578388,37.054594 C365.158747,36.1120627 364.900842,35.82764 364.900842,35.82764 C364.848622,35.7595229 364.743537,35.7132169 364.666736,35.7245603 C364.666736,35.7245603 363.895691,35.8292728 362.665658,36.0810831 L362.665658,36.0810831 Z M355.593843,36.8159519 C353.029706,36.8159519 350.951062,38.8950362 350.951062,41.4451102 L350.951062,41.5548903 C350.951062,44.1115038 353.034923,46.1840486 355.593843,46.1840486 C358.157979,46.1840486 360.236623,44.1049643 360.236623,41.5548903 L360.236623,41.4451102 C360.236623,38.8884967 358.152762,36.8159519 355.593843,36.8159519 L355.593843,36.8159519 Z" id="settings"></path>
        </g>
    </g>
</svg>