<?xml version="1.0" encoding="UTF-8" standalone="no"?>
<svg width="23px" height="20px" viewBox="0 0 23 20" version="1.1" xmlns="http://www.w3.org/2000/svg" xmlns:xlink="http://www.w3.org/1999/xlink">
    <!-- Generator: Sketch 3.6.1 (26313) - http://www.bohemiancoding.com/sketch -->
    <title>sound1@3x</title>
    <desc>Created with Sketch.</desc>
    <defs></defs>
    <g id="Page-1" stroke="none" stroke-width="1" fill="none" fill-rule="evenodd">
        <g id="Экран-6.0" transform="translate(-15.000000, -313.000000)" fill="#00D670">
            <path d="M34.9712934,313.357095 C35.0442064,313.441798 35.1484368,313.573192 35.2972422,313.776597 C36.9089415,315.979667 38,319.443956 38,322.661071 C38,325.878187 36.9260247,329.263893 35.4260526,331.363933 C35.2260817,331.643903 35.0835792,331.817446 34.9847318,331.924865 C34.8425426,332.151794 34.59024,332.302693 34.3026933,332.302693 C33.8585023,332.302693 33.4984144,331.942605 33.4984144,331.498414 C33.4984144,331.459295 33.5012073,331.420828 33.5066045,331.383202 C33.520138,331.26421 33.562339,331.148056 33.6344081,331.048276 C33.6344081,331.048276 33.8408418,330.767331 34.1228301,330.362689 C35.1868897,328.835805 36.3768138,325.878187 36.3938187,322.661071 C36.3768138,319.443956 35.2088815,316.635557 34.1228301,314.96554 C33.8107806,314.485703 33.6395946,314.282683 33.6395946,314.282683 C33.544413,314.157966 33.4978122,314.005632 33.4998166,313.852168 C33.4988862,313.836324 33.4984144,313.820357 33.4984144,313.804279 C33.4984144,313.360088 33.8585023,313 34.3026933,313 C34.5813909,313 34.82698,313.141754 34.9712934,313.357095 L34.9712934,313.357095 Z M31.7091265,316.513367 C31.741425,316.545004 31.772018,316.579509 31.8005992,316.616856 C31.8005992,316.616856 31.9103315,316.730807 32.1368695,317.091176 C33.1283898,318.61046 33.8551483,320.568243 33.8778745,322.593838 C33.8551483,324.867582 33.3181219,326.669439 32.1368695,328.261664 C31.8950143,328.587663 31.8131495,328.679552 31.8131495,328.679552 C31.7796831,328.721308 31.7436003,328.759438 31.7053597,328.793909 C31.5578365,328.972075 31.3349621,329.085578 31.0855777,329.085578 C30.6413867,329.085578 30.2812988,328.72549 30.2812988,328.281299 C30.2812988,328.024547 30.4016075,327.795894 30.588926,327.64864 C30.6730295,327.544013 30.817077,327.368535 31.0370775,327.111796 C32.0539197,325.925148 32.2345332,324.510234 32.2455176,322.593838 C32.2345332,320.995873 31.6729083,319.382846 30.9141579,318.139158 C30.6176166,317.711279 30.4944651,317.568972 30.4944651,317.568972 C30.4910009,317.564508 30.4875898,317.560015 30.4842316,317.555493 C30.3579841,317.413453 30.2812988,317.226379 30.2812988,317.021394 C30.2812988,316.577203 30.6413867,316.217116 31.0855777,316.217116 C31.3370939,316.217116 31.561645,316.332567 31.7091265,316.513367 L31.7091265,316.513367 Z M21.0557469,317.841347 L16.0249352,317.841347 C15.4587228,317.841347 15,318.32684 15,318.926096 L15,326.376597 C15,326.975853 15.4587228,327.461347 16.0249352,327.461347 L21.0557469,327.461347 L26.747392,332.146438 C27.2038439,332.522175 27.8684622,332.177683 27.8684622,331.56641 L27.8684622,313.736284 C27.8684622,313.125011 27.2038439,312.780519 26.747392,313.156255 L21.0557469,317.841347 L21.0557469,317.841347 Z" id="sound1"></path>
        </g>
    </g>
</svg>