<?xml version="1.0" encoding="UTF-8" standalone="no"?>
<svg width="23px" height="24px" viewBox="0 0 23 24" version="1.1" xmlns="http://www.w3.org/2000/svg" xmlns:xlink="http://www.w3.org/1999/xlink">
    <!-- Generator: Sketch 3.6.1 (26313) - http://www.bohemiancoding.com/sketch -->
    <title>Sound_off1@3x</title>
    <desc>Created with Sketch.</desc>
    <defs></defs>
    <g id="Page-1" stroke="none" stroke-width="1" fill="none" fill-rule="evenodd">
        <g id="Экран-6.1" transform="translate(-15.000000, -310.000000)" fill="#00D670">
            <g id="Sound_off1" transform="translate(15.000000, 310.000000)">
                <path d="M20.4586061,4.30736624 C21.8732433,6.43568516 22.8127103,9.57894366 22.8127103,12.5093708 C22.8127103,15.6093708 21.7778319,18.8718242 20.3324647,20.8954143 C20.1397735,21.1651919 20.0024587,21.3324179 19.9072096,21.4359264 C19.7701967,21.6545943 19.5270789,21.8 19.25,21.8 C18.8219793,21.8 18.475,21.4530207 18.475,21.025 C18.475,20.9873048 18.4776913,20.9502381 18.482892,20.9139816 C18.4959328,20.7993216 18.5365975,20.6873957 18.606043,20.5912488 C18.606043,20.5912488 18.8049617,20.3205314 19.0766846,19.9306196 C20.1020082,18.45932 21.2486145,15.6093705 21.2650003,12.5093708 C21.250178,9.70516127 20.3278686,7.22321866 19.3773714,5.58397477 L20.4586061,4.30736624 L20.4586061,4.30736624 Z M17.5356192,7.75852275 C18.2954596,9.11768954 18.821709,10.7567054 18.8406462,12.4445846 C18.8187474,14.6355561 18.3012709,16.371818 17.1630206,17.9060795 C16.9299699,18.2202111 16.8510853,18.308755 16.8510853,18.308755 C16.8188372,18.3489909 16.784068,18.3857335 16.7472195,18.4189495 C16.6050667,18.5906289 16.3903058,18.7 16.15,18.7 C15.7219793,18.7 15.375,18.3530207 15.375,17.925 C15.375,17.6775947 15.490929,17.4572661 15.6714284,17.3153728 C15.7524701,17.2145538 15.8912737,17.0454644 16.1032653,16.7980716 C17.0830905,15.6546226 17.257129,14.2912164 17.2677135,12.4445845 C17.2595694,11.2597932 16.9372856,10.0664088 16.4560446,9.03317148 L17.5356192,7.75852275 L17.5356192,7.75852275 Z M5.53179537,17.1348973 L1.63762353,17.1348973 C1.09202353,17.1348973 0.65,16.6670777 0.65,16.0896371 L0.65,8.91036295 C0.65,8.33292232 1.09202353,7.86510278 1.63762353,7.86510278 L6.48529411,7.86510278 L11.9697411,3.350567 C12.4095764,2.98850864 13.05,3.3204598 13.05,3.90948011 L13.05,8.2581889 L5.53179537,17.1348973 L5.53179537,17.1348973 Z M8.31711589,18.6427658 L11.9697411,21.649433 C12.4095764,22.0114913 13.05,21.6795402 13.05,21.0905199 L13.05,13.054672 L8.31711589,18.6427658 L8.31711589,18.6427658 Z" id="Fill-1-Copy"></path>
                <path d="M20.3534797,0.69560963 C20.6294981,0.366663721 21.128646,0.331080636 21.4469397,0.598160771 L21.4469397,0.598160771 C21.7748225,0.873287161 21.8224357,1.356348 21.5408486,1.69193043 L3.11214412,23.6544052 C2.83612573,23.9833511 2.33697788,24.0189342 2.01868417,23.7518541 L2.01868417,23.7518541 C1.69080131,23.4767277 1.64318815,22.9936668 1.92477524,22.6580844 L20.3534797,0.69560963 L20.3534797,0.69560963 Z" id="Rectangle-153"></path>
            </g>
        </g>
    </g>
</svg>