<?xml version="1.0" encoding="UTF-8" standalone="no"?>
<svg width="23px" height="20px" viewBox="0 0 23 20" version="1.1" xmlns="http://www.w3.org/2000/svg" xmlns:xlink="http://www.w3.org/1999/xlink">
    <!-- Generator: Sketch 3.6.1 (26313) - http://www.bohemiancoding.com/sketch -->
    <title>Vibrate@3x</title>
    <desc>Created with Sketch.</desc>
    <defs></defs>
    <g id="Page-1" stroke="none" stroke-width="1" fill="none" fill-rule="evenodd">
        <g id="Экран-6.0" transform="translate(-15.000000, -356.000000)">
            <g id="phone" transform="translate(15.000000, 356.000000)">
                <g id="Capa_1">
                    <g id="Group">
                        <g id="Vibrate">
                            <path d="M9.53931113,19.2347715 C9.79558235,19.8596625 10.5203346,20.1630799 11.1590192,19.9115792 L18.9321548,16.8582233 C19.5708394,16.6075269 19.8805433,15.8976228 19.6243132,15.2731339 L13.6705594,0.765239299 C13.4143293,0.140348305 12.6887549,-0.162666924 12.0500703,0.0880294181 L4.27693475,3.14174732 C3.63866118,3.39288602 3.32973824,4.10238804 3.58596836,4.72727903 L9.53931113,19.2347715 Z M14.7431582,17.7019608 C14.340687,17.8603652 13.8839612,17.6700306 13.7224301,17.2762516 C13.5612691,16.8832768 13.756216,16.4364148 14.1586872,16.2783724 C14.5600075,16.1206918 15.0171033,16.3110264 15.1782233,16.7044838 C15.3393844,17.0982226 15.1444374,17.5442803 14.7431582,17.7019608 L14.7431582,17.7019608 Z M6.68093911,5.54622275 L12.1375702,3.40288614 C12.2890428,3.34317564 12.4612128,3.41481437 12.5225603,3.56336246 L16.4744588,13.1934322 C16.5354874,13.3416336 16.4615939,13.5104319 16.3100858,13.5697956 L10.8538092,15.7131322 C10.7019821,15.7724613 10.5298122,15.7005452 10.4691381,15.5523092 L6.51755844,5.92223942 C6.45624638,5.77400341 6.529431,5.60555183 6.68093911,5.54622275 L6.68093911,5.54622275 Z" id="-" fill="#00A2FF"></path>
                            <path d="M17.889949,1.46393828 L16.6739229,5.11090123 L20.3882808,6.35489406 L19.3617357,9.86211064 L22.9328335,11.0330475" id="Line" stroke="#00A2FF" stroke-linecap="square" transform="translate(19.803378, 6.248493) rotate(7.000000) translate(-19.803378, -6.248493) "></path>
                            <path d="M1.63303336,8.58030027 L0.417007216,12.2272632 L4.13136513,13.4712561 L3.10482003,16.9784726 L6.67591782,18.1494095" id="Line-Copy-4" stroke="#00A2FF" stroke-linecap="square" transform="translate(3.546463, 13.364855) rotate(-175.000000) translate(-3.546463, -13.364855) "></path>
                        </g>
                    </g>
                </g>
            </g>
        </g>
    </g>
</svg>