<svg width="163" height="163" viewBox="0 0 163 163" xmlns="http://www.w3.org/2000/svg" xmlns:xlink="http://www.w3.org/1999/xlink"><title>Group 5</title><defs><path id="a" d="M104.869 0c16.163 0 24.242 0 32.943 2.75a34.194 34.194 0 0 1 20.438 20.438C161 31.888 161 39.97 161 56.131v48.738c0 16.163 0 24.242-2.75 32.943a34.188 34.188 0 0 1-20.438 20.436c-8.7 2.752-16.78 2.752-32.943 2.752H56.13c-16.163 0-24.244 0-32.943-2.752A34.188 34.188 0 0 1 2.75 137.812C0 129.112 0 121.032 0 104.869V56.13C0 39.97 0 31.887 2.75 23.188A34.194 34.194 0 0 1 23.188 2.75C31.888 0 39.968 0 56.131 0h48.738z"/><linearGradient x1="64.197%" y1="10.34%" x2="50%" y2="100%" id="c"><stop stop-color="#FFDE00" offset="0%"/><stop stop-color="#FFA800" offset="100%"/></linearGradient><linearGradient x1="50%" y1="0%" x2="50%" y2="100%" id="d"><stop stop-color="#4F4F4F" offset="0%"/><stop offset="100%"/></linearGradient><linearGradient x1="62.011%" y1="0%" x2="50%" y2="100%" id="e"><stop stop-color="#FF2D1C" offset="0%"/><stop stop-color="#D20B00" offset="100%"/></linearGradient><linearGradient x1="50%" y1="8.18%" x2="50%" y2="100%" id="f"><stop stop-color="#00DB54" offset="0%"/><stop stop-color="#00941D" offset="100%"/></linearGradient><linearGradient x1="50%" y1="0%" x2="50%" y2="100%" id="g"><stop stop-color="#009CE0" offset="0%"/><stop stop-color="#005C85" offset="100%"/></linearGradient><linearGradient x1="50%" y1="0%" x2="50%" y2="100%" id="h"><stop stop-color="#303030" offset="0%"/><stop stop-color="#656565" offset="100%"/></linearGradient><filter x="-50%" y="-50%" width="200%" height="200%" filterUnits="objectBoundingBox" id="i"><feOffset dy="1" in="SourceAlpha" result="shadowOffsetInner1"/><feGaussianBlur stdDeviation=".5" in="shadowOffsetInner1" result="shadowBlurInner1"/><feComposite in="shadowBlurInner1" in2="SourceAlpha" operator="arithmetic" k2="-1" k3="1" result="shadowInnerInner1"/><feColorMatrix values="0 0 0 0 0.185932185 0 0 0 0 0.185932185 0 0 0 0 0.185932185 0 0 0 0.7 0" in="shadowInnerInner1" result="shadowMatrixInner1"/><feMerge><feMergeNode in="SourceGraphic"/><feMergeNode in="shadowMatrixInner1"/></feMerge></filter><linearGradient x1="50%" y1="0%" x2="50%" y2="100%" id="j"><stop stop-color="#868686" offset="0%"/><stop stop-color="#EDEDED" offset="30.531%"/><stop stop-color="#373737" offset="100%"/></linearGradient><filter x="-50%" y="-50%" width="200%" height="200%" filterUnits="objectBoundingBox" id="k"><feOffset dy="1" in="SourceAlpha" result="shadowOffsetOuter1"/><feGaussianBlur stdDeviation=".5" in="shadowOffsetOuter1" result="shadowBlurOuter1"/><feColorMatrix values="0 0 0 0 0.395222151 0 0 0 0 0.395222151 0 0 0 0 0.395222151 0 0 0 0.572554348 0" in="shadowBlurOuter1" result="shadowMatrixOuter1"/><feMerge><feMergeNode in="shadowMatrixOuter1"/><feMergeNode in="SourceGraphic"/></feMerge></filter><linearGradient x1="50%" y1="0%" x2="50%" y2="100%" id="l"><stop stop-color="#AEAEAE" offset="0%"/><stop stop-color="#CDCDCD" offset="100%"/></linearGradient><filter x="-50%" y="-50%" width="200%" height="200%" filterUnits="objectBoundingBox" id="m"><feOffset dy="1" in="SourceAlpha" result="shadowOffsetInner1"/><feGaussianBlur stdDeviation=".5" in="shadowOffsetInner1" result="shadowBlurInner1"/><feComposite in="shadowBlurInner1" in2="SourceAlpha" operator="arithmetic" k2="-1" k3="1" result="shadowInnerInner1"/><feColorMatrix values="0 0 0 0 0.185932185 0 0 0 0 0.185932185 0 0 0 0 0.185932185 0 0 0 0.7 0" in="shadowInnerInner1" result="shadowMatrixInner1"/><feMerge><feMergeNode in="SourceGraphic"/><feMergeNode in="shadowMatrixInner1"/></feMerge></filter></defs><g transform="translate(1 1)" fill="none" fill-rule="evenodd"><mask id="b" fill="#fff"><use xlink:href="#a"/></mask><use stroke-opacity=".5" stroke="#FFF" stroke-width=".5" fill-opacity="0" fill="#D8D8D8" xlink:href="#a"/><g opacity=".5" mask="url(#b)"><circle stroke="#FFF" stroke-width=".5" cx="80.264" cy="80.264" r="69.898"/><ellipse stroke="#FFF" stroke-width=".5" cx="80.264" cy="80.264" rx="43.195" ry="43.195"/><path fill="#FFF" d="M.079 10.76v-.315H160.92v.315H.08zM.079 150.713v-.315H160.92v.315H.08zM.079 50.343v-.315H160.92v.315H.08zM.079 111.13v-.315H160.92v.315H.08z"/><path fill="#FFF" d="M110.972.079h.315V160.92h-.315V.08zM50.028.079h.315V160.92h-.315V.08zM10.445.079h.315V160.92h-.315V.08zM150.398.079h.315V160.92h-.315V.08zM80.343.079h.315V160.92h-.315V.08z"/><path fill="#FFF" d="M.079 80.343H160.92v.315H.08v-.315z"/><path d="M160.866.023l.111.111L.134 160.977l-.111-.111L160.866.023z" stroke="#FFF" stroke-width=".5"/><path d="M.023.134L.134.023l160.843 160.843-.111.111L.023.134z" stroke="#FFF" stroke-width=".5"/></g><path d="M112.167 86.595l-.834 2.22a33.281 33.281 0 0 1-11.945 15.496 32.671 32.671 0 0 1-19.741 6.041l-.255-.007a37.305 37.305 0 0 1-.793-.033 32.922 32.922 0 0 1-1.891-.156l-.169-.018c-.179-.021-.358-.043-.536-.067l-.098-.014a32.809 32.809 0 0 1-4.187-.852l-.065-.017c-.139-.038-.277-.079-.415-.119a34.347 34.347 0 0 1-1.157-.358l-.151-.05a32.721 32.721 0 0 1-2.26-.855l9.568-36.186c2.265.408 4.621.406 6.884-.004l8.539 32.294a29.286 29.286 0 0 0 4.59-2.666 29.779 29.779 0 0 0 3.921-3.33L93.1 67.385c4.4-3.705 6.99-9.239 6.99-15.05 0-8.916-5.946-16.635-14.346-18.915v-14.55H75.98v14.45a19.429 19.429 0 0 0-10.051 6.257 19.69 19.69 0 0 0-4.683 12.758 19.733 19.733 0 0 0 7.01 15.067l-9.264 35.037-.111-.095c-.202-.174-.403-.35-.6-.53l-.195-.178c-.211-.195-.421-.39-.627-.59l-.033-.032a33.218 33.218 0 0 1-2.05-2.18c-.022-.023-.043-.048-.064-.072-.19-.222-.375-.447-.559-.674l-.146-.18a34.642 34.642 0 0 1-.513-.66l-.154-.205c-.167-.225-.333-.45-.495-.68l-.11-.158a33.312 33.312 0 0 1-1.47-2.3l-.136-.232c-.119-.207-.233-.417-.348-.627l-.202-.375a34.157 34.157 0 0 1-.793-1.605c-.072-.156-.14-.314-.21-.47-.084-.19-.168-.378-.249-.568-.073-.176-.143-.353-.214-.53-.065-.164-.133-.326-.196-.491l-.843-2.2h-.001l-8.267 5.658L41 93.88c3.274 7.82 8.633 14.29 15.266 18.87l-4.582 17.157 6.906 12.066 6.534-24.536c.6.231 1.205.449 1.816.654l.052.017c.258.086.517.17.776.25l.174.056a43.312 43.312 0 0 0 1.45.417l.11.03c.242.065.485.127.728.188.005 0 .01.002.014.003a42.16 42.16 0 0 0 6.819 1.105l.258.02c.164.013.328.023.491.033a38.857 38.857 0 0 0 1.44.065l.303.008c.301.007.603.011.905.011h.021c5.431 0 10.74-1.022 15.701-2.995l6.589 24.674 6.906-12.066-4.664-17.397a43.132 43.132 0 0 0 14.992-18.734l.588-1.415-8.426-5.767zM80.67 41.741c5.79 0 10.5 4.752 10.5 10.593 0 5.84-4.71 10.592-10.5 10.592s-10.501-4.751-10.501-10.592 4.71-10.593 10.5-10.593z" fill="#FFF" mask="url(#b)"/><rect stroke="#939292" stroke-width=".5" fill="#FFF" x="1" y="1" width="160" height="160" rx="31.5"/><path d="M49.799 30.33c3.653-9.716 4.565 24.912 4.565 24.912 2.827-5.127 7.336-6.624 11.219-13.786 3.883-7.162 4.39-10.379 2.94-16.036C67.788 22.545 63.81 15.6 64 9.387c.184-6.016 1.418-8.09.983-9.086-.884-2.027-27.887 10.291-35.42 27.145-7.524 16.85-5.642 35.814 15.635 47.016-17.195-24.906.95-34.416 4.602-44.132z" fill="url(#c)" transform="translate(37 45)"/><path d="M44.53 106.903c22.402 0 40.935-12.398 44.345-28.608H.185c3.41 16.204 21.94 28.608 44.345 28.608z" fill="url(#d)" transform="translate(37 45)"/><path d="M36.35 52.787c1.068-4.69 12.107-9.672 15.228-12.54 5.99-5.503 3.898-16.64 6.478-14.827 2.58 1.814 7.138 10.452 5.656 18.548-.664 3.63-5.207 8.047-5.207 8.047s1.494-.1 4.623-1.235c3.13-1.135 3.53-5.48 3.773-3.75.243 1.73 1.959 5.559-2.23 8.36-4.557 3.048-8.108 4.867-10.953 7.229-6.135 5.092-2.234 11.67-2.234 11.67S33.236 66.476 36.35 52.787z" fill="url(#e)" transform="translate(37 45)"/><path d="M55.171 65.314c3.168-5.72 9.55-6.738 14.094-10.56 4.544-3.823-1.57-13.105.768-12.374 2.338.731 7.703 7.116 7.893 11.573.216 5.077-4.944 7.114-4.944 7.114s.801-.053 2.48-.662c1.678-.61 2.567-2.291 2.697-1.363.13.929-.174 5.894-5.553 9.461-5.379 3.568-15.956 5.376-15.956 5.376s-5.006-2.196-1.479-8.565z" fill="url(#f)" transform="translate(37 45)"/><path d="M21.053 54.245c-2.337-9.306.974-16.093 1.002-17.545.02-1.01-3.41.299-7.304 3.443-3.895 3.145-6.972 7.448-7.3 12.102-.39 5.566 4.03 8.28 4.934 9.774.811 1.342-4.76-2.363-3.906-.773 3.182 5.92 7.334 7.847 11.53 9.537 7.588 3.057 18.143 3.198 18.143 3.198s-14.763-10.43-17.1-19.736z" fill="url(#g)" transform="translate(37 45)"/><path d="M108.41 79.544c2.41-2.46 1.12-4.34 1.8-3.915.678.425 3.379 3.24 1.734 5.504-1.645 2.264-.8 4.132-1.685 3.65-.885-.483-4.258-2.78-1.85-5.239z" fill="#00D751"/><path d="M53.844 67.56c1.864-2.396.692-4.108 1.278-3.736.587.372 2.98 2.907 1.74 5.09s-.436 3.9-1.197 3.482c-.76-.419-3.685-2.442-1.821-4.837z" fill="#00A1E8"/><circle fill="url(#h)" filter="url(#i)" cx="50" cy="17" r="3"/><rect fill="url(#j)" filter="url(#k)" x="49" y="16" width="65" height="4" rx="31.5"/><path fill="url(#l)" d="M1 35h160v2H1z"/><circle fill="url(#h)" filter="url(#m)" cx="112" cy="17" r="3"/></g></svg>