<?xml version="1.0" encoding="UTF-8" standalone="no"?>
<svg width="19px" height="25px" viewBox="0 0 19 25" version="1.1" xmlns="http://www.w3.org/2000/svg" xmlns:xlink="http://www.w3.org/1999/xlink">
    <!-- Generator: Sketch 3.6.1 (26313) - http://www.bohemiancoding.com/sketch -->
    <title>opening ceremony copy@3x</title>
    <desc>Created with Sketch.</desc>
    <defs></defs>
    <g id="Page-1" stroke="none" stroke-width="1" fill="none" fill-rule="evenodd">
        <g id="assets-icon" transform="translate(-778.000000, -23.000000)" fill="#B3B3B3">
            <g id="opening-ceremony-copy" transform="translate(778.000000, 23.000000)">
                <g id="Capa_1">
                    <g id="XMLID_157_">
                        <path d="M9.54931694,6.8312249 C10.6768579,7.19548193 11.896959,6.60677711 12.2736885,5.51526104 C12.6503142,4.42414659 12.0402377,3.24497992 10.9127486,2.88062249 C9.78261202,2.51641566 8.56339344,3.1060241 8.18754645,4.19713855 C7.81092077,5.28825301 8.42099727,6.46736948 9.54931694,6.8312249 L9.54931694,6.8312249 Z" id="XMLID_158_"></path>
                        <path d="M18.5441557,5.20753012 L17.9171557,5.20753012 C18.2239071,4.96556225 18.4640546,4.63017068 18.6292404,4.23258032 C19.2224454,2.80808233 18.1496202,0 16.8899617,0 C17.3870246,0.682931727 17.5960765,1.82946787 16.6244809,2.78529116 C16.4483415,2.46671687 16.5283907,1.999749 16.5114672,1.59718876 C15.7355301,1.93895582 15.0621202,2.80803213 15.0621202,4.01450803 C15.0621202,4.49081325 15.2811913,4.91420683 15.6225683,5.20753012 L15.3149863,5.20753012 C15.0763962,5.20753012 14.883541,5.39417671 14.883541,5.624749 C14.883541,5.85537149 15.0763962,6.04196787 15.3149863,6.04196787 L15.3806557,6.04196787 C15.4893607,6.41767068 15.7345956,6.73634538 16.0674071,6.94041165 L16.1652623,8.437751 L12.927735,9.27464859 L10.5185246,7.79693775 C10.3095246,7.66646586 9.98756284,7.5373494 9.74071858,7.45788153 L8.9899071,7.21546185 C8.81381967,7.15838353 8.29552459,7.06310241 8.08154098,7.11526104 L3.85881694,8.11962851 C3.49729781,8.20557229 3.22678142,8.49648594 3.17710109,8.85341365 L2.68242623,12.3998494 C2.60912568,12.9262048 3.03465301,13.3931727 3.58155191,13.3931727 C4.02825956,13.3931727 4.41755191,13.073745 4.47906831,12.6336345 L4.89115027,9.67846386 L6.30005738,9.3436245 L4.92655464,13.3259538 L4.46479235,17.8898092 L1.36545628,17.2888052 C0.74686612,17.1685743 0.165393443,17.5528112 0.0449043716,18.1395582 C-0.0772978142,18.7270582 0.317030055,19.2986446 0.923784153,19.4165161 L5.22390984,20.2496988 C5.88122678,20.3739458 6.48886339,19.9281627 6.55956831,19.3056225 L6.89331421,16.3972892 L7.09385246,16.4620482 L9.32354918,18.076757 L8.76569672,23.8119478 C8.70750273,24.4084839 9.16012842,24.9373494 9.77690164,24.9935241 C10.3988142,25.0493474 10.9406257,24.6085341 10.9987678,24.0149096 L11.6157486,17.674247 C11.6527623,17.2981426 11.4842541,16.9310241 11.1715328,16.7045181 L9.03870492,15.1602912 L10.7881585,10.0871486 L12.3318825,10.9704819 C12.535847,11.086998 12.7836257,11.1244478 13.0279781,11.0629518 L16.282429,10.221988 L16.3472678,11.2181225 C16.3666831,11.5152108 16.6211066,11.7465863 16.929571,11.7465863 C17.2380355,11.7465863 17.4925109,11.5152108 17.5118743,11.2181225 L17.7908005,6.94126506 C18.1237158,6.73664659 18.3696776,6.41807229 18.4784863,6.04196787 L18.5442596,6.04196787 C18.7826421,6.04196787 18.9757049,5.85537149 18.9757049,5.624749 C18.9755492,5.39422691 18.7825383,5.20753012 18.5441557,5.20753012 L18.5441557,5.20753012 Z" id="XMLID_159_"></path>
                    </g>
                </g>
            </g>
        </g>
    </g>
</svg>