<?xml version="1.0" encoding="UTF-8" standalone="no"?>
<svg width="21px" height="25px" viewBox="0 0 21 25" version="1.1" xmlns="http://www.w3.org/2000/svg" xmlns:xlink="http://www.w3.org/1999/xlink">
    <!-- Generator: Sketch 3.6.1 (26313) - http://www.bohemiancoding.com/sketch -->
    <title>BMX Copy@3x</title>
    <desc>Created with Sketch.</desc>
    <defs></defs>
    <g id="Page-1" stroke="none" stroke-width="1" fill="none" fill-rule="evenodd">
        <g id="assets-icon" transform="translate(-792.000000, -513.000000)" fill="#B3B3B3">
            <g id="BMX-Copy" transform="translate(792.000000, 513.000000)">
                <g id="Capa_1">
                    <g id="Group">
                        <path d="M4.62598993,16.7385854 C3.67408389,16.7385854 2.7442349,17.069888 2.0092349,17.6704482 C1.1603557,18.3642157 0.632677852,19.3482493 0.525634228,20.4390056 C0.418590604,21.5302521 0.744372483,22.5969888 1.44322148,23.4413866 C2.22881879,24.3908964 3.39185235,24.935014 4.63381208,24.935014 L4.6342349,24.935014 C5.58656376,24.935014 6.51556711,24.6044818 7.25063758,24.0040616 C9.00716779,22.5684174 9.26107047,19.9797619 7.81636913,18.2338936 C7.03084228,17.2836134 5.86794966,16.7385854 4.62598993,16.7385854 L4.62598993,16.7385854 Z M6.05420134,22.5584034 C5.65513087,22.8855742 5.14951007,23.0646359 4.63261409,23.0646359 L4.63176846,23.0646359 C3.95659732,23.0646359 3.32398993,22.7685574 2.89708389,22.2521709 C2.51704027,21.7934174 2.34044295,21.2135854 2.39836913,20.6206583 C2.457,20.0268908 2.7428255,19.4928571 3.20447315,19.1151961 C3.60481208,18.7889356 4.10958725,18.6089636 4.62732886,18.6089636 C5.30292282,18.6089636 5.93510738,18.905042 6.36187248,19.4214286 C7.14739933,20.3708683 7.00920805,21.7778711 6.05420134,22.5584034 L6.05420134,22.5584034 Z" id="Shape"></path>
                        <path d="M20.0443591,11.1103641 C19.2589732,10.160014 18.0957282,9.61519608 16.8541208,9.61519608 C15.9015805,9.61519608 14.971943,9.94635854 14.2372953,10.547409 C12.4799195,11.9826331 12.2265101,14.5712185 13.6711409,16.3172269 C14.4569497,17.267507 15.619349,17.8121148 16.8613792,17.8121148 C17.8139195,17.8121148 18.7431342,17.4811625 19.4777819,16.8810924 C21.2355101,15.4442577 21.4885671,12.8548319 20.0443591,11.1103641 L20.0443591,11.1103641 Z M18.3199631,15.4813025 C17.909547,15.8159664 17.3906779,16.0001401 16.8596174,16.0001401 C16.1656309,16.0001401 15.5173792,15.6957283 15.0794094,15.1667367 C14.2728826,14.1915966 14.414245,12.7471289 15.3950436,11.9460784 C15.8046141,11.6109244 16.3246812,11.4263305 16.8558121,11.4263305 C17.5485302,11.4263305 18.1976275,11.7303221 18.6360201,12.260014 C19.4426174,13.234944 19.2999866,14.6798319 18.3199631,15.4813025 L18.3199631,15.4813025 Z" id="Shape"></path>
                        <path d="M10.2205872,15.6755602 C10.1160805,15.5154062 9.76422483,15.1861345 8.6970302,14.1903361 C7.45507047,13.0306022 5.41504027,11.1257003 5.05508054,10.5351541 C5.3445,10.2935574 6.69251678,9.75868347 7.89888926,9.35777311 C8.05991275,9.27640056 8.27188591,9.1872549 8.48287248,9.09852941 C8.70182215,9.00644258 8.92063087,8.91435574 9.08778523,8.82941176 C9.44873154,8.64691877 9.72736913,8.39628852 9.91883557,8.08326331 C10.9052013,8.27184874 13.9144732,8.82268908 14.6401711,8.95133053 L14.6732215,8.95742297 L14.7049329,8.95343137 C15.1606611,8.89831933 16.003198,8.56211485 15.9388591,7.68011204 C15.8757886,6.83697479 15.1319094,6.4429972 14.7350235,6.35007003 C13.8595067,6.19467787 10.4549698,5.56687675 9.44133221,5.36834734 C8.88060403,4.89257703 8.13334228,4.81414566 7.42392282,5.1745098 L1.32941275,8.26309524 C0.0125436242,8.93067227 -0.215708054,10.2636555 0.234946309,11.1958683 C0.288010067,11.4985994 0.537332215,11.6621849 0.757338926,11.8068627 C0.829288591,11.8544118 0.902295302,11.9021008 0.968466443,11.9563725 L9.26255034,18.6934874 C9.52554362,18.9071429 9.85745638,19.0252101 10.1971208,19.0252101 C10.5406611,19.0252101 10.8735604,18.9070728 11.1373993,18.6921569 C11.2116745,18.629902 11.2803826,18.5609944 11.343453,18.4862045 C11.8588691,17.8579132 11.7653557,16.9307423 11.1343691,16.4177171 L10.2205872,15.6755602 L10.2205872,15.6755602 Z" id="Shape"></path>
                        <path d="M9.26508725,4.44936975 C9.7806443,4.44936975 10.2859128,4.26939776 10.685406,3.94264706 C11.1476879,3.56589636 11.4331611,3.03186275 11.4919329,2.44103641 C11.5499295,1.84936975 11.3726275,1.27156863 10.9930772,0.811764706 C10.5658893,0.296218487 9.9353255,0 9.26297315,0 C8.74628859,0 8.24214765,0.179971989 7.84244295,0.506512605 C6.89011409,1.2855042 6.75199329,2.68956583 7.5352651,3.63732493 C7.96174832,4.15315126 8.59287584,4.44936975 9.26508725,4.44936975 L9.26508725,4.44936975 Z" id="Shape"></path>
                    </g>
                </g>
            </g>
        </g>
    </g>
</svg>