<?xml version="1.0" encoding="UTF-8" standalone="no"?>
<svg width="28px" height="24px" viewBox="0 0 28 24" version="1.1" xmlns="http://www.w3.org/2000/svg" xmlns:xlink="http://www.w3.org/1999/xlink">
    <!-- Generator: Sketch 3.6.1 (26313) - http://www.bohemiancoding.com/sketch -->
    <title>Mountain biking Copy@3x</title>
    <desc>Created with Sketch.</desc>
    <defs></defs>
    <g id="Page-1" stroke="none" stroke-width="1" fill="none" fill-rule="evenodd">
        <g id="assets-icon" transform="translate(-789.000000, -561.000000)" fill="#B3B3B3">
            <g id="Mountain-biking-Copy" transform="translate(789.000000, 555.000000)">
                <g id="people" transform="translate(15.446554, 14.228606) rotate(31.000000) translate(-15.446554, -14.228606) translate(3.446554, 5.228606)">
                    <g id="Capa_1" transform="translate(0.000000, -0.000000)">
                        <g id="Group">
                            <g transform="translate(6.592593, -0.000000)" id="Shape">
                                <path d="M9.46837037,1.29972574 C10.4518519,1.81904008 10.6468148,2.13308017 10.7894815,2.36279536 C10.8728889,2.49696203 10.9526667,2.62544304 11.1388148,2.73191983 L10.8966667,4.07617089 L11.7306667,4.22517932 L11.9651852,2.9174789 L11.9800741,2.90662447 C12.055037,2.85198312 12.1299259,2.79977848 12.2093333,2.75001055 C12.3680741,3.01103376 12.688,3.14239451 12.8076296,3.18337553 L13.4002963,3.69102321 L13.4478519,3.70268987 C13.8660741,3.80229958 14.2967407,3.53640295 14.3966667,3.12112869 C14.4591111,2.85486287 14.3777037,2.58697257 14.2016296,2.4010443 C14.2640741,2.41271097 14.3225185,2.42075949 14.3780741,2.42075949 C14.5303704,2.42075949 14.722963,2.35688819 14.7781481,2.05407173 C14.9167407,1.28458861 13.8361481,0.468512658 12.3180741,0.197004219 C11.7632593,0.0978375527 10.9840741,0.0335232068 10.3342222,0.0335232068 C9.02281481,0.0335232068 8.79355556,0.278080169 8.74155556,0.491402954 C8.65851852,0.823386076 9.086,1.09770042 9.46837037,1.29972574 L9.46837037,1.29972574 Z M10.3345926,0.437056962 C10.9534074,0.437056962 11.7221481,0.500485232 12.2471111,0.594113924 C13.6077037,0.837932489 14.4634074,1.52183544 14.38,1.98333333 C14.3771852,1.99943038 14.3739259,2.01021097 14.3727407,2.01744726 C14.3263704,2.01663502 14.2526667,2.00061181 14.1684444,1.98126582 C13.8851852,1.91938819 13.3836296,1.85271097 12.9025185,1.9856962 L12.2985926,2.23150844 L12.2228148,2.27367089 C12.0725185,2.35681435 11.9403704,2.43951477 11.8114815,2.53033755 L11.628963,2.49902954 L11.4025185,3.75733122 L11.3646667,3.75009494 L11.5914815,2.48979958 L11.438,2.42873418 C11.2619259,2.36006329 11.2212593,2.29419831 11.1317778,2.15043249 C10.9738519,1.89738397 10.7365185,1.514673 9.65637037,0.943597046 C9.29540741,0.752795359 9.18177778,0.636793249 9.14748148,0.588945148 C9.21977778,0.545896624 9.4837037,0.437056962 10.3345926,0.437056962 L10.3345926,0.437056962 Z"></path>
                                <path d="M7.74837037,6.90304852 L8.29548148,7.02355485 C8.68022222,7.10706751 9.05614815,7.08905063 9.39696296,6.9685443 C9.85785185,7.52640295 10.3211852,8.08101266 10.7808889,8.61598101 C11.0661481,9.02564346 11.9645926,9.05776371 11.973037,9.05776371 L15.082963,9.05776371 C15.7473333,9.05776371 16.2876296,8.51962025 16.2876296,7.85735232 C16.2876296,7.19626582 15.7473333,6.65731013 15.082963,6.65731013 L12.4182222,6.65731013 C11.8461481,5.98618143 11.2837037,5.30707806 10.7228148,4.62635021 C10.5967407,3.90501055 10.0898519,3.39780591 9.32237037,3.22989451 L2.75051852,1.78765823 C2.55392593,1.74468354 2.3597037,1.72297468 2.17274074,1.72297468 C1.01118519,1.72297468 0.28437037,2.5510865 0.0914074074,3.33267932 C-0.0552592593,3.59133966 0.0293333333,3.86845992 0.104666667,4.11419831 C0.130074074,4.1953481 0.155037037,4.27804852 0.171925926,4.36119198 L2.23755556,14.6607173 C2.37133333,15.3290401 2.96518519,15.8149789 3.64807407,15.8149789 C3.74237037,15.8149789 3.83866667,15.8053059 3.93214815,15.7864768 C4.71096296,15.6310443 5.21696296,14.8739662 5.06185185,14.0968776 L4.88540741,13.2165612 C5.12474074,13.2491245 5.36281481,13.2177426 5.58244444,13.1330485 C8.23066667,12.117384 8.62266667,10.3843671 8.62066667,9.44136076 C8.61903704,8.62927215 8.31888889,7.76010549 7.74837037,6.90304852 L7.74837037,6.90304852 Z M5.31207407,10.8293249 C5.12674074,10.9004325 4.44622222,11.2273207 4.35155556,11.3088397 L4.08562963,11.5397363 L4.01511111,11.1991878 L3.06348148,6.17410338 L3.32977778,6.16804852 C4.57066667,6.16804852 6.4957037,8.17013713 6.4977037,9.18137131 C6.49903704,9.62647679 6.34637037,10.4325105 5.31207407,10.8293249 L5.31207407,10.8293249 Z"></path>
                            </g>
                            <path d="M4.04340741,11.2212658 C5.25533333,11.2212658 6.24118519,12.2036287 6.24118519,13.4120886 C6.24118519,14.6201793 5.25533333,15.6029114 4.04340741,15.6029114 C2.83148148,15.6029114 1.84518519,14.6201793 1.84518519,13.4120886 C1.84562963,12.2036287 2.83155556,11.2212658 4.04340741,11.2212658 L4.04340741,11.2212658 Z M4.04340741,9.38147679 C1.81385185,9.38147679 -1.91846539e-13,11.1895886 -1.91846539e-13,13.4120886 C-1.91846539e-13,15.6342194 1.81385185,17.4423312 4.04340741,17.4423312 C6.27296296,17.4423312 8.08681481,15.6342194 8.08681481,13.4120886 C8.08688889,11.1895886 6.27348148,9.38147679 4.04340741,9.38147679 L4.04340741,9.38147679 L4.04340741,9.38147679 Z" id="Shape"></path>
                            <path d="M19.2647407,11.2212658 C20.4774815,11.2212658 21.4633333,12.2036287 21.4633333,13.4120886 C21.4633333,14.6201793 20.4774815,15.6029114 19.2647407,15.6029114 C18.0524444,15.6029114 17.066963,14.6201793 17.066963,13.4120886 C17.066963,12.2036287 18.0524444,11.2212658 19.2647407,11.2212658 L19.2647407,11.2212658 Z M19.2647407,9.38147679 C17.0355556,9.38147679 15.2213333,11.1895886 15.2213333,13.4120886 C15.2213333,15.6342194 17.0355556,17.4423312 19.2647407,17.4423312 C21.4951852,17.4423312 23.308963,15.6342194 23.308963,13.4120886 C23.309037,11.1895886 21.4951852,9.38147679 19.2647407,9.38147679 L19.2647407,9.38147679 L19.2647407,9.38147679 Z" id="Shape"></path>
                        </g>
                    </g>
                </g>
                <path d="M0,16.8295058 C0,16.2793349 0.427460162,15.9662962 0.948962855,16.1651781 C0.948962855,16.1651781 1.84806741,16.3040852 3.20608709,17.5702231 C3.92902825,18.2442511 4.20472709,20.1032543 5.31044925,20.8927956 C6.16241993,21.5011456 8.23388467,21.6705382 9.12547557,22.31382 C9.8865087,22.8629044 10.7402415,24.6102803 11.5340589,25.0922408 C12.7384815,25.8234974 12.6725413,23.8478254 17.0345633,25.7099622 C18.268604,26.2367713 19.0186077,27.3952342 19.810333,27.8753012 C21.8171566,29.0921498 22.4811482,29.4882799 22.4811482,29.4882799 C22.951797,29.7708951 22.8880545,30 22.3307292,30 L1.00260417,30 C0.448881175,30 0,29.5604852 0,29.0038275 L0,16.8295058 Z" id="Rectangle-597"></path>
            </g>
        </g>
    </g>
</svg>