<?xml version="1.0" encoding="UTF-8" standalone="no"?>
<svg width="24px" height="22px" viewBox="0 0 24 22" version="1.1" xmlns="http://www.w3.org/2000/svg" xmlns:xlink="http://www.w3.org/1999/xlink">
    <!-- Generator: Sketch 3.6.1 (26313) - http://www.bohemiancoding.com/sketch -->
    <title>Diving@3x</title>
    <desc>Created with Sketch.</desc>
    <defs></defs>
    <g id="Page-1" stroke="none" stroke-width="1" fill="none" fill-rule="evenodd">
        <g id="assets-icon" transform="translate(-235.000000, -35.000000)" fill="#00D670">
            <g id="Diving" transform="translate(235.000000, 35.000000)">
                <g id="Capa_1">
                    <g id="Group">
                        <ellipse id="Oval" cx="14.546349" cy="4.61105788" rx="2.54634901" ry="2.61105788"></ellipse>
                        <path d="M11.49558,4.79505144 C11.4324468,4.69036818 11.2272796,4.48670821 11.0396734,4.33649946 L6.04776581,0.245038971 C5.57683347,-0.14097658 4.88997468,-0.0623531764 4.51364928,0.420483292 C4.13732388,0.903192948 4.21387512,1.60744307 4.68480746,1.99339521 L7.00632585,3.89633521 L4.88508975,3.81580963 C3.88003009,3.77713198 3,4.58080267 3,5.61083266 C3,6.47328068 3.31733519,6.83938676 3.43370791,6.97291973 L5.46837557,9.30163082 L3.58786158,12.2635773 C3.25908699,12.7815407 3.40198676,13.474885 3.90711365,13.812078 C4.09082426,13.9348319 4.29735183,13.993419 4.50159153,13.993419 C4.85843903,13.993419 5.20805189,13.8141704 5.41723835,13.4847763 L7.75415355,9.80412314 C8.02331959,9.38019082 7.98158123,8.82367661 7.6523738,8.44679152 L6.93595807,7.62682551 L9.94693229,7.74089285 C9.96993477,7.74184394 9.99262807,7.74216097 10.0153832,7.74216097 C10.988969,7.74209756 11.7956633,6.95180554 11.832022,5.94580641 C11.8474807,5.51794292 11.7206579,5.11861211 11.49558,4.79505144 Z" id="Shape"></path>
                        <path d="M9.20043065,14.9261872 L1.39576569,14.9261872 C1.02949134,14.9261872 0.732548701,15.2306759 0.732548701,15.6062581 C0.732548701,15.981956 1.02949134,16.2864447 1.39576569,16.2864447 L8.53715729,16.2864447 L8.53715729,21.3091205 C8.53715729,21.684645 8.83398719,21.9891915 9.20037428,21.9891915 C9.56681773,21.9891915 9.86359127,21.6847028 9.86359127,21.3091205 L9.86359127,15.6062003 C9.86359127,15.2306759 9.56681773,14.9261872 9.20043065,14.9261872 L9.20043065,14.9261872 Z" id="Shape"></path>
                        <path d="M20.5233366,15.1833957 C20.5233366,14.9031251 20.3253632,14.6759724 20.0811574,14.6759724 C19.8370019,14.6759724 19.6390285,14.9031829 19.6390285,15.1833957 C19.6390285,15.8107534 18.5990009,16.512268 17.2069421,16.512268 C15.8150345,16.512268 14.7749565,15.8106956 14.7749565,15.1833957 C14.7749565,14.9031251 14.5769831,14.6759724 14.3327772,14.6759724 C14.0665128,14.6759724 13.8685394,14.9031829 13.8685394,15.1833957 C13.8685394,15.8107534 12.828411,16.512268 11.4365034,16.512268 C11.192348,16.512268 10.9943745,16.7394785 10.9943745,17.0197491 C10.9943745,17.3000197 11.192348,17.5271724 11.4365034,17.5271724 C12.688203,17.5271724 13.7564838,17.0604979 14.3217983,16.3547061 C14.8870121,17.0604979 15.9553433,17.5271724 17.2069925,17.5271724 C18.450483,17.5271724 19.5131233,17.0665668 20.0811574,16.368578 C20.6493929,17.0665668 21.7118317,17.5271724 22.9553223,17.5271724 C23.1995281,17.5271724 23.3976022,17.3000197 23.3976022,17.0197491 C23.3976526,16.7394785 23.1995281,16.512268 22.9553223,16.512268 C21.5634146,16.512268 20.5233366,15.8106956 20.5233366,15.1833957 Z" id="Shape"></path>
                        <path d="M23.0393766,20.310689 C21.6474186,20.310689 20.6072902,19.6091166 20.6072902,18.9818167 C20.6072902,18.7015461 20.4093168,18.4743934 20.1651614,18.4743934 C19.9209052,18.4743934 19.7229821,18.7016039 19.7229821,18.9818167 C19.7229821,19.6091744 18.6829041,20.310689 17.2909965,20.310689 C15.8989377,20.310689 14.8589604,19.6091166 14.8589604,18.9818167 C14.8589604,18.7015461 14.6608863,18.4743934 14.4166805,18.4743934 L14.3945715,18.4743934 C14.1504665,18.4743934 13.9523923,18.7016039 13.9523923,18.9818167 C13.9523923,19.6091744 12.9124654,20.310689 11.5204067,20.310689 C11.2761505,20.310689 11.0782274,20.5378995 11.0782274,20.8181701 C11.0782274,21.0984407 11.2762008,21.3255934 11.5204067,21.3255934 C12.7720559,21.3255934 13.8403367,20.8589189 14.4057016,20.1531271 C14.9710665,20.8589189 16.0393473,21.3255934 17.2909965,21.3255934 C18.534487,21.3255934 19.5969762,20.8649878 20.1651614,20.166999 C20.7331954,20.8649878 21.7958357,21.3255934 23.0393262,21.3255934 C23.2834817,21.3255934 23.4814551,21.0984407 23.4814551,20.8181701 C23.4815055,20.5378995 23.283532,20.310689 23.0393766,20.310689 L23.0393766,20.310689 Z" id="Shape"></path>
                    </g>
                </g>
            </g>
        </g>
    </g>
</svg>