<?xml version="1.0" encoding="UTF-8" standalone="no"?>
<svg width="24px" height="22px" viewBox="0 0 24 22" version="1.1" xmlns="http://www.w3.org/2000/svg" xmlns:xlink="http://www.w3.org/1999/xlink">
    <!-- Generator: Sketch 3.6.1 (26313) - http://www.bohemiancoding.com/sketch -->
    <title>Equestrian @3x</title>
    <desc>Created with Sketch.</desc>
    <defs></defs>
    <g id="Page-1" stroke="none" stroke-width="1" fill="none" fill-rule="evenodd">
        <g id="assets-icon" transform="translate(-233.000000, -82.000000)" fill="#00D670">
            <g id="Equestrian-" transform="translate(233.000000, 82.000000)">
                <g id="Capa_1">
                    <g id="Group">
                        <path d="M14.2937538,4.72269729 C15.1662923,5.43197912 16.4519538,5.30333194 17.1642462,4.4354572 C17.3973231,4.15216701 17.5310308,3.82363674 17.5879846,3.48679332 L17.7966923,3.58122338 C18.0191538,3.68180793 18.2768769,3.57727349 18.2883692,3.33486013 C18.2963077,3.16446347 18.2759538,2.95493528 18.1859538,2.72965344 C18.0253385,2.32648852 18.5182615,0.831453027 16.9651846,0.12873904 C15.8543538,-0.373678497 14.4336,0.900851775 13.9874308,1.39054697 C13.8510462,1.54078079 13.8819231,1.73005428 14.0218154,1.84864301 C14.0165538,1.85479749 14.0099077,1.85916075 14.0046,1.86577453 C13.2918923,2.7340167 13.4212154,4.01341545 14.2937538,4.72269729 L14.2937538,4.72269729 Z" id="Shape"></path>
                        <path d="M12.5098615,5.26029645 L9.51886154,9.95663048 C9.22536923,9.93554906 8.93893846,9.92149478 8.66972308,9.92149478 C6.87387692,9.92149478 5.90469231,10.3791315 5.38476923,10.8218413 C4.95844615,10.6677035 3.58144615,10.2447432 2.45866154,10.7397203 C1.85843077,11.0045929 1.43030769,11.487215 1.18670769,12.1737161 L1.04815385,12.5650313 C0.228969231,14.8685553 -0.181938462,16.0250021 0.0771230769,17.0781545 C0.0925384615,17.1401127 0.134030769,17.192334 0.191446154,17.2213152 C0.222784615,17.2375741 0.257215385,17.2454739 0.291646154,17.2454739 C0.319892308,17.2454739 0.348138462,17.2401921 0.375046154,17.229215 C0.401953846,17.2182839 3.08224615,16.0956409 3.08667692,13.3269937 C3.08755385,12.9848685 3.17935385,12.7599541 3.36826154,12.6405386 C3.76015385,12.3919248 4.51264615,12.6071023 4.89443077,12.7586681 L4.89443077,13.4978497 C4.89443077,13.7323633 4.87370769,14.1144927 4.84809231,14.3498789 L4.7448,15.290643 C4.72273846,15.4913528 4.59784615,15.8110647 4.47692308,15.9744802 L0.803123077,20.9378455 C0.544476923,21.2874572 0.609830769,21.5448434 0.672046154,21.667382 C0.734261538,21.7899207 0.903784615,21.995453 1.3398,21.995453 L2.02564615,21.995453 C2.58,21.995453 3.28615385,21.6590689 3.63392308,21.2299541 L7.47143077,16.4944885 C7.57070769,16.3719499 7.79935385,16.2801837 7.97718462,16.3087056 C8.10604615,16.3289144 8.27201538,16.3522004 8.46309231,16.3759457 L8.05749231,16.8331232 C7.57375385,17.3790814 7.59761538,18.1788434 8.11223077,18.6202213 C8.62596923,19.0620125 9.43010769,18.9729102 9.90673846,18.4221754 L11.5304308,16.547215 C12.0512308,16.5454697 12.5826,16.5301294 13.1122154,16.4988977 C15.3056769,16.3706639 16.5039692,16.0258747 17.1231692,15.7597161 C17.2665692,15.698263 17.4691846,15.7277035 17.5583538,15.8251649 L20.4067846,18.9408518 C20.4990462,19.042309 20.5078615,19.2263466 20.4249231,19.3357035 L19.2019385,20.942714 C18.9379846,21.2892484 19.0007077,21.5461754 19.0620462,21.6677954 C19.1229231,21.7899207 19.2906462,21.9949937 19.7275846,21.9949937 L20.4681692,21.9949937 C21.0194308,21.9949937 21.7352769,21.6722046 22.0989692,21.2598079 L23.6180769,19.5359541 C23.8501846,19.272 23.8568308,18.8529896 23.6330769,18.5820084 L19.9513385,14.128547 C19.8401077,13.9936994 19.9734,13.8022672 20.0011846,13.7653403 C20.1371077,13.5847933 20.2077692,13.3858747 20.2126154,13.1737286 C20.2161231,13.0082004 20.1662769,12.8175491 20.1186,12.6330981 C20.0863846,12.5105595 20.0537538,12.3836117 20.0462308,12.2953361 C20.0082923,11.8337495 20.0400462,11.3664217 20.0784462,11.0317829 C20.4249231,11.2952777 20.8953692,11.3141545 21.2749385,11.3291273 C21.4377692,11.3357411 21.5913692,11.3418497 21.7101231,11.3651357 C21.8676923,11.3958622 22.2304615,11.6238079 22.4255538,11.7463466 L22.4899846,11.7867641 C22.9582615,12.0779541 23.5104,12.094167 23.7787385,11.8091315 C24.0272308,11.5451775 24.0240923,11.0813862 23.7695077,10.568405 C23.7024,10.4340167 23.6295692,10.2860334 23.5656,10.1533445 C23.4689077,9.95350731 23.3828769,9.60173695 23.3586,9.39000418 C23.3082923,8.95124426 23.2209231,8.54500209 23.0995385,8.18220877 C23.0351077,7.98985804 22.9887692,7.65475992 23.0258308,7.45010021 L23.1511846,6.76934029 C23.2019538,6.49482255 23.1524769,6.25153653 23.0130462,6.08463048 C22.8272769,5.86283925 22.5006,5.80313152 22.1502462,5.93090605 L21.456,6.18475574 C21.2843077,6.24758664 20.9387538,6.28267641 20.7021692,6.26030898 C20.5759385,6.24887265 20.4431077,6.24189144 20.3049692,6.24189144 C19.2161538,6.24189144 18.2315077,6.67536952 17.4578308,7.49538622 C16.6969846,8.30217537 16.0133077,8.96626305 15.1495846,9.42523173 L14.9196462,9.18277244 L15.5900308,7.01754071 C15.6160615,6.93321503 15.6244615,6.84888935 15.6253846,6.76497704 L15.6606923,6.71009186 C15.726,6.47645094 15.6002308,6.20413779 15.3799846,6.10268058 L15.2546308,6.04471816 C15.1800923,5.99203758 15.0984,5.94721086 15.0066,5.9191023 C14.9920615,5.91469311 14.9774769,5.91427975 14.9629385,5.91032985 L13.1481231,5.07322756 C12.9251538,4.97218372 12.6400615,5.05563674 12.5098615,5.26029645 L12.5098615,5.26029645 Z" id="Shape"></path>
                    </g>
                </g>
            </g>
        </g>
    </g>
</svg>