<?xml version="1.0" encoding="UTF-8" standalone="no"?>
<svg width="24px" height="21px" viewBox="0 0 24 21" version="1.1" xmlns="http://www.w3.org/2000/svg" xmlns:xlink="http://www.w3.org/1999/xlink">
    <!-- Generator: Sketch 3.6.1 (26313) - http://www.bohemiancoding.com/sketch -->
    <title>Fencing Copy@3x</title>
    <desc>Created with Sketch.</desc>
    <defs></defs>
    <g id="Page-1" stroke="none" stroke-width="1" fill="none" fill-rule="evenodd">
        <g id="assets-icon" transform="translate(-998.000000, -115.000000)" fill="#B3B3B3">
            <path d="M1022.00252,121.355475 L1022.00252,121.45171 C1022.00252,121.851026 1021.66421,122.163747 1021.2648,122.163747 L1015.77965,122.163747 L1015.77965,122.853871 C1015.77965,123.253186 1015.49471,123.566083 1015.09531,123.566083 L1014.99908,123.566083 C1014.59976,123.566083 1014.28958,123.253186 1014.28958,122.853871 L1014.28958,122.77499 C1014.28958,122.775516 1014.24629,122.777269 1014.23112,122.777269 L1007.86434,122.777269 C1007.87232,122.849226 1007.87679,122.922323 1007.87679,122.996384 C1007.87679,122.996384 1007.87582,127.333722 1007.87512,127.355107 C1009.99195,129.164559 1011.46317,131.599365 1012.0788,134.360741 L1012.08888,134.405878 C1012.2469,135.114584 1011.80061,135.817242 1011.09191,135.975268 C1010.99549,135.996741 1010.89926,136.006996 1010.80451,136.006996 C1010.20221,136.006996 1009.65916,135.590589 1009.52252,134.978294 L1009.51244,134.932981 C1009.01987,132.723163 1007.83971,130.775931 1006.1414,129.332314 C1004.70856,131.568865 1002.92794,133.53827 1000.84214,135.191975 L1000.16464,135.72907 C999.923087,135.920664 999.634906,136.013657 999.348742,136.013657 C998.961084,136.013657 998.577194,135.84301 998.317675,135.515564 C997.866648,134.946654 997.962095,134.119714 998.53118,133.668688 L999.208596,133.131593 C1001.10122,131.631006 1002.63766,129.837944 1003.92579,127.799297 C1003.93911,127.597273 1003.93263,122.996296 1003.93263,122.996296 C1003.93263,122.903567 1003.93946,122.812502 1003.95191,122.723103 C1001.30553,122.312394 999.053375,120.506974 998.103555,117.911425 L998.080417,117.848145 C997.830889,117.166346 998.181473,116.411276 998.863446,116.161836 C999.545069,115.91257 1000.30023,116.262804 1000.54976,116.944865 L1000.57289,117.008058 C1001.30176,118.999989 1003.21376,120.274099 1005.33418,120.177513 L1005.95804,120.149203 C1005.97794,120.148239 1005.99783,120.147801 1006.01773,120.147801 L1014.23103,120.147801 C1014.2462,120.147801 1014.28949,120.149554 1014.28949,120.15008 L1014.28949,119.813081 C1014.28949,119.413765 1014.59959,119.096049 1014.99899,119.096049 L1015.09522,119.096049 C1015.49454,119.096049 1015.77956,119.413678 1015.77956,119.813081 L1015.77956,120.673677 L1021.26471,120.673677 C1021.66421,120.673764 1022.00252,120.95616 1022.00252,121.355475 L1022.00252,121.355475 Z M1005.94472,119.454521 C1007.17483,119.454521 1008.17198,118.457372 1008.17198,117.22726 C1008.17198,115.997149 1007.17483,115 1005.94472,115 C1004.71469,115 1003.71746,115.997149 1003.71746,117.22726 C1003.71746,118.457372 1004.71469,119.454521 1005.94472,119.454521 L1005.94472,119.454521 Z" id="Fencing-Copy"></path>
        </g>
    </g>
</svg>