<?xml version="1.0" encoding="UTF-8" standalone="no"?>
<svg width="24px" height="21px" viewBox="0 0 24 21" version="1.1" xmlns="http://www.w3.org/2000/svg" xmlns:xlink="http://www.w3.org/1999/xlink">
    <!-- Generator: Sketch 3.6.1 (26313) - http://www.bohemiancoding.com/sketch -->
    <title>Fencing@3x</title>
    <desc>Created with Sketch.</desc>
    <defs></defs>
    <g id="Page-1" stroke="none" stroke-width="1" fill="none" fill-rule="evenodd">
        <g id="assets-icon" transform="translate(-241.000000, -127.000000)" fill="#00D670">
            <path d="M265.002519,133.355475 L265.002519,133.45171 C265.002519,133.851026 264.664205,134.163747 264.264802,134.163747 L258.779652,134.163747 L258.779652,134.853871 C258.779652,135.253186 258.494715,135.566083 258.095312,135.566083 L257.999077,135.566083 C257.599761,135.566083 257.289582,135.253186 257.289582,134.853871 L257.289582,134.77499 C257.289582,134.775516 257.246285,134.777269 257.231122,134.777269 L250.864341,134.777269 C250.872317,134.849226 250.876787,134.922323 250.876787,134.996384 C250.876787,134.996384 250.875823,139.333722 250.875121,139.355107 C252.991948,141.164559 254.463174,143.599365 255.078799,146.360741 L255.088879,146.405878 C255.246904,147.114584 254.800611,147.817242 254.091905,147.975268 C253.995495,147.996741 253.899259,148.006996 253.804514,148.006996 C253.202211,148.006996 252.659156,147.590589 252.522516,146.978294 L252.512436,146.932981 C252.019866,144.723163 250.839712,142.775931 249.141396,141.332314 C247.708559,143.568865 245.927942,145.53827 243.842143,147.191975 L243.164639,147.72907 C242.923087,147.920664 242.634906,148.013657 242.348742,148.013657 C241.961084,148.013657 241.577194,147.84301 241.317675,147.515564 C240.866648,146.946654 240.962095,146.119714 241.53118,145.668688 L242.208596,145.131593 C244.101224,143.631006 245.637659,141.837944 246.925792,139.799297 C246.939114,139.597273 246.932629,134.996296 246.932629,134.996296 C246.932629,134.903567 246.939465,134.812502 246.951911,134.723103 C244.305527,134.312394 242.053375,132.506974 241.103555,129.911425 L241.080417,129.848145 C240.830889,129.166346 241.181473,128.411276 241.863446,128.161836 C242.545069,127.91257 243.300227,128.262804 243.549756,128.944865 L243.572894,129.008058 C244.301758,130.999989 246.213756,132.274099 248.334176,132.177513 L248.95804,132.149203 C248.977936,132.148239 248.997831,132.147801 249.017727,132.147801 L257.231035,132.147801 C257.246197,132.147801 257.289495,132.149554 257.289495,132.15008 L257.289495,131.813081 C257.289495,131.413765 257.599586,131.096049 257.998989,131.096049 L258.095224,131.096049 C258.49454,131.096049 258.779564,131.413678 258.779564,131.813081 L258.779564,132.673677 L264.264715,132.673677 C264.664205,132.673764 265.002519,132.95616 265.002519,133.355475 L265.002519,133.355475 Z M248.944718,131.454521 C250.17483,131.454521 251.171978,130.457372 251.171978,129.22726 C251.171978,127.997149 250.17483,127 248.944718,127 C247.714694,127 246.717458,127.997149 246.717458,129.22726 C246.717458,130.457372 247.714694,131.454521 248.944718,131.454521 L248.944718,131.454521 Z" id="Fencing"></path>
        </g>
    </g>
</svg>