<?xml version="1.0" encoding="UTF-8" standalone="no"?>
<svg width="21px" height="24px" viewBox="0 0 21 24" version="1.1" xmlns="http://www.w3.org/2000/svg" xmlns:xlink="http://www.w3.org/1999/xlink">
    <!-- Generator: Sketch 3.6.1 (26313) - http://www.bohemiancoding.com/sketch -->
    <title>Field hockey@3x</title>
    <desc>Created with Sketch.</desc>
    <defs></defs>
    <g id="Page-1" stroke="none" stroke-width="1" fill="none" fill-rule="evenodd">
        <g id="assets-icon" transform="translate(-238.000000, -167.000000)" fill="#00D670">
            <g id="Field-hockey" transform="translate(248.500000, 179.000000) scale(-1, 1) translate(-248.500000, -179.000000) translate(238.000000, 167.000000)">
                <g id="Capa_1">
                    <g id="Group">
                        <path d="M4.36083476,0 C2.93833262,0 1.7804485,1.16878639 1.7804485,2.60170888 C1.7804485,4.04465784 2.93878326,5.20736484 4.36083476,5.20736484 C5.79153863,5.20736484 6.95717382,4.04470321 6.95717382,2.60170888 C6.95717382,1.16878639 5.79194421,0 4.36083476,0 L4.36083476,0 Z" id="Shape"></path>
                        <path d="M0.110137339,20.5235388 C-0.108334764,20.9157505 0.101079399,21.2341928 0.576824034,21.2341928 L2.01352146,21.2341928 C2.48971674,21.2341928 2.87537768,20.9161588 2.87537768,20.5235388 C2.87537768,20.5191834 2.87407082,20.5148733 2.87366524,20.5109716 L5.81907296,14.365656 C6.10000429,14.3652023 6.38143133,14.2546389 6.59215236,14.0351456 L9.48456438,11.0247108 C9.50741202,11.0012552 9.52462661,10.974397 9.54490558,10.9488091 L10.6717403,12.0308053 L7.00841202,15.3770132 C6.74122532,15.6207788 6.5874206,15.9661701 6.58440129,16.3293006 C6.58138197,16.692431 6.72919313,17.0407713 6.99164807,17.2893006 L12.6781416,22.6688847 C12.9276631,22.9048469 13.2456824,23.0219887 13.5632961,23.0219887 C13.9079936,23.0219887 14.2514742,22.8844764 14.5061781,22.6120832 C14.9953069,22.0879395 14.9693948,21.2641361 14.4492618,20.7721588 L9.78275536,16.3578374 L12.0059163,14.3270473 L12.8207704,16.9296181 C12.8923326,17.1582306 13.0259034,17.3625709 13.2055751,17.5200454 L18.8429936,22.4549263 C19.3816481,22.9265331 20.1987103,22.8692779 20.6667039,22.3269868 C21.1351481,21.784242 21.0782318,20.9625709 20.5395773,20.4909641 L15.1771416,15.7968544 L14.5440773,13.7751834 L14.5440773,9.74658601 C14.5440773,9.02812854 14.1019506,8.06889981 13.5564013,7.60514178 L9.41259657,3.58130813 C9.22386695,3.41603025 8.98038412,3.31317958 8.71062876,3.31317958 C8.11550858,3.31317958 7.63331974,3.79866919 7.63331974,4.39776181 L7.63331974,9.83201512 L5.04387554,12.5270019 C4.64437983,12.9425784 4.64528112,13.595569 5.03053648,14.0150473 L2.23807725,19.8411493 C2.16610944,19.8250888 2.09157296,19.8137467 2.01316094,19.8137467 L1.36675751,19.8137467 C0.891418455,19.8133384 0.328609442,20.1313724 0.110137339,20.5235388 L0.110137339,20.5235388 Z" id="Shape"></path>
                        <ellipse id="Oval" cx="1.78040343" cy="23.0216257" rx="0.934229614" ry="0.940536862"></ellipse>
                    </g>
                </g>
            </g>
        </g>
    </g>
</svg>