<?xml version="1.0" encoding="UTF-8" standalone="no"?>
<svg width="22px" height="24px" viewBox="0 0 22 24" version="1.1" xmlns="http://www.w3.org/2000/svg" xmlns:xlink="http://www.w3.org/1999/xlink">
    <!-- Generator: Sketch 3.6.1 (26313) - http://www.bohemiancoding.com/sketch -->
    <title>Football@3x</title>
    <desc>Created with Sketch.</desc>
    <defs></defs>
    <g id="Page-1" stroke="none" stroke-width="1" fill="none" fill-rule="evenodd">
        <g id="assets-icon" transform="translate(-240.000000, -211.000000)" fill="#00D670">
            <g id="Football" transform="translate(240.000000, 211.000000)">
                <g id="Capa_1">
                    <g id="Group">
                        <path d="M13.007383,0 C14.1933546,0 15.1548014,0.920042986 15.1548014,2.0551086 C15.1548014,3.18995023 14.1933546,4.11006787 13.007383,4.11006787 C11.8217234,4.11006787 10.8601206,3.18995023 10.8601206,2.0551086 C10.8601206,0.920042986 11.8217234,0 13.007383,0 L13.007383,0 Z" id="Shape"></path>
                        <path d="M20.3228511,12.1971991 C20.4460355,12.2402783 20.5713262,12.26081 20.6949007,12.26081 C21.1331844,12.26081 21.5444752,12.0027828 21.7051844,11.5867738 C22.390305,9.80686425 21.2956099,7.22763801 21.1687589,6.93944796 L21.0172553,6.59675566 L17.2087589,4.70881222 C16.9832979,4.59704525 16.736461,4.57330317 16.505383,4.61735294 C14.7792411,4.47549774 12.5093404,5.69052489 11.9191631,6.02784163 C11.8258582,6.08114932 11.7733546,6.11288009 11.7733546,6.11288009 L11.7733546,6.11519457 C11.6739645,6.17932805 11.5810496,6.25376471 11.5071702,6.35276471 L9.4396383,9.11797059 L6.68558156,10.4150498 C6.15235461,10.6663575 5.93258865,11.2835769 6.19495035,11.7938824 C6.38241844,12.1580769 6.76414184,12.3695158 7.16123404,12.3695158 C7.32100709,12.3695158 7.48257447,12.3355452 7.63571631,12.2634231 L10.8750993,10.7376584 L11.946156,9.30566742 L12.1243404,12.5982014 C12.1243404,12.5982014 12.1359645,12.602457 12.1561702,12.6101471 C12.1610071,12.6681584 12.1683404,12.726543 12.1844894,12.7849276 L12.5310284,14.0634163 L10.460922,16.3076403 L5.29341844,22.2829548 C4.91450355,22.721362 4.97870922,23.3708348 5.43657447,23.7335362 C5.63714894,23.892414 5.88031915,23.9693145 6.12192908,23.9693145 C6.43133333,23.9693145 6.73878723,23.8425407 6.95192199,23.5962353 L12.0866596,17.6576538 L13.1838511,16.4677127 L13.2921348,16.8698348 L13.8923759,17.0275181 C15.5579787,17.4659253 17.566922,18.0984502 18.1247234,18.4026923 C18.320695,18.6678869 18.6438298,18.8384118 19.0030071,18.8384118 C19.0275816,18.8384118 19.0527021,18.8375905 19.0777447,18.8360973 C19.6711206,18.7970498 20.118766,18.3053348 20.0778865,17.7373167 C20.0164894,16.8775249 19.1956241,16.4692805 16.9144113,15.750224 C16.2200851,15.5310204 15.5344965,15.3346629 15.0654752,15.2046787 L14.9027376,14.6047059 L15.6209362,13.8256968 C16.3145603,13.4081199 17.5700426,9.87152036 17.808844,7.32477149 L19.3184965,8.07346833 C19.6081631,8.86076471 19.9507234,10.185095 19.6852411,10.8737647 C19.4792837,11.4081855 19.7652837,12.0003937 20.3228511,12.1971991 L20.3228511,12.1971991 Z" id="Shape"></path>
                        <path d="M2.29946809,19.074862 C3.54792908,19.074862 4.56008511,20.0436584 4.56008511,21.2383032 C4.56008511,22.4328733 3.54792908,23.4017443 2.29946809,23.4017443 C1.05100709,23.4017443 0.0388510638,22.4328733 0.0388510638,21.2383032 C0.0388510638,20.0436584 1.05100709,19.074862 2.29946809,19.074862 L2.29946809,19.074862 Z" id="Shape"></path>
                    </g>
                </g>
            </g>
        </g>
    </g>
</svg>