<?xml version="1.0" encoding="UTF-8" standalone="no"?>
<svg width="20px" height="26px" viewBox="0 0 20 26" version="1.1" xmlns="http://www.w3.org/2000/svg" xmlns:xlink="http://www.w3.org/1999/xlink">
    <!-- Generator: Sketch 3.6.1 (26313) - http://www.bohemiancoding.com/sketch -->
    <title>Golf Copy@3x</title>
    <desc>Created with Sketch.</desc>
    <defs></defs>
    <g id="Page-1" stroke="none" stroke-width="1" fill="none" fill-rule="evenodd">
        <g id="assets-icon" transform="translate(-1012.000000, -237.000000)" fill="#B3B3B3">
            <g id="Golf-Copy" transform="translate(1012.000000, 237.000000)">
                <g id="Capa_1">
                    <path d="M16.8514037,1.54277846 C16.4161986,1.53273558 13.0953376,1.67046658 9.68649296,1.82063162 C9.41049647,0.776171558 8.38349626,1.77635684e-14 7.15539044,1.77635684e-14 C5.83877722,1.77635684e-14 4.75364491,0.891903855 4.57767751,2.05018328 C3.83662432,2.08365957 3.20188477,2.11283176 2.72897238,2.13435223 C2.45035733,1.77567775 1.95283046,1.53321381 1.50191399,1.53321381 C0.641454355,1.53321381 0.159115142,2.13817809 0.0606571914,2.84883178 C-0.143590684,4.32417944 0.131882092,5.95208331 1.44325819,6.95971946 C2.61532677,7.85975327 4.15608895,8.05200279 5.63871904,7.9553998 C6.43999917,9.97593266 6.58140154,12.1380224 7.32873928,14.1709893 C6.47404048,17.4908802 5.82254213,20.8399433 5.34491633,24.2263086 C5.01916715,26.5352157 8.98681306,26.5074782 9.30784882,24.2263086 C9.59641441,22.1847335 9.97348741,20.1575054 10.4228327,18.1427113 C11.3230945,20.4827035 12.5726726,22.7055288 14.2035133,24.6997589 C15.7128527,26.5466933 19.1562624,24.7456692 17.6259745,22.8733885 C15.5515493,20.3368426 14.1830885,17.5014013 13.3687156,14.4627112 C13.526353,13.9940432 13.5404933,13.4923772 13.3482908,13.0112752 C12.4993528,10.8874441 12.3961814,8.60531794 11.5467198,6.48148683 C11.0560012,5.25386367 9.91221305,4.370568 8.51232954,4.40930485 C9.26123841,3.99132953 9.76295499,3.24002607 9.76295499,2.3801638 C9.76295499,2.37442501 9.76243128,2.36868622 9.76190756,2.36294742 L15.9212903,2.30125542 C15.2299898,5.17352059 19.1908274,5.34759727 19.2458172,4.62307483 C19.3107576,3.73547507 17.7825645,1.5652554 16.8514037,1.54277846 L16.8514037,1.54277846 Z M6.42271666,5.25529837 C6.38448564,5.2557766 6.34625463,5.25673307 6.30645248,5.26151539 C5.30354304,5.38155178 4.1749426,5.47958947 3.32705206,4.9846187 C2.77296423,4.66133344 2.84733141,3.54657318 2.94369451,2.84931001 C2.96359559,2.70440552 2.94421822,2.56428336 2.8970841,2.43229116 L4.55253931,2.41555301 C4.57244039,3.70582465 5.71727592,4.74645885 7.13234709,4.75841467 C6.87468054,4.89184157 6.63534393,5.05970122 6.42271666,5.25529837 L6.42271666,5.25529837 Z" id="Shape"></path>
                </g>
            </g>
        </g>
    </g>
</svg>