<?xml version="1.0" encoding="UTF-8" standalone="no"?>
<svg width="19px" height="24px" viewBox="0 0 19 24" version="1.1" xmlns="http://www.w3.org/2000/svg" xmlns:xlink="http://www.w3.org/1999/xlink">
    <!-- Generator: Sketch 3.6.1 (26313) - http://www.bohemiancoding.com/sketch -->
    <title>Artistic Copy@3x</title>
    <desc>Created with Sketch.</desc>
    <defs></defs>
    <g id="Page-1" stroke="none" stroke-width="1" fill="none" fill-rule="evenodd">
        <g id="assets-icon" transform="translate(-1008.000000, -280.000000)" fill="#B3B3B3">
            <g id="Artistic-Copy" transform="translate(1008.000000, 280.000000)">
                <g id="Capa_1">
                    <g id="Layer_1_40_">
                        <g id="Group">
                            <path d="M18.1475858,10.4751628 L13.2626746,9.38355349 C13.268858,9.33131163 13.2726243,9.27940465 13.2754349,9.2272186 L17.4371095,4.53895814 C17.8080592,4.1191814 17.7952426,3.47732093 17.3928136,3.07562791 C16.9726775,2.65618605 16.2894083,2.65423256 15.8671361,3.07133023 L11.9164852,6.97294884 L9.74778698,5.89836279 L10.8940266,4.84068837 L10.9361302,4.80184186 C11.127929,4.62323721 11.2426036,4.36554419 11.2293935,4.0844093 L11.0768314,0.850660465 C11.0537278,0.382995349 10.6670947,0.0055255814 10.1892278,5.58139535e-05 C9.69286686,-0.00546976744 9.2858284,0.389525581 9.2802071,0.882195349 L9.2486716,3.63817674 C9.2486716,3.63817674 8.18113018,4.27635349 7.26148521,5.38894884 C5.99798521,6.91707907 5.5436716,7.8439814 5.33236686,8.63218605 C5.12106213,9.42027907 4.07904142,13.307386 4.07904142,13.307386 C4.04255917,13.4447442 4.04092899,13.5841116 4.06836095,13.716 C3.74586686,13.9068279 3.52944675,14.2564465 3.52944675,14.6555163 L3.52944675,15.031814 L1.95649408,15.031814 C0.881701183,15.031814 0.0105118343,15.8968186 0.0105118343,16.9635907 C0.0105118343,18.0307535 0.881701183,18.8956465 1.95649408,18.8956465 L4.90475444,18.8956465 L2.94168343,23.2748651 C2.82515385,23.5349023 2.94292012,23.8394791 3.20481657,23.9551814 C3.27339645,23.9854884 3.34501183,23.9999442 3.41544675,23.9999442 C3.6143284,23.9999442 3.80393491,23.8858605 3.88994083,23.6939721 L6.04098817,18.8956465 L12.0466183,18.8956465 L14.1976657,23.6939721 C14.2836716,23.8858605 14.4732781,23.9999442 14.6721598,23.9999442 C14.7425385,23.9999442 14.8141538,23.9854884 14.8827899,23.9551814 C15.1446302,23.8394233 15.2625089,23.5348465 15.1459231,23.2748651 L13.1829083,18.8956465 L15.9971006,18.8956465 C17.0718373,18.8956465 17.942858,18.0307535 17.942858,16.9635907 C17.942858,15.8968186 17.0718373,15.031814 15.9971006,15.031814 L14.4241479,15.031814 L14.4241479,14.6555163 C14.4241479,14.052614 13.9301479,13.5624 13.3232722,13.5624 C12.7160592,13.5624 12.2221716,14.052614 12.2221716,14.6555163 L12.2221716,15.031814 L5.73119822,15.031814 L5.73119822,14.6555163 C5.73119822,14.4715535 5.68493491,14.2981395 5.60381953,14.1458233 C5.6900503,14.0543442 5.75885503,13.9439442 5.80101479,13.8171349 L7.1146568,9.87332093 L9.83705325,11.2224558 C10.165,11.3847628 10.5126775,11.464186 10.8561953,11.4701581 L17.7382988,12.5770605 C18.2957633,12.6655256 18.8373757,12.3098233 18.9629556,11.7550884 C19.0936509,11.1781395 18.7288284,10.604986 18.1475858,10.4751628 L18.1475858,10.4751628 Z M3.89039053,14.6555721 C3.89039053,14.4040186 4.0185,14.1814884 4.21333432,14.0490977 C4.32058876,14.2011349 4.47506213,14.3218047 4.66539941,14.3842605 C4.88361834,14.4559256 5.10936982,14.4391256 5.3048787,14.3549023 C5.34647633,14.4467721 5.37031065,14.5482977 5.37031065,14.6555721 L5.37031065,15.0318698 L3.89039053,15.0318698 L3.89039053,14.6555721 L3.89039053,14.6555721 L3.89039053,14.6555721 Z M12.5833964,14.6555721 C12.5833964,14.2504744 12.914997,13.9208372 13.3233284,13.9208372 C13.7312663,13.9208372 14.0632604,14.2504744 14.0632604,14.6555721 L14.0632604,15.0318698 L12.5833964,15.0318698 L12.5833964,14.6555721 L12.5833964,14.6555721 Z" id="Shape"></path>
                            <path d="M3.11021006,7.26106047 C3.34934024,7.42096744 3.62028698,7.53147907 3.90298225,7.58623256 L3.90596154,7.58684651 C4.60637574,7.72191628 5.3433284,7.4979907 5.84857101,6.99756279 C6.36106509,6.4896 6.58597337,5.7387907 6.43672781,5.03525581 C6.29124852,4.34997209 5.8032071,3.76331163 5.15169822,3.49417674 C4.48506805,3.21884651 3.70775444,3.2952 3.10897337,3.69577674 C2.51013609,4.0964093 2.14733728,4.78314419 2.15397041,5.50029767 C2.16077219,6.20093023 2.52536982,6.87019535 3.11021006,7.26106047 L3.11021006,7.26106047 Z" id="Shape"></path>
                        </g>
                    </g>
                </g>
            </g>
        </g>
    </g>
</svg>