<?xml version="1.0" encoding="UTF-8" standalone="no"?>
<svg width="19px" height="23px" viewBox="0 0 19 23" version="1.1" xmlns="http://www.w3.org/2000/svg" xmlns:xlink="http://www.w3.org/1999/xlink">
    <!-- Generator: Sketch 3.6.1 (26313) - http://www.bohemiancoding.com/sketch -->
    <title>closing ceremony@3x</title>
    <desc>Created with Sketch.</desc>
    <defs></defs>
    <g id="Page-1" stroke="none" stroke-width="1" fill="none" fill-rule="evenodd">
        <g id="assets-icon" transform="translate(-25.000000, -82.000000)" fill="#00D670">
            <g id="closing-ceremony" transform="translate(34.500000, 93.500000) scale(-1, 1) translate(-34.500000, -93.500000) translate(25.000000, 82.000000)">
                <g id="Capa_1">
                    <g id="XMLID_157_">
                        <path d="M9.54931694,4.8312249 C10.6768579,5.19548193 11.896959,4.60677711 12.2736885,3.51526104 C12.6503142,2.42414659 12.0402377,1.24497992 10.9127486,0.88062249 C9.78261202,0.516415663 8.56339344,1.1060241 8.18754645,2.19713855 C7.81092077,3.28825301 8.42099727,4.46736948 9.54931694,4.8312249 L9.54931694,4.8312249 Z" id="XMLID_158_"></path>
                        <path d="M15.3149863,3.20753012 C15.0763962,3.20753012 14.883541,3.39417671 14.883541,3.624749 C14.883541,3.85537149 15.0763962,4.04196787 15.3149863,4.04196787 L15.3806557,4.04196787 C15.4893607,4.41767068 15.7345956,4.73634538 16.0674071,4.94041165 L16.1652623,6.437751 L12.927735,7.27464859 L10.5185246,5.79693775 C10.3095246,5.66646586 9.98756284,5.5373494 9.74071858,5.45788153 L8.9899071,5.21546185 C8.81381967,5.15838353 8.29552459,5.06310241 8.08154098,5.11526104 L3.85881694,6.11962851 C3.49729781,6.20557229 3.22678142,6.49648594 3.17710109,6.85341365 L2.68242623,10.3998494 C2.60912568,10.9262048 3.03465301,11.3931727 3.58155191,11.3931727 C4.02825956,11.3931727 4.41755191,11.073745 4.47906831,10.6336345 L4.89115027,7.67846386 L6.30005738,7.3436245 L4.92655464,11.3259538 L4.46479235,15.8898092 L1.36545628,15.2888052 C0.74686612,15.1685743 0.165393443,15.5528112 0.0449043716,16.1395582 C-0.0772978142,16.7270582 0.317030055,17.2986446 0.923784153,17.4165161 L5.22390984,18.2496988 C5.88122678,18.3739458 6.48886339,17.9281627 6.55956831,17.3056225 L6.89331421,14.3972892 L7.09385246,14.4620482 L9.32354918,16.076757 L8.76569672,21.8119478 C8.70750273,22.4084839 9.16012842,22.9373494 9.77690164,22.9935241 C10.3988142,23.0493474 10.9406257,22.6085341 10.9987678,22.0149096 L11.6157486,15.674247 C11.6527623,15.2981426 11.4842541,14.9310241 11.1715328,14.7045181 L9.03870492,13.1602912 L10.7881585,8.08714859 L12.3318825,8.97048193 C12.535847,9.08699799 12.7836257,9.12444779 13.0279781,9.06295181 L16.282429,8.22198795 L16.3472678,9.21812249 C16.3666831,9.51521084 16.6211066,9.74658635 16.929571,9.74658635 C17.2380355,9.74658635 17.4925109,9.51521084 17.5118743,9.21812249 L17.7908005,4.94126506 C18.1237158,4.73664659 18.3696776,4.41807229 18.4784863,4.04196787 L18.5442596,4.04196787 C18.7826421,4.04196787 18.9757049,3.85537149 18.9757049,3.624749 C18.9755492,3.39422691 18.7825383,3.20753012 18.5441557,3.20753012 L15.3149863,3.20753012 Z" id="XMLID_159_"></path>
                    </g>
                </g>
            </g>
        </g>
    </g>
</svg>