<?xml version="1.0" encoding="UTF-8" standalone="no"?>
<svg width="17px" height="24px" viewBox="0 0 17 24" version="1.1" xmlns="http://www.w3.org/2000/svg" xmlns:xlink="http://www.w3.org/1999/xlink">
    <!-- Generator: Sketch 3.6.1 (26313) - http://www.bohemiancoding.com/sketch -->
    <title>Archery Copy@3x</title>
    <desc>Created with Sketch.</desc>
    <defs></defs>
    <g id="Page-1" stroke="none" stroke-width="1" fill="none" fill-rule="evenodd">
        <g id="assets-icon" transform="translate(-781.000000, -111.000000)" fill="#B3B3B3">
            <g id="Archery-Copy" transform="translate(789.500000, 123.000000) scale(-1, 1) translate(-789.500000, -123.000000) translate(781.000000, 111.000000)">
                <g id="Capa_1">
                    <g id="Group">
                        <path d="M9.8603301,6.89624034 C11.447822,6.89624034 12.7393269,5.68712446 12.7393269,4.20092704 C12.7393269,2.71483262 11.447822,1.50581974 9.8603301,1.50581974 C8.27316828,1.50581974 6.98199353,2.71483262 6.98199353,4.20092704 C6.98199353,5.68717597 8.27316828,6.89624034 9.8603301,6.89624034 L9.8603301,6.89624034 Z" id="Shape"></path>
                        <path d="M16.795945,21.7718112 L14.3602686,17.9868155 C14.2463301,17.8096996 14.0840324,17.4234335 14.038589,17.2214936 L13.1330777,12.0735451 L13.2133463,12.0690129 C13.8286472,12.0340944 14.3437638,11.7294077 14.5913916,11.2539914 C14.8391294,10.7785751 14.7784466,10.21097 14.4290388,9.73575966 L12.9586214,7.7353133 C12.7312395,7.42593991 12.4084045,7.24125322 11.9539159,7.24125322 L7.45353722,7.24125322 L5.35582524,0.846592275 C5.45540453,0.831811159 5.55575405,0.824034335 5.65687379,0.824034335 C5.89993528,0.824034335 6.09700324,0.639553648 6.09700324,0.412017167 C6.09700324,0.184480687 5.89993528,0 5.65687379,0 C4.27393204,0 2.99799676,0.943570815 2.06398706,2.65694421 C1.35713916,3.95366524 0.90402589,5.58556223 0.749540453,7.3512103 C0.337909385,7.53445494 0.0525954693,7.92746781 0.0525954693,8.38176824 C0.0525954693,8.81933047 0.317278317,9.19993133 0.704592233,9.3911073 C0.790967638,11.4198798 1.26592233,13.3111416 2.06393204,14.7751416 C2.99794175,16.488515 4.27387702,17.4320858 5.65681877,17.4320858 C5.89988026,17.4320858 6.09694822,17.2476052 6.09694822,17.0200687 C6.09694822,16.7925322 5.89988026,16.6080515 5.65681877,16.6080515 C5.59052427,16.6080515 5.52461489,16.6046524 5.45892557,16.5982146 L7.49243366,12.2566352 C7.63030421,12.3164807 7.78159871,12.3525322 7.9407055,12.36 L8.03538835,13.3501803 C8.03813916,13.4055451 8.02779612,13.4380944 8.02306472,13.4584893 L5.92524272,22.5214249 C5.77521359,23.1694249 6.21638835,23.8109356 6.90876699,23.9514335 C6.99915858,23.9696137 7.0910356,23.9788841 7.1818123,23.9788841 C7.78143366,23.9788841 8.3089288,23.5801545 8.43612621,23.0307296 L10.2929223,15.0093734 L10.9155405,15.0093734 L11.5246796,17.7170987 C11.6296505,18.1839142 11.896699,18.8191416 12.1595663,19.2277082 L14.5952427,23.0128069 C14.8298317,23.3773906 15.2415728,23.5950386 15.6966667,23.5950386 C15.9293301,23.5950386 16.1581424,23.5353476 16.3584563,23.4224034 C16.9651197,23.0802747 17.1613625,22.3398798 16.795945,21.7718112 L16.795945,21.7718112 Z M4.53179288,1.14180258 L6.53278641,7.24130472 L1.645589,7.24130472 C1.94157605,4.35481545 3.08365696,1.97387124 4.53179288,1.14180258 L4.53179288,1.14180258 Z M1.59266343,9.52228326 L7.2811165,9.52228326 L7.49826537,10.1842918 C7.05285437,10.3745408 6.7551068,10.8071588 6.78646602,11.2912275 C6.79301294,11.3923777 6.81468932,11.4894592 6.84742395,11.5815966 L4.61937864,16.3384893 C3.01857282,15.4947811 1.77218123,12.7646524 1.59266343,9.52228326 L1.59266343,9.52228326 Z" id="Shape"></path>
                    </g>
                </g>
            </g>
        </g>
    </g>
</svg>