<?xml version="1.0" encoding="UTF-8" standalone="no"?>
<svg width="18px" height="25px" viewBox="0 0 18 25" version="1.1" xmlns="http://www.w3.org/2000/svg" xmlns:xlink="http://www.w3.org/1999/xlink">
    <!-- Generator: Sketch 3.6.1 (26313) - http://www.bohemiancoding.com/sketch -->
    <title>Rhythmic@3x</title>
    <desc>Created with Sketch.</desc>
    <defs></defs>
    <g id="Page-1" stroke="none" stroke-width="1" fill="none" fill-rule="evenodd">
        <g id="assets-icon" transform="translate(-247.000000, -338.000000)" fill="#00D670">
            <g id="Rhythmic" transform="translate(247.000000, 338.000000)">
                <g id="Capa_1">
                    <g id="Group">
                        <path d="M14.6329209,6.86894198 C14.7418705,6.9028157 14.8574676,6.84159556 14.8909209,6.73472696 C14.9404317,6.57683447 16.0887626,2.85302901 14.9404317,1.01232935 C14.6044317,0.473848123 14.1062158,0.146629693 13.4598129,0.0401877133 C12.3399712,-0.143387372 11.4417842,0.307380546 10.9997266,1.28037543 C10.9311799,1.43093003 10.876705,1.58796928 10.836259,1.74667235 C9.60828777,1.28728669 7.70210072,1.00866041 5.67047482,1.17512799 C3.20913669,1.37704778 1.46473381,2.91996587 0.653266187,4.29641638 C0.0217553957,5.36732082 -0.148748201,6.44837884 0.197179856,7.1883959 C0.633884892,8.12261092 1.46188489,8.58686007 2.15408633,8.58686007 C2.28660432,8.58686007 2.41411511,8.56975256 2.53303597,8.53587884 C3.16208633,8.35554608 3.47248921,7.75912969 3.36353957,6.9399744 C3.34122302,6.77312287 3.3358705,6.61889932 3.34001439,6.47286689 L3.68840288,8.15648464 C3.72431655,8.33110068 3.80646043,8.49304608 3.92576978,8.62687713 L5.4216259,10.3023464 L5.09266187,12.4351536 C5.03197122,12.6521758 5.07328058,12.9875853 5.18551079,13.1837884 L6.054,15.2582338 C6.00405755,15.4030717 5.97103597,15.5552048 5.97103597,15.7167662 L5.97103597,23.5462457 C5.97103597,24.3348123 6.61782734,24.9741041 7.41574101,24.9741041 C8.21365468,24.9741041 8.86044604,24.3348549 8.86044604,23.5462457 L8.86044604,16.7602816 L11.441482,17.4962457 C11.5715396,17.5333618 11.706518,17.5521331 11.8418417,17.5521331 L16.5511511,17.5521331 C17.3490216,17.5521331 17.9958561,16.912884 17.9958561,16.1242747 C17.9958561,15.3356655 17.3490647,14.6964164 16.5511511,14.6964164 L12.0457122,14.6964164 L11.3497554,14.4977816 C11.340259,14.4908276 11.3369784,14.4830631 11.3262302,14.4765358 L9.30984173,13.2131399 C9.11706475,13.0923635 9.0011223,12.8161689 9.05020144,12.5962884 L9.2747482,11.5922782 L10.0746906,11.0798635 L14.731554,9.7528157 C15.2792806,9.59654437 15.5950791,9.03110068 15.4373957,8.49018771 C15.2797554,7.94923208 14.7076403,7.63754266 14.1598705,7.79257679 L9.35607194,9.1612628 C9.25864748,9.18899317 9.16579856,9.23101536 9.08076259,9.28570819 L8.62130935,9.57986348 L7.16300719,9.17555461 C7.1531223,9.16331058 7.14608633,9.14944539 7.13533813,9.13762799 L5.65553957,7.47969283 L5.21184173,5.33668942 C5.09788489,4.78511092 4.55266187,4.4306314 3.99418705,4.54197952 C3.51038849,4.63988908 3.1765036,5.05806314 3.17028777,5.52679181 C2.95398561,5.91352389 2.87555396,6.40102389 2.95480576,6.99219283 C3.0361295,7.6024744 2.84089209,8.02188567 2.41864748,8.14261945 C1.85766906,8.30418089 0.993755396,7.91740614 0.572330935,7.01582765 C0.287136691,6.40635666 0.455136691,5.44236348 1.01028777,4.50038396 C1.76935252,3.2128413 3.40143885,1.76949659 5.70509353,1.58020478 C7.75493525,1.41173208 9.6421295,1.72337884 10.7636115,2.14889078 C10.6996403,2.73391638 10.8226187,3.27811433 11.1189928,3.51476109 C11.2234101,3.59799488 11.5078273,3.76113481 11.8945899,3.48007679 C12.2974532,3.1871587 12.2536835,2.86894198 12.1917842,2.70580205 C12.0848633,2.42389078 11.7406187,2.14769625 11.2217698,1.90661263 C11.2564317,1.75447952 11.3071942,1.59901877 11.3761295,1.44726962 C11.5874676,0.982593857 12.1306619,0.236049488 13.3920863,0.442064846 C13.9233237,0.529351536 14.3146187,0.785964164 14.5891079,1.2253413 C15.6396259,2.90857509 14.5086475,6.57649317 14.497036,6.61322526 C14.4628921,6.72167235 14.5239712,6.83549488 14.6329209,6.86894198 L14.6329209,6.86894198 Z M13.6294985,3.7724103 C13.6942745,3.89465606 13.8459693,4.1818515 13.0352779,4.60478431 C12.3731416,4.94923111 12.110898,4.79659988 11.995557,4.73160549 C11.4504141,4.41871733 11.0870406,3.47289644 11.172307,2.32188567 C12.5170699,2.79749444 13.3799787,3.30008644 13.6294985,3.7724103 L13.6294985,3.7724103 Z" id="Shape"></path>
                        <ellipse id="Oval" cx="8.8607482" cy="6.20520478" rx="2.49889209" ry="2.46975256"></ellipse>
                    </g>
                </g>
            </g>
        </g>
    </g>
</svg>