<?xml version="1.0" encoding="UTF-8" standalone="no"?>
<svg width="22px" height="25px" viewBox="0 0 22 25" version="1.1" xmlns="http://www.w3.org/2000/svg" xmlns:xlink="http://www.w3.org/1999/xlink">
    <!-- Generator: Sketch 3.6.1 (26313) - http://www.bohemiancoding.com/sketch -->
    <title>Trampoline Copy@3x</title>
    <desc>Created with Sketch.</desc>
    <defs></defs>
    <g id="Page-1" stroke="none" stroke-width="1" fill="none" fill-rule="evenodd">
        <g id="assets-icon" transform="translate(-1001.000000, -375.000000)">
            <g id="Trampoline-Copy" transform="translate(1002.000000, 375.000000)">
                <g id="sports" transform="translate(8.312500, 0.000000)" fill="#B3B3B3">
                    <g id="Capa_1">
                        <g id="Group">
                            <path d="M2.527875,22.7610566 C3.41075,22.5826415 3.9865,21.6969057 3.815,20.7844528 C3.3184375,18.1390189 2.5361875,10.5532075 4.8505625,7.24935849 C4.9310625,7.13524528 4.99275,7.01343396 5.0421875,6.88845283 C6.314,5.05403774 7.98525,3.62807547 9.9894375,2.70022642 C11.1164375,2.17856604 10.1408125,0.469584906 9.022125,0.986716981 C7.1526875,1.85207547 5.5479375,3.14898113 4.23675,4.74022642 C3.5406875,4.39335849 2.6831875,4.59849057 2.212875,5.26913208 C-1.3470625,10.3485283 0.405125,20.3098868 0.616875,21.4301887 C0.7686875,22.2344151 1.4503125,22.7923019 2.21375,22.7923019 C2.317,22.7923019 2.422,22.7818868 2.527875,22.7610566 L2.527875,22.7610566 Z" id="Shape"></path>
                            <ellipse id="Oval" cx="2.580375" cy="2.26732075" rx="1.8528125" ry="1.91773585"></ellipse>
                        </g>
                    </g>
                </g>
                <path d="M0.21875,19.245283 C0.21875,19.245283 4.1987346,23.7567969 10.3880709,23.6738573 C16.5774072,23.5909177 20.78125,19.245283 20.78125,19.245283" id="Line" stroke="#B3B3B3" stroke-linecap="square"></path>
            </g>
        </g>
    </g>
</svg>