<?xml version="1.0" encoding="UTF-8" standalone="no"?>
<svg width="18px" height="25px" viewBox="0 0 18 25" version="1.1" xmlns="http://www.w3.org/2000/svg" xmlns:xlink="http://www.w3.org/1999/xlink">
    <!-- Generator: Sketch 3.6.1 (26313) - http://www.bohemiancoding.com/sketch -->
    <title>Handball@3x</title>
    <desc>Created with Sketch.</desc>
    <defs></defs>
    <g id="Page-1" stroke="none" stroke-width="1" fill="none" fill-rule="evenodd">
        <g id="assets-icon" transform="translate(-261.000000, -429.000000)" fill="#00D670">
            <g id="Group-3" transform="translate(29.000000, 23.000000)">
                <g id="Group-2-Copy-2" transform="translate(30.000000, 175.000000)">
                    <g id="Handball" transform="translate(202.000000, 231.000000)">
                        <g id="Capa_1">
                            <path d="M17.5082609,14.556117 C17.2643478,14.7636525 16.968,14.864805 16.6733043,14.864805 C16.2998261,14.864805 15.9290435,14.7021277 15.6711304,14.3868794 L15.276,13.904078 C14.2669565,12.6711879 13.1601739,11.5167553 11.9736522,10.4575355 C11.9736522,10.4575355 12.1809565,18.8759752 6.78626087,23.9157801 L6.14182609,24.5556738 C5.88826087,24.8074468 5.55991304,24.9328014 5.23182609,24.9328014 C4.89226087,24.9328014 4.55295652,24.7984043 4.29730435,24.5308511 C3.79478261,24.0046986 3.80565217,23.162766 4.32165217,22.6503546 L4.96617391,22.0103723 C6.47921739,20.5083333 7.52408696,18.5993794 7.99156522,16.5221631 C7.13669565,16.7890957 6.24965217,16.9239362 5.36234783,16.9239362 C3.70869565,16.9239362 2.05547826,16.4605496 0.61173913,15.533422 C0.00226086957,15.1420213 -0.180608696,14.320922 0.203391304,13.6994681 C0.587217391,13.0781915 1.3926087,12.891578 2.00226087,13.283156 C3.71017391,14.3798759 5.83347826,14.5583333 7.67713043,13.820922 L8.18721739,9.05824468 C8.06617391,9.0641844 7.94521739,9.06817376 7.82443478,9.06817376 C5.94782609,9.06817376 4.12347826,8.35452128 2.70217391,7.01578014 L2.6173913,6.93599291 C2.5093913,6.95195035 2.39904348,6.96054965 2.28669565,6.96054965 C1.02382609,6.96054965 0,5.91684397 0,4.62925532 C0,3.34166667 1.02373913,2.29796099 2.28669565,2.29796099 C3.54965217,2.29796099 4.5733913,3.34166667 4.5733913,4.62925532 C4.5733913,4.79406028 4.55643478,4.95478723 4.52452174,5.10984043 C5.77591304,6.25629433 7.48643478,6.67721631 9.116,6.23519504 L9.88869565,6.02544326 C9.8973913,6.02304965 9.90608696,6.02198582 9.91469565,6.0197695 C9.93773913,6.01400709 9.96086957,6.00913121 9.98426087,6.00469858 C10.0042609,6.00088652 10.0242609,5.99716312 10.0442609,5.99432624 C10.0653043,5.99131206 10.0863478,5.98927305 10.1075652,5.9873227 C10.1295652,5.98528369 10.1514783,5.98333333 10.1733913,5.98244681 C10.1931304,5.98164894 10.2128696,5.98182624 10.2326957,5.98191489 C10.2552174,5.9820922 10.2776522,5.98218085 10.3,5.98351064 C10.3204348,5.98466312 10.3406957,5.98696809 10.3611304,5.9891844 C10.3821739,5.99148936 10.4031304,5.99352837 10.423913,5.99689716 C10.4463478,6.00044326 10.4686087,6.0052305 10.4909565,6.00992908 C10.5091304,6.01382979 10.5273043,6.01746454 10.5453043,6.02207447 C10.5695652,6.02836879 10.5933913,6.03590426 10.6173913,6.04361702 C10.6332174,6.04875887 10.6490435,6.0535461 10.6646957,6.05930851 C10.6888696,6.06817376 10.7126087,6.07828014 10.7363478,6.08865248 C10.7516522,6.09530142 10.7669565,6.10177305 10.781913,6.10904255 C10.803913,6.11968085 10.8255652,6.13147163 10.8471304,6.14343972 C10.8638261,6.15265957 10.8803478,6.16196809 10.8966087,6.17189716 C10.9153043,6.18342199 10.9335652,6.19565603 10.9518261,6.20824468 C10.9704348,6.22101064 10.9887826,6.23404255 11.0067826,6.24778369 C11.0142609,6.2535461 11.0221739,6.25824468 11.0295652,6.2641844 L12.3326087,7.30656028 C14.1418261,8.75381206 15.806087,10.4001773 17.2791304,12.2001773 L17.6742609,12.6829787 C18.1357391,13.2471631 18.0613913,14.085727 17.5082609,14.556117 L17.5082609,14.556117 Z M10.1501739,5.43891844 C11.6233913,5.43891844 12.8175652,4.22136525 12.8175652,2.71950355 C12.8175652,1.21755319 11.6233913,0 10.1501739,0 C8.67695652,0 7.48278261,1.21755319 7.48278261,2.71941489 C7.48278261,4.22136525 8.67695652,5.43891844 10.1501739,5.43891844 L10.1501739,5.43891844 Z" id="Shape"></path>
                        </g>
                    </g>
                </g>
            </g>
        </g>
    </g>
</svg>