<?xml version="1.0" encoding="UTF-8" standalone="no"?>
<svg width="22px" height="25px" viewBox="0 0 22 25" version="1.1" xmlns="http://www.w3.org/2000/svg" xmlns:xlink="http://www.w3.org/1999/xlink">
    <!-- Generator: Sketch 3.6.1 (26313) - http://www.bohemiancoding.com/sketch -->
    <title>Judo Copy@3x</title>
    <desc>Created with Sketch.</desc>
    <defs></defs>
    <g id="Page-1" stroke="none" stroke-width="1" fill="none" fill-rule="evenodd">
        <g id="assets-icon" transform="translate(-1005.000000, -473.000000)" fill="#B3B3B3">
            <g id="Group-3" transform="translate(29.000000, 23.000000)">
                <g id="Group-2-Copy-3" transform="translate(22.000000, 2.000000)">
                    <g id="Judo-Copy" transform="translate(954.000000, 448.000000)">
                        <g id="Capa_1">
                            <g id="Group">
                                <ellipse id="Oval" cx="4.41362753" cy="18.9243219" rx="2.15484211" ry="2.18743219"></ellipse>
                                <path d="M19.36,18.8396022 L21.060502,15.6863924 C21.1111822,15.5925859 21.1413765,15.4939873 21.1622632,15.394575 C21.208668,15.3254069 21.242336,15.2458861 21.242336,15.1555154 L21.242336,12.6667722 C21.242336,12.4277125 21.0988016,12.106962 20.9220891,11.949141 L16.8934615,8.31564195 C16.7167045,8.15786618 16.3581134,8.23047016 16.2244656,8.42676311 L16.11117,8.63815552 C16.0430324,8.69520796 15.980417,8.76048825 15.930583,8.84005425 L13.664583,12.483047 L11.047251,14.4759494 C10.8420364,14.6320072 10.729587,14.8646022 10.7125749,15.1053797 L9.97753441,14.5507233 C9.83484615,14.4435353 9.66321053,14.3838608 9.48565182,14.3803797 L6.42627126,14.3211573 L7.21453036,11.7917722 L9.74243725,12.2980108 C9.8118664,12.3113924 9.8808502,12.3183092 9.94938866,12.3183092 C10.410587,12.3183092 10.8309028,12.0127034 10.9684696,11.5488246 L11.9708947,8.16216094 C12.3111822,8.91609403 13.0568664,9.44132007 13.9264453,9.44132007 C15.1158704,9.44132007 16.0817328,8.46301989 16.0817328,7.25388788 C16.0817328,6.04475588 15.1158704,5.06600362 13.9264453,5.06600362 C13.5069757,5.06600362 13.1181903,5.19267631 12.7872551,5.40320976 L12.9290972,4.92423146 C13.0981943,4.35230561 12.7787935,3.74968354 12.2157895,3.57802893 C11.6510486,3.40556058 11.0587409,3.73060579 10.8896437,4.30212477 L9.20753441,9.98688969 L6.87041296,9.51912297 L9.00013765,6.81894213 C9.30804858,6.42857143 9.31187854,5.87436709 9.00908907,5.47965642 L5.12693522,0.417540687 C4.76620648,-0.0541139241 4.09721053,-0.138833635 3.63302834,0.228209765 C3.16924696,0.594801085 3.08578947,1.27391501 3.44691903,1.74471067 L6.81247368,6.13426763 L4.11039271,9.55940325 C3.99669636,9.70379747 3.92980567,9.86934901 3.89916599,10.0392857 L3.22032794,11.8346293 C3.12155061,12.0516275 3.00487045,12.416953 2.95926721,12.6512206 L2.87282591,13.3472423 L1.77068826,11.7698011 L2.0994413,8.31270344 C2.14459919,7.83716094 1.80177328,7.41482821 1.33376113,7.36858047 C0.866595142,7.32617541 0.449263158,7.67075045 0.404105263,8.14629295 L0.0442672065,11.9246383 C0.0246720648,12.1316908 0.0791821862,12.3383363 0.197153846,12.5082278 L2.37502024,15.6246383 C2.46996761,15.7608499 2.59818219,15.8554702 2.7391336,15.9160036 C2.79578138,15.9549277 2.86093522,15.983906 2.9410081,15.9847649 L3.04619838,15.9860759 C3.05430364,15.9864828 3.06236437,15.9890597 3.07046964,15.9890597 C3.07559109,15.9890597 3.08066802,15.9868897 3.08578947,15.9864376 L5.12225911,16.012387 C5.16487854,16.0197107 5.20745344,16.0275316 5.25216599,16.0283906 L9.18032389,16.1045208 L11.7035547,18.0075045 C11.7244413,18.0235081 11.7490688,18.0291591 11.7708462,18.0429476 C11.9296559,18.1894665 12.1340688,18.2681736 12.3428016,18.2681736 C12.5080243,18.2681736 12.6744939,18.2197559 12.8214575,18.1177215 L16.0528745,15.8822785 C16.2253563,15.7634268 16.3484494,15.5844485 16.399085,15.3786618 L16.9854251,13.0117541 C17.0821093,13.1184901 17.1408502,13.2014919 17.1331903,13.2417269 L17.7425992,15.0007685 L15.0656802,17.1220615 C14.8672348,17.2789783 14.7300688,17.5029385 14.678587,17.7527577 L13.4546478,23.692179 C13.334583,24.2766727 13.7033725,24.8490054 14.2791579,24.9713382 C14.3528178,24.9869349 14.4260769,24.9947107 14.4984899,24.9947107 C14.9916194,24.9947107 15.4341134,24.644123 15.5392591,24.1348553 L16.6827247,18.581962 L17.3610729,18.0441682 L17.2090769,18.3260398 C17.0332105,18.6524412 17.0349028,19.0475588 17.2137085,19.3721971 L20.0043684,24.4405063 C20.1994291,24.7945298 20.5618502,24.9938065 20.934915,24.9938065 C21.1107814,24.9938065 21.2892308,24.9497288 21.4536073,24.8567812 C21.9667328,24.5654611 22.1503036,23.9070072 21.8636802,23.3861212 L19.36,18.8396022 L19.36,18.8396022 Z M14.8262632,14.6380651 L12.3575425,16.3460669 L11.8596923,15.9703888 C11.9325506,15.9423146 12.0045182,15.9090416 12.0696721,15.8588608 L14.8117895,13.770434 C14.8943563,13.7073237 14.9654777,13.6294756 15.020834,13.540868 L15.1490486,13.3346293 L14.8262632,14.6380651 L14.8262632,14.6380651 Z" id="Shape"></path>
                            </g>
                        </g>
                    </g>
                </g>
            </g>
        </g>
    </g>
</svg>