<?xml version="1.0" encoding="UTF-8" standalone="no"?>
<svg width="24px" height="20px" viewBox="0 0 24 20" version="1.1" xmlns="http://www.w3.org/2000/svg" xmlns:xlink="http://www.w3.org/1999/xlink">
    <!-- Generator: Sketch 3.6.1 (26313) - http://www.bohemiancoding.com/sketch -->
    <title>Rowing Copy@3x</title>
    <desc>Created with Sketch.</desc>
    <defs></defs>
    <g id="Page-1" stroke="none" stroke-width="1" fill="none" fill-rule="evenodd">
        <g id="assets-icon" transform="translate(-1011.000000, -568.000000)" fill="#B3B3B3">
            <g id="Rowing-Copy" transform="translate(1011.000000, 568.000000)">
                <g id="Capa_1">
                    <g id="XMLID_2_">
                        <path d="M2.3465679,4.6831405 C3.49975309,4.6831405 4.43476543,3.64088154 4.43476543,2.35333333 C4.43476543,1.06666667 3.4997037,0.0230853994 2.3465679,0.0230853994 C1.19333333,0.0230853994 0.257481481,1.06666667 0.257481481,2.35333333 C0.257481481,3.64093664 1.19333333,4.6831405 2.3465679,4.6831405 L2.3465679,4.6831405 Z" id="XMLID_8_"></path>
                        <path d="M7.05209877,14.2618182 L9.07580247,16.033719 C9.59012346,16.4851791 10.3335309,16.3787879 10.7338765,15.8107438 C11.136642,15.2380165 11.0472099,14.4093113 10.5337284,13.9600551 L8.04424691,11.7799449 L7.05209877,14.2618182 L7.05209877,14.2618182 Z" id="XMLID_3_"></path>
                        <path d="M14.9865679,4.6831405 C16.1398519,4.6831405 17.074716,3.64088154 17.074716,2.35333333 C17.074716,1.06666667 16.1398025,0.0230853994 14.9865679,0.0230853994 C13.8325432,0.0230853994 12.8975802,1.06666667 12.8975802,2.35333333 C12.8975802,3.64093664 13.8325432,4.6831405 14.9865679,4.6831405 L14.9865679,4.6831405 Z" id="XMLID_4_"></path>
                        <path d="M19.6920988,14.2618182 L21.716,16.033719 C22.2309136,16.4851791 22.9736296,16.3787879 23.3739753,15.8107438 C23.7767407,15.2380165 23.6872099,14.4093113 23.173037,13.9600551 L20.6843951,11.7799449 L19.6920988,14.2618182 L19.6920988,14.2618182 Z" id="XMLID_5_"></path>
                        <path d="M23.7240988,17.835427 C23.4163457,17.4921212 22.9179259,17.4924518 22.6110123,17.8349862 C22.2459259,18.2418182 21.6123951,18.2414325 21.2480494,17.835427 C20.5249877,17.0278788 19.3946667,16.8311846 18.4721481,17.242865 C18.176,17.3746006 17.874963,17.568595 17.6418272,17.8268871 L21.8329877,7.28595041 L21.8619753,7.28198347 C22.401284,7.20044077 22.7781728,6.64732782 22.7059753,6.04650138 C22.6329877,5.44567493 22.1367407,5.0230854 21.5982222,5.10451791 L20.7307654,5.23498623 L16.6241975,5.85256198 C16.2874568,5.48027548 15.8336296,5.26964187 15.3595556,5.26964187 L14.6121481,5.26964187 C13.6190123,5.26964187 12.813679,6.16831956 12.813679,7.27630854 L12.813679,13.2752066 C12.813679,14.0078237 13.139358,14.6919008 13.6826667,15.1031956 C14.2250864,15.514876 14.9151111,15.5984573 15.5251358,15.3283196 L16.9272099,14.7059504 L16.9304691,14.6998898 L18.2618765,11.367989 L17.113284,11.8269972 L17.1510617,7.98975207 C20.225284,7.52727273 19.567358,7.62666667 20.457679,7.49267218 L16.5316049,17.3073829 L16.3142222,17.8509091 C16.3079012,17.8442424 16.3000988,17.8425895 16.2945679,17.8360331 C15.3054815,16.7319559 13.6952593,16.7310193 12.7013333,17.837686 C12.3426173,18.2388981 11.7043951,18.2397796 11.3417284,17.8360331 C10.3831605,16.7661157 8.74158025,16.7315152 7.72024691,17.8705785 C7.37249383,18.257741 6.76641975,18.2582369 6.42019753,17.8710193 C6.23496296,17.6753168 6.08182716,17.5391185 5.76079012,17.3687603 C5.58725926,17.277686 5.40676543,17.2062259 5.22064198,17.1611019 L9.19150617,7.28655647 L9.22212346,7.28214876 C9.76059259,7.20060606 10.1382222,6.64749311 10.0660247,6.04666667 C9.99298765,5.44584022 9.49916049,5.02325069 8.95906173,5.1046832 L8.0908642,5.23515152 L3.9762963,5.8538843 C3.63950617,5.48071625 3.18577778,5.26964187 2.7108642,5.26964187 L1.96261728,5.26964187 C0.96962963,5.26964187 0.164888889,6.16831956 0.164888889,7.27630854 L0.164888889,13.2752066 C0.164888889,14.0078237 0.489925926,14.6919008 1.03318519,15.1031956 C1.57560494,15.514876 2.26567901,15.5984573 2.8757037,15.3283196 L4.29032099,14.7007713 L4.29116049,14.6998898 L5.62177778,11.367989 L4.46380247,11.830854 L4.5014321,7.99146006 C7.58760494,7.52683196 6.92888889,7.62628099 7.81288889,7.49349862 L3.90177778,17.2175207 C3.88291358,17.2240771 3.86330864,17.2298623 3.8437037,17.2372452 C3.48953086,17.3647383 3.15748148,17.5687603 2.8891358,17.8687603 C2.46276543,18.3430303 1.77111111,18.3447383 1.34414815,17.8687603 C1.03703704,17.5266116 0.53782716,17.5261708 0.230814815,17.869146 C-0.0769382716,18.2125069 -0.0769382716,18.769146 0.230814815,19.1123967 C0.750518519,19.6918457 1.43348148,19.981708 2.11649383,19.981708 C2.79871605,19.981708 3.48241975,19.6913499 4.00380247,19.1115152 C4.32567901,18.7502479 4.89476543,18.6744904 5.36740741,19.1790083 C6.31333333,20.1674931 7.88108642,20.1757025 8.86479012,19.078292 C9.22987654,18.6723416 9.8625679,18.6723416 10.2276049,19.078292 C11.1806914,20.1420386 12.8644938,20.1429201 13.8184198,19.0774105 C14.1937284,18.6583471 14.8044444,18.6591736 15.1813333,19.078292 C16.1391111,20.1481543 17.8119506,20.1486501 18.7721481,19.0778512 C19.1362963,18.6710193 19.7698765,18.6710193 20.134963,19.0778512 C21.0927407,20.1473278 22.7640988,20.1486501 23.7241481,19.078292 C24.0318519,18.7353719 24.0318519,18.1787328 23.7240988,17.835427 L23.7240988,17.835427 Z" id="XMLID_6_"></path>
                    </g>
                </g>
            </g>
        </g>
    </g>
</svg>