<?xml version="1.0" encoding="UTF-8" standalone="no"?>
<svg width="22px" height="22px" viewBox="0 0 22 22" version="1.1" xmlns="http://www.w3.org/2000/svg" xmlns:xlink="http://www.w3.org/1999/xlink">
    <!-- Generator: Sketch 3.6.1 (26313) - http://www.bohemiancoding.com/sketch -->
    <title>rugby@3x</title>
    <desc>Created with Sketch.</desc>
    <defs></defs>
    <g id="Page-1" stroke="none" stroke-width="1" fill="none" fill-rule="evenodd">
        <g id="assets-icon" transform="translate(-441.000000, -36.000000)" fill="#00D670">
            <g id="rugby" transform="translate(441.000000, 36.000000)">
                <g id="Capa_1">
                    <g id="Group">
                        <path d="M1.53146822,21.90155 C1.77745572,21.90155 2.02756822,21.8420812 2.25898072,21.7164062 L8.60673697,18.2749875 C9.15659947,17.977025 9.46968697,17.3740187 9.39708697,16.75245 L8.99070572,13.2792687 L13.254512,17.2942 L11.4058245,19.349 C10.8406307,19.9770312 10.891437,20.9438625 11.5193307,21.5091937 C11.811587,21.7719562 12.1771995,21.90155 12.5421245,21.90155 C12.960812,21.90155 13.3772307,21.7307062 13.6795245,21.3953437 L16.4328245,18.3362437 C16.949412,17.7627312 16.9571807,16.8938 16.451387,16.3110062 L11.894637,11.0572 L16.511887,10.6772187 L19.5510495,21.0970375 C19.7066307,21.631775 20.1950307,21.978825 20.7250932,21.978825 C20.8385995,21.978825 20.953962,21.962875 21.068637,21.929325 C21.7175682,21.7403312 22.0896432,21.061425 21.9005807,20.4120812 L18.6883745,9.3995 C18.6132307,9.1414125 18.4587495,8.9299375 18.261162,8.7775875 L16.3461995,6.52801875 L16.339462,6.46215625 L16.319112,6.4383 C16.8602432,6.92209375 17.572287,7.218475 18.3547307,7.218475 C20.044262,7.218475 21.4141057,5.848975 21.4141057,4.1592375 C21.4141057,2.46970625 20.044262,1.10020625 18.3547307,1.10020625 C16.6651307,1.10020625 15.2956307,2.46970625 15.2956307,4.1592375 C15.2956307,4.76375625 15.4728682,5.32585625 15.7755057,5.800025 L14.4390745,4.2304625 L14.2400432,3.99678125 L13.6490682,3.30275 L13.617787,3.3237875 C13.617787,3.3237875 13.617787,3.3237875 13.6173745,3.3237875 C13.615312,3.32234375 13.6124245,3.32124375 13.6102245,3.31986875 C13.5572182,3.28301875 13.502012,3.24905625 13.441512,3.22141875 L6.58789322,0.09769375 C6.44509947,0.03238125 6.29151197,0 6.13806197,0 C5.97374947,0 5.80929947,0.0375375 5.65804947,0.11171875 C5.36613697,0.25609375 5.15431822,0.52380625 5.08130572,0.84115625 C5.03214947,1.0549 3.89406197,6.10011875 5.12791822,9.200125 C5.12901822,9.2030125 5.13004947,9.20596875 5.13128697,9.20885625 C5.26761822,9.5500625 5.55849947,9.78071875 5.89097447,9.85923125 C5.97182447,9.87806875 6.05425572,9.890925 6.13840572,9.890925 C6.27260572,9.890925 6.40893697,9.86583125 6.54086822,9.81330625 C7.09671197,9.59096875 7.36765572,8.9595 7.14497447,8.4035875 C7.12132447,8.34453125 7.10083697,8.28114375 7.07924947,8.21913125 C7.03669322,8.09565625 6.99757447,7.9679875 6.96340572,7.834475 C6.90572447,7.608425 6.85945572,7.3704125 6.82418697,7.1225 C6.60824322,6.882425 6.42351197,6.6100375 6.27686822,6.30980625 C5.68967447,5.10668125 5.83047447,3.6958625 6.64447447,2.6279 L6.75516197,2.48208125 L6.93831197,2.4842125 C8.06216822,2.4968625 9.08035572,3.0342125 9.72804947,3.9128375 L11.5288182,4.7334375 L11.5312932,4.7345375 L11.3543995,4.8541625 L11.1775057,4.9737875 L11.1755807,4.97289375 L10.3845432,5.51024375 C10.5159245,6.42785 10.2846495,7.3726125 9.69958697,8.1406875 L9.58889947,8.28664375 L9.40574947,8.2845125 C8.63877447,8.27564375 7.92322447,8.01824375 7.33706197,7.58058125 L7.28529322,7.61585 C7.33850572,7.84705625 7.40278697,8.06719375 7.48322447,8.2680125 C7.48521822,8.27275625 7.48556197,8.27743125 7.48734947,8.2819 C7.56428072,8.47983125 7.59198697,8.68401875 7.58064322,8.88366875 C7.55623697,9.31871875 7.33713072,9.72654375 6.97474947,9.983875 C6.88289947,10.0491875 6.78479322,10.1079687 6.67589322,10.1512125 C6.50339947,10.2201 6.32258697,10.2551625 6.13813072,10.2551625 C6.10327447,10.2551625 6.06924322,10.2495937 6.03507447,10.2475312 C5.57939947,10.2154937 5.17501197,9.97555625 4.92936822,9.6001125 C4.90193697,9.70426875 4.89217447,9.8110375 4.90461822,9.91945625 L6.23726822,16.0795937 L0.800793215,19.02725 C0.0583619655,19.4301937 -0.217394285,20.3583187 0.185068215,21.1009562 C0.462268215,21.6124562 0.988205715,21.90155 1.53146822,21.90155 L1.53146822,21.90155 Z" id="Shape"></path>
                        <path d="M9.82067515,7.94097772 C10.2920251,7.32243397 10.5166314,6.54494022 10.4527626,5.76442147 C10.4217564,5.38423397 10.3277751,5.00370272 10.1506751,4.64015272 C10.0797939,4.49509022 9.9981189,4.35875897 9.9092939,4.22964647 C9.8327064,4.11916522 9.75000015,4.01480272 9.6616564,3.91655897 C9.52532515,3.76455272 9.3729064,3.63207147 9.21292515,3.51141522 C8.84483765,3.23442147 8.42230015,3.04377772 7.9753564,2.94752772 C7.7686939,2.90304647 7.55866265,2.87204022 7.3450564,2.86956522 C7.34113765,2.87492772 7.33811265,2.88077147 7.33385015,2.88634022 C6.64305015,3.80497772 6.47640015,5.06660897 7.01526265,6.17039022 C7.0585064,6.25907772 7.1110314,6.33951522 7.1613564,6.42229022 C7.2254314,6.52802772 7.29466265,6.62785272 7.36946265,6.72341522 C7.43656265,6.80935272 7.5051064,6.89343397 7.57983765,6.97064022 C7.72971265,7.12622147 7.8943689,7.26255272 8.0702314,7.38252147 C8.5855814,7.73500272 9.1941564,7.93403397 9.82067515,7.94097772 L9.82067515,7.94097772 Z" id="Shape"></path>
                    </g>
                </g>
            </g>
        </g>
    </g>
</svg>