<?xml version="1.0" encoding="UTF-8" standalone="no"?>
<svg width="22px" height="23px" viewBox="0 0 22 23" version="1.1" xmlns="http://www.w3.org/2000/svg" xmlns:xlink="http://www.w3.org/1999/xlink">
    <!-- Generator: Sketch 3.6.1 (26313) - http://www.bohemiancoding.com/sketch -->
    <title>Sailing@3x</title>
    <desc>Created with Sketch.</desc>
    <defs></defs>
    <g id="Page-1" stroke="none" stroke-width="1" fill="none" fill-rule="evenodd">
        <g id="assets-icon" transform="translate(-445.000000, -75.000000)" fill="#00D670">
            <g id="Group-3-Copy-2" transform="translate(15.000000, 63.000000)">
                <g id="Sailing" transform="translate(430.000000, 12.000000)">
                    <g id="Capa_1">
                        <g id="Group">
                            <path d="M20.6483051,20.7093496 C20.1822034,20.4911768 19.7083178,20.3821138 19.2266949,20.3821138 C18.7451186,20.3821138 18.2868008,20.4911768 17.8516949,20.7093496 C17.4166822,20.8963415 16.9661017,20.9898374 16.5,20.9898374 C16.0338983,20.9898374 15.5833178,20.8963415 15.1483051,20.7093496 C14.6822034,20.4911768 14.2161017,20.3821138 13.75,20.3821138 C13.2838983,20.3821138 12.8177966,20.4911768 12.3516949,20.7093496 C11.9166822,20.8963415 11.4661017,20.9898374 11,20.9898374 C10.5338983,20.9898374 10.0833178,20.8963415 9.64830508,20.7093496 C9.21329237,20.4911768 8.75492797,20.3821138 8.27330508,20.3821138 C7.7916822,20.3821138 7.31779661,20.4911768 6.85169492,20.7093496 C6.4166822,20.8963415 5.96610169,20.9898374 5.5,20.9898374 C5.03389831,20.9898374 4.5833178,20.8963415 4.14830508,20.7093496 C3.71329237,20.4911768 3.25492797,20.3821138 2.77330508,20.3821138 C2.2916822,20.3821138 1.8333178,20.4911768 1.39830508,20.7093496 C0.93220339,20.8963415 0.466101695,20.9898374 0,20.9898374 L0,23 C0.466101695,23 0.93220339,22.9065041 1.39830508,22.7195122 C1.8333178,22.5013394 2.2916822,22.3922764 2.77330508,22.3922764 C3.25492797,22.3922764 3.71329237,22.5013394 4.14830508,22.7195122 C4.5833178,22.9065041 5.03389831,23 5.5,23 C5.96610169,23 6.4166822,22.9065041 6.85169492,22.7195122 C7.31779661,22.5013394 7.7916822,22.3922764 8.27330508,22.3922764 C8.75492797,22.3922764 9.21324576,22.5013394 9.64830508,22.7195122 C10.0833178,22.9065041 10.5338983,23 11,23 C11.4661017,23 11.9166822,22.9065041 12.3516949,22.7195122 C12.7867076,22.5013394 13.245072,22.3922764 13.7266949,22.3922764 C14.2083178,22.3922764 14.6822034,22.5013394 15.1483051,22.7195122 C15.5833178,22.9065041 16.0338983,23 16.5,23 C16.9661017,23 17.4166822,22.9065041 17.8516949,22.7195122 C18.2867076,22.5013394 18.745072,22.3922764 19.2266949,22.3922764 C19.7083178,22.3922764 20.1822034,22.5013394 20.6483051,22.7195122 C21.0833178,22.9065041 21.5338983,23 22,23 L22,20.9898374 C21.5338983,20.9898374 21.0833178,20.8963415 20.6483051,20.7093496 L20.6483051,20.7093496 Z" id="Shape"></path>
                            <path d="M2.37711864,11.4065041 C2.75,11.4065041 3.06848729,11.2818272 3.33262712,11.0325203 C3.59676695,10.7832134 3.72881356,10.4715447 3.72881356,10.097561 C3.72881356,9.72357724 3.59676695,9.41190854 3.33262712,9.16260163 C3.06848729,8.91329472 2.75,8.78861789 2.37711864,8.78861789 C2.00423729,8.78861789 1.69348729,8.91329472 1.44491525,9.16260163 C1.19634322,9.41190854 1.0720339,9.72357724 1.0720339,10.097561 C1.0720339,10.4715447 1.19634322,10.7832134 1.44491525,11.0325203 C1.69348729,11.2818272 2.00423729,11.4065041 2.37711864,11.4065041 L2.37711864,11.4065041 Z" id="Shape"></path>
                            <path d="M6.5720339,12.8556911 L8.90254237,11.8739837 C9.08898305,11.7493069 9.18220339,11.5779289 9.18220339,11.3597561 C9.18220339,11.1727642 9.12007203,11.0169533 8.99576271,10.8922764 C8.87145339,10.7675996 8.71610169,10.7052846 8.52966102,10.7052846 C8.43644068,10.7052846 8.35874153,10.7208516 8.29661017,10.7520325 L6.19915254,11.6869919 L3.07627119,11.6869919 C2.70338983,11.6869919 2.38490254,11.8194289 2.12076271,12.0843496 C1.85662288,12.3492703 1.72457627,12.6686992 1.72457627,13.0426829 L1.72457627,13.3699187 L3.16949153,16.5020325 C3.38702119,17.0006931 3.80651271,17.25 4.4279661,17.25 L8.20338983,17.25 L10.3940678,19.4004065 C10.5805085,19.5562175 10.7902542,19.6419533 11.0233051,19.6575203 C11.2563559,19.6730874 11.4661017,19.5873984 11.6525424,19.4004065 C12.0254237,18.9952419 12.0099025,18.6056911 11.6059322,18.2317073 L9.08898305,15.9410569 C8.99576271,15.847561 8.79380085,15.800813 8.48305085,15.800813 L5.91949153,15.800813 L4.75423729,12.949187 L6.15254237,12.949187 L6.5720339,12.8556911 L6.5720339,12.8556911 Z" id="Shape"></path>
                            <path d="M21.1610169,13.4634146 C21.0677966,11.655811 20.5162585,9.94175 19.5063559,8.32113821 C18.4964534,6.70052642 17.2457627,5.32926829 15.7542373,4.20731707 C14.2627119,3.08536585 12.6468771,2.15821341 10.9067797,1.42581301 C9.1666822,0.693506098 7.45762712,0.218219512 5.77966102,0 L13.1440678,18.5121951 L21.1610169,13.4634146 L21.1610169,13.4634146 Z M11.2330508,10.3780488 C10.9844788,10.3780488 10.8601695,10.253372 10.8601695,10.004065 C10.8601695,9.81707317 10.9223008,9.70801016 11.0466102,9.67682927 C11.3884025,9.55233943 11.9088983,9.45108333 12.6080508,9.37296748 C13.3072034,9.29503862 14.1772754,9.27166463 15.2182203,9.30284553 C16.2591653,9.33402642 17.284589,9.62227439 18.2944915,10.1676829 C19.3043941,10.7130915 20.0889831,11.5 20.6483051,12.5284553 C20.7104364,12.6531321 20.7415254,12.746628 20.7415254,12.8089431 C20.7415254,13.05825 20.6172161,13.1829268 20.3686441,13.1829268 C20.2132924,13.1829268 20.120072,13.1517459 20.0889831,13.0894309 C19.9957627,12.9336199 19.9103263,12.793376 19.8326271,12.6686992 C19.754928,12.5440224 19.5840551,12.3414634 19.3199153,12.0609756 C19.0557754,11.7804878 18.7838983,11.5389411 18.5042373,11.3363821 C18.2245763,11.1338232 17.843911,10.9156504 17.3622881,10.6819106 C16.8806653,10.4481707 16.3679534,10.2845528 15.8241525,10.1910569 C15.2803517,10.097561 14.620072,10.0586199 13.8432203,10.074187 C13.0663686,10.0897541 12.2584746,10.1910569 11.4194915,10.3780488 L11.2330508,10.3780488 L11.2330508,10.3780488 Z" id="Shape"></path>
                        </g>
                    </g>
                </g>
            </g>
        </g>
    </g>
</svg>