<?xml version="1.0" encoding="UTF-8" standalone="no"?>
<svg width="19px" height="25px" viewBox="0 0 19 25" version="1.1" xmlns="http://www.w3.org/2000/svg" xmlns:xlink="http://www.w3.org/1999/xlink">
    <!-- Generator: Sketch 3.6.1 (26313) - http://www.bohemiancoding.com/sketch -->
    <title>Shooting Copy@3x</title>
    <desc>Created with Sketch.</desc>
    <defs></defs>
    <g id="Page-1" stroke="none" stroke-width="1" fill="none" fill-rule="evenodd">
        <g id="assets-icon" transform="translate(-1200.000000, -107.000000)" fill="#B3B3B3">
            <g id="Shooting-Copy" transform="translate(1200.000000, 107.000000)">
                <g id="Capa_1">
                    <g id="XMLID_534_">
                        <path d="M8.35331832,10.165202 C7.59251289,10.7316162 6.50520175,10.7526768 5.72065664,10.2188384 C5.05753599,9.76833333 4.78776697,9.03808081 4.94213164,8.35676768 L3.04858028,8.51338384 L7.5976243,7.4860101 C8.1898099,7.35232323 8.54800637,6.81676768 8.39778762,6.28969697 C8.24751207,5.76186869 7.64510365,5.44464646 7.05200936,5.57777778 L2.50285175,6.60515152 L4.56536371,5.81954545 C4.33262403,5.58969697 4.16173246,5.31131313 4.07926832,5 L0.482650933,7.11974747 C0.0471017487,7.37116162 -0.158831403,7.93606061 0.14279876,8.41863636 C0.389963977,8.79585859 0.87185664,9.00469697 1.37027621,8.89242424 L2.85400582,8.55732323 C2.85400582,9.63141414 2.84571398,15.1436869 2.84571398,23.3576263 C2.84571398,24.0305556 3.4594243,24.5763636 4.21625419,24.5763636 C4.97308409,24.5763636 5.58679441,24.0305556 5.58679441,23.3576263 L5.58679441,15.2581313 L6.58863137,15.2581313 L6.58863137,23.3576263 C6.58863137,23.7270707 6.47226153,24.0685859 6.28489985,24.3707576 C6.49696669,24.4898485 6.73271642,24.5764141 7.00151996,24.5764141 C7.75834985,24.5764141 8.37200338,24.0306061 8.37200338,23.3576768 C8.37194659,16.9420707 8.35331832,10.83 8.35331832,10.165202 L8.35331832,10.165202 Z" id="XMLID_535_"></path>
                        <path d="M4.18505272,4.29222222 C4.4847519,3.58121212 5.24976005,3.07252525 6.15374185,3.07252525 L8.11845543,3.07252525 C8.20483832,2.84085859 8.26259728,2.59732323 8.26259728,2.33994949 C8.26259728,1.04752525 7.08458696,0 5.63067391,0 C4.17783995,0 3,1.04752525 3,2.34 C3,3.15671717 3.47155625,3.87378788 4.18505272,4.29222222 L4.18505272,4.29222222 Z" id="XMLID_536_"></path>
                        <path d="M9,9.47494949 C9.01027962,9.47494949 9.02163832,9.47873737 9.03186114,9.47873737 C9.23063832,9.47873737 9.42827962,9.43151515 9.6043962,9.33676768 L13.4986682,7.24313131 C13.6190704,7.17853535 13.7148242,7.09338384 13.7960957,7 L11.128222,7 L9,9.47494949 L9,9.47494949 Z" id="XMLID_537_"></path>
                        <path d="M15.756912,4.16823232 C15.5736394,3.89308081 15.2503141,3.69944444 14.8641753,3.69944444 L6.05431413,3.69944444 C5.47161304,3.69944444 5,4.11929293 5,4.63707071 C5,5.00515152 5.24404158,5.31646465 5.59110652,5.46934343 L6.79887663,5.00969697 C7.77595163,4.63747475 8.8665,5.08565657 9.2505375,5.88277778 C9.74270978,6.90232323 8.99303587,8.07712121 7.70711793,8.19065657 L6.03687853,8.32848485 C5.77136902,8.73141414 5.86184103,9.25146465 6.28915516,9.54262626 C6.75457772,9.8589899 7.4156538,9.77656566 7.76680788,9.36727273 L11.0297636,5.57464646 C15.8691927,5.57464646 9.07447772,5.57464646 14.8642889,5.57464646 C15.2504277,5.57464646 15.5736962,5.3810101 15.7570255,5.10580808 C17.3632019,5.10580808 16.8276652,5.10580808 18.3679611,5.10580808 C18.6594253,5.10580808 18.8952318,4.89616162 18.8952318,4.6370202 C18.8951182,4.37792929 18.6592549,4.16823232 18.3678476,4.16823232 C16.8017106,4.16823232 17.3972212,4.16823232 15.756912,4.16823232 Z" id="XMLID_538_"></path>
                    </g>
                </g>
            </g>
        </g>
    </g>
</svg>