<?xml version="1.0" encoding="UTF-8" standalone="no"?>
<svg width="24px" height="17px" viewBox="0 0 24 17" version="1.1" xmlns="http://www.w3.org/2000/svg" xmlns:xlink="http://www.w3.org/1999/xlink">
    <!-- Generator: Sketch 3.6.1 (26313) - http://www.bohemiancoding.com/sketch -->
    <title>Swimming Copy@3x</title>
    <desc>Created with Sketch.</desc>
    <defs></defs>
    <g id="Page-1" stroke="none" stroke-width="1" fill="none" fill-rule="evenodd">
        <g id="assets-icon" transform="translate(-1191.000000, -158.000000)" fill="#B3B3B3">
            <g id="Swimming-Copy" transform="translate(1191.000000, 158.000000)">
                <g id="Capa_1">
                    <g id="Group">
                        <path d="M3.04649682,3.56861111 L8.5955414,4.34638889 C8.78919745,4.8825 9.76496815,7.52138889 9.94843312,7.99361111 C9.94843312,7.99361111 9.94843312,7.99361111 9.94585987,7.99361111 C8.33821656,8.86027778 6.73057325,9.72416667 5.12292994,10.5908333 C5.68089172,10.4797222 6.24649682,10.4241667 6.81464968,10.4241667 C7.55859873,10.4241667 8.28726115,10.5213889 8.98280255,10.7130556 C10.3866242,11.1019444 11.655414,11.7241389 12.8808917,12.3269444 C13.9738854,12.8630556 15.0082803,13.3714167 16.0401274,13.6630833 C16.1853503,13.70475 16.3254777,13.7408611 16.4656051,13.7713889 C15.2426752,11.0408333 11.9535032,3.6825 11.3038217,2.06305556 C10.9980892,1.29916667 10.577707,1.01583333 9.98155414,0.9325 L3.46435669,0.0186111111 C2.56499363,-0.106388889 1.74206369,0.585277778 1.62486624,1.56583333 C1.51273885,2.54638889 2.14713376,3.44361111 3.04649682,3.56861111 L3.04649682,3.56861111 Z" id="Shape"></path>
                        <path d="M0.424840764,16.3297222 C0.605732484,16.4713889 0.812101911,16.5380556 1.01847134,16.5380556 C1.06433121,16.5380556 1.10764331,16.53525 1.15095541,16.5269444 C1.42101911,16.4880556 1.67579618,16.3325 1.84649682,16.0741667 C2.50636943,15.0713611 3.52802548,14.2825 4.71783439,13.8491389 C5.40063694,13.6019444 6.11401274,13.4769444 6.81464968,13.4769444 C9.35477707,13.4769444 11.533121,15.1325 13.8260892,16.08525 C15.0541146,16.5963611 16.3356433,16.9741389 17.7292739,16.9741389 C18.3152611,16.9741389 18.9216306,16.9075 19.5509299,16.7547222 C21.0312102,16.3991667 22.2999745,15.6325 23.217172,14.5574722 C23.4362803,14.2991389 23.6349809,14.0269167 23.8108025,13.73525 C24.1216306,13.2241389 23.9916943,12.53525 23.5229045,12.1963611 C23.3496561,12.0713611 23.1560255,12.0130278 22.9623949,12.0130278 C22.6311847,12.0130278 22.3076178,12.1880278 22.1114395,12.51025 C22.0324586,12.6407778 21.9458344,12.7657778 21.8515669,12.8880278 C21.2146242,13.7158056 20.2592102,14.31025 19.1127134,14.58525 C18.0553885,14.8380556 16.8885096,14.7630278 15.8464968,14.4686111 C14.7509554,14.1575 13.6910573,13.6380556 12.5649427,13.08525 C11.3674904,12.4991389 10.1318217,11.8908056 8.79171975,11.5186111 C8.15477707,11.3408333 7.48726115,11.2547222 6.81210191,11.2547222 C5.89235669,11.2547222 4.95732484,11.4185833 4.06815287,11.7408333 C3.2910828,12.0241667 2.57006369,12.4185833 1.92292994,12.9158333 C1.24012739,13.4408333 0.656687898,14.0658333 0.187898089,14.7769444 C0.157324841,14.8241667 0.131847134,14.8713889 0.108917197,14.9213889 C-0.112738854,15.4019444 0.00955414013,16.0047222 0.424840764,16.3297222 L0.424840764,16.3297222 Z" id="Shape"></path>
                        <ellipse id="Oval" cx="18.8757707" cy="7.25469444" rx="3.59490446" ry="3.91944444"></ellipse>
                    </g>
                </g>
            </g>
        </g>
    </g>
</svg>