<?xml version="1.0" encoding="UTF-8" standalone="no"?>
<svg width="25px" height="19px" viewBox="0 0 25 19" version="1.1" xmlns="http://www.w3.org/2000/svg" xmlns:xlink="http://www.w3.org/1999/xlink">
    <!-- Generator: Sketch 3.6.1 (26313) - http://www.bohemiancoding.com/sketch -->
    <title>Synchronized swimming@3x</title>
    <desc>Created with Sketch.</desc>
    <defs></defs>
    <g id="Page-1" stroke="none" stroke-width="1" fill="none" fill-rule="evenodd">
        <g id="assets-icon" transform="translate(-433.000000, -210.000000)" fill="#00D670">
            <g id="Synchronized-swimming" transform="translate(433.000000, 210.000000)">
                <g id="Capa_1">
                    <g id="Group">
                        <path d="M3.20815315,16.4371433 C3.34810811,16.2865335 3.635,16.2644055 3.78878378,16.3923659 L6.07301802,18.2972896 C6.66355856,18.7908841 7.53238739,18.7503933 8.0931982,18.2064604 L9.93720721,16.4206921 C10.0905405,16.2705457 10.414009,16.2528201 10.5777027,16.3862835 L12.9519369,18.3139146 C13.5286937,18.7819634 14.3957658,18.7753018 14.9690991,18.2978689 L17.2528829,16.3918445 C17.4251802,16.248939 17.7718919,16.2510823 17.9425225,16.396247 L20.1724775,18.2868049 C20.7591441,18.7858445 21.6292342,18.7565335 22.1944144,18.2192622 L24.7396396,15.7996585 C25.0092793,15.5431585 25.0657207,15.0540823 24.8667117,14.7078537 C24.6677027,14.3605244 24.2873874,14.2874207 24.0177027,14.5445 L21.4724324,16.9635244 C21.319955,17.1085732 21.0007658,17.1207957 20.8413964,16.9845518 L18.610991,15.0934726 C18.0372523,14.6059604 17.1684234,14.6003994 16.5921171,15.0824085 L14.3078829,16.9884329 C14.1325225,17.1335976 13.7759009,17.1368415 13.5988739,16.9939939 L11.2250901,15.0663628 C10.6328378,14.5866707 9.76486486,14.6326067 9.20536036,15.1738171 L7.36175676,16.9595854 C7.20927928,17.1079939 6.89265766,17.1219543 6.73243243,16.9878537 L4.4486036,15.0829299 C3.84815315,14.5804726 2.97932432,14.647436 2.42927928,15.2380579 L0.218378378,17.6092348 C-0.0391891892,17.8851982 -0.0736486486,18.376997 0.140405405,18.7082805 C0.261036036,18.8932409 0.433738739,18.9891098 0.607342342,18.9891098 C0.744324324,18.9891098 0.882567568,18.9292713 0.99545045,18.8079726 L3.20815315,16.4371433 L3.20815315,16.4371433 Z" id="Shape"></path>
                        <path d="M8.71004505,9.70314939 L8.71004505,11.2723872 L10.5910811,11.2723872 C11.0666216,11.2723872 11.3302703,10.9212348 11.3302703,10.4880579 C11.3302703,10.0543598 11.0670721,9.70314939 10.5910811,9.70314939 L8.71004505,9.70314939 L8.71004505,9.70314939 Z" id="Shape"></path>
                        <path d="M7.11626126,0.95220122 C6.99265766,3.16182012 6.70792793,8.2175 6.52612613,9.37852744 C6.51581081,9.44664939 6.27072072,11.0696433 6.3168018,12.6594451 L6.38918919,15.1786829 L7.02797297,15.7115518 L8.45328829,14.3311555 L8.45328829,0.955560976 C8.45328829,0.343448171 8.16725225,0.0504542683 7.81495495,0.0504542683 C7.46261261,0.0503963415 7.15031532,0.342347561 7.11626126,0.95220122 L7.11626126,0.95220122 Z" id="Shape"></path>
                        <path d="M5.13833333,11.2723872 L5.97094595,11.2723872 C6.01702703,10.6481098 6.07990991,9.90977439 6.11441441,9.65553354 L3.52306306,9.57078659 L3.47225225,9.57020732 C2.86788288,9.57020732 2.41216216,10.1512713 2.41216216,10.6115579 C2.41216216,11.3987256 2.60815315,11.7254909 2.85585586,12.1392622 C2.9040991,12.220128 2.95536036,12.304875 3.00788288,12.3997012 L3.60099099,13.4593567 C4.07436937,13.4421524 4.55036036,13.5856372 4.93630631,13.9079421 L5.96923423,14.7699512 L5.92184685,13.1236707 C5.91923423,13.0338262 5.91752252,12.9435762 5.91666667,12.8538476 C5.69441441,12.5691951 5.39675676,12.2163049 4.99918919,11.7775671 C4.80923423,11.5682774 4.78166667,11.4335976 4.79369369,11.392122 C4.80536036,11.3504726 4.89279279,11.2723872 5.13833333,11.2723872 L5.13833333,11.2723872 Z" id="Shape"></path>
                        <path d="M24.6156306,10.4880579 C24.6156306,10.0543598 24.3524775,9.70314939 23.8764865,9.70314939 L21.9954505,9.70314939 L21.9954505,11.2723872 L23.8764865,11.2723872 C24.352027,11.2723872 24.6156306,10.9211768 24.6156306,10.4880579 L24.6156306,10.4880579 Z" id="Shape"></path>
                        <path d="M19.8115315,9.37852744 C19.8012162,9.44664939 19.5561261,11.0696433 19.6022072,12.6594451 L19.6745495,15.1786829 L20.3133784,15.7115518 L21.7387387,14.3311555 L21.7387387,0.955560976 C21.7387387,0.343448171 21.4527027,0.0504542683 21.1003604,0.0504542683 C20.748018,0.0504542683 20.4357207,0.342347561 20.4016667,0.95220122 C20.2780631,3.16182012 19.9933333,8.2175 19.8115315,9.37852744 Z" id="Shape"></path>
                        <path d="M18.4236937,11.2723872 L19.2563063,11.2723872 C19.3023874,10.6481098 19.3648649,9.90977439 19.3997748,9.65553354 L16.8084234,9.57078659 L16.7571622,9.57020732 C16.1528378,9.57020732 15.6971171,10.1512713 15.6971171,10.6115579 C15.6971171,11.3987256 15.8931081,11.7254909 16.1408108,12.1392622 C16.1890541,12.220128 16.2403153,12.304875 16.2928378,12.3997012 L16.8864414,13.4593567 C17.3598198,13.4421524 17.8357658,13.5856372 18.2217568,13.9079421 L19.2546847,14.7699512 L19.2072973,13.1236707 C19.2046847,13.0338262 19.202973,12.9435762 19.2021622,12.8538476 C18.9798649,12.5691951 18.6822523,12.2163049 18.2846847,11.7775671 C18.0946847,11.5682774 18.0671622,11.4335976 18.0791892,11.392122 C18.0907207,11.3504726 18.1781982,11.2723872 18.4236937,11.2723872 L18.4236937,11.2723872 Z" id="Shape"></path>
                    </g>
                </g>
            </g>
        </g>
    </g>
</svg>