<?xml version="1.0" encoding="UTF-8" standalone="no"?>
<svg width="23px" height="21px" viewBox="0 0 23 21" version="1.1" xmlns="http://www.w3.org/2000/svg" xmlns:xlink="http://www.w3.org/1999/xlink">
    <!-- Generator: Sketch 3.6.1 (26313) - http://www.bohemiancoding.com/sketch -->
    <title>Table tennis@3x</title>
    <desc>Created with Sketch.</desc>
    <defs></defs>
    <g id="Page-1" stroke="none" stroke-width="1" fill="none" fill-rule="evenodd">
        <g id="assets-icon" transform="translate(-438.000000, -254.000000)" fill="#00D670">
            <g id="Table-tennis" transform="translate(438.000000, 254.000000)">
                <g id="Capa_1">
                    <g id="XMLID_423_">
                        <path id="XMLID_424_" d="M11.0412906,7.66392983 C11.2090823,7.72885702 11.3778383,7.78164828 11.5412906,7.85931818 L11.5109145,7.35931818 L11.0412906,7.66392983 L11.0412906,7.66392983 Z"></path>
                        <path d="M13.0362525,3.66586364 C14.0504649,3.58868182 14.8092345,2.71522727 14.7297715,1.71431818 C14.6506313,0.714954545 13.7649699,-0.0317272727 12.7499739,0.0454545455 C11.7365912,0.1235 10.9786974,0.997681818 11.0581142,1.997 C11.1364709,2.99722727 12.0229619,3.74463636 13.0362525,3.66586364 L13.0362525,3.66586364 Z" id="XMLID_425_"></path>
                        <path d="M16.894491,20.2508636 C17.1107094,20.7009545 17.5650862,20.965 18.0392365,20.965 C18.2205631,20.965 18.4046092,20.9268182 18.5797134,20.8455455 C19.2112685,20.5505909 19.4810461,19.8065 19.1824148,19.1832273 L16.6230541,13.8470455 L13.8227234,13.8470455 L16.894491,20.2508636 L16.894491,20.2508636 Z" id="XMLID_426_"></path>
                        <path d="M6.43714228,19.0614091 C6.07006413,19.6480455 6.2542024,20.4165455 6.84911423,20.7789091 C7.0562986,20.9048182 7.28565331,20.965 7.51270341,20.965 C7.93698196,20.965 8.35139679,20.7545 8.59070741,20.3727727 L12.6771022,13.8470455 L9.70249699,13.8470455 L6.43714228,19.0614091 L6.43714228,19.0614091 Z" id="XMLID_427_"></path>
                        <path d="M21.9044349,10.935 L5.40075952,10.935 C4.81815431,10.935 4.34621643,11.4005909 4.34621643,11.975 C4.34621643,12.5494091 4.8182004,13.0149545 5.40075952,13.0149545 L21.9044349,13.0149545 C22.4868557,13.0149545 22.958978,12.5494091 22.958978,11.975 C22.958978,11.4005909 22.4868557,10.935 21.9044349,10.935 L21.9044349,10.935 Z" id="XMLID_428_"></path>
                        <path d="M11.3502465,8.93309091 C11.3502465,8.48786364 10.9844589,8.12722727 10.5330321,8.12722727 C10.081513,8.12722727 9.71572545,8.48786364 9.71572545,8.93309091 C9.71572545,9.37831818 10.081513,9.739 10.5330321,9.739 C10.9844589,9.73904545 11.3502465,9.37831818 11.3502465,8.93309091 L11.3502465,8.93309091 Z" id="XMLID_429_"></path>
                        <path d="M21.4660982,4.62777273 C21.2873066,4.081 20.6908277,3.78209091 20.1388737,3.95759091 L17.0258076,4.94872727 L13.8238758,4.42795455 C13.8238758,4.42795455 12.7095972,4.467 12.4500982,4.48727273 C11.8107535,4.536 10.24998,5.44595455 8.26492786,6.44286364 L5.98110621,6.44286364 C5.83033868,6.44286364 5.68828257,6.47613636 5.55848697,6.53304545 L4.22301202,5.90909091 C4.25389379,5.15181818 3.77393587,4.36709091 2.94681162,3.96236364 C1.87332465,3.43581818 0.629665331,3.74954545 0.171186373,4.662 C-0.288537074,5.57595455 0.209488978,6.74104545 1.28343687,7.26590909 C2.13941483,7.68590909 3.09504409,7.56322727 3.68373347,7.0375 L4.95707615,7.63318182 C5.03368136,8.13281818 5.45261323,8.52272727 5.98106012,8.52272727 L8.51820441,8.52272727 C8.65362325,8.52272727 8.78650701,8.49468182 8.91127856,8.44390909 C9.1233487,7.75913636 9.76891583,7.26127273 10.5330321,7.26127273 C11.4695331,7.26127273 12.2284409,8.00936364 12.2284409,8.933 C12.2284409,9.38863636 12.043519,9.80140909 11.7438737,10.1029545 L15.1630381,10.1029545 L14.8957034,6.71013636 L16.9351904,7.04159091 C16.992022,7.05054545 17.0493607,7.05536364 17.106515,7.05536364 C17.2161222,7.05536364 17.3256834,7.03831818 17.4303126,7.00509091 L20.7863768,5.93668182 C21.3409118,5.76040909 21.6452585,5.17468182 21.4660982,4.62777273 L21.4660982,4.62777273 Z" id="XMLID_430_"></path>
                    </g>
                </g>
            </g>
        </g>
    </g>
</svg>