<?xml version="1.0" encoding="UTF-8" standalone="no"?>
<svg width="24px" height="21px" viewBox="0 0 24 21" version="1.1" xmlns="http://www.w3.org/2000/svg" xmlns:xlink="http://www.w3.org/1999/xlink">
    <!-- Generator: Sketch 3.6.1 (26313) - http://www.bohemiancoding.com/sketch -->
    <title>Kickboxing@3x</title>
    <desc>Created with Sketch.</desc>
    <defs></defs>
    <g id="Page-1" stroke="none" stroke-width="1" fill="none" fill-rule="evenodd">
        <g id="assets-icon" transform="translate(-440.000000, -292.000000)" fill="#00D670">
            <g id="Kickboxing" transform="translate(440.000000, 292.000000)">
                <g id="Capa_1">
                    <g id="Group">
                        <path d="M20.0105922,14.2667511 C20.0823687,14.6864356 20.443933,14.9816524 20.8521117,14.9816524 C20.899933,14.9816524 20.9491397,14.9773262 20.9986592,14.9691695 C21.4640894,14.8881438 21.7756425,14.441691 21.6952849,13.9728863 L20.7439553,8.43109442 C20.7162011,8.26687983 20.6409385,8.11478755 20.528581,7.9923927 L15.8783017,2.93026609 C15.5577654,2.58119742 15.0163128,2.56096352 14.6705698,2.88416524 C14.3244246,3.20736695 14.3039106,3.75291631 14.6248939,4.10193991 L17.1309944,6.83013734 L15.0176089,7.56572318 L13.0085363,3.66454506 C13.379933,3.3758176 13.4517095,2.83973176 13.1683575,2.46227253 C12.9452961,2.16534335 12.5687598,2.05763948 12.2345475,2.16232403 L11.5272402,0.78894206 C11.2007151,0.155066524 10.426324,-0.0918862661 9.79852514,0.237804721 C9.16987709,0.567045064 8.92496089,1.34701931 9.25148603,1.98089485 L10.1357318,3.69771245 L8.59418994,4.87542489 L6.87785475,4.14542704 C6.75776536,4.09414378 6.63298324,4.07562232 6.5107486,4.08075966 L6.50989944,4.07688412 L6.49023464,4.08206652 C6.38551955,4.08896137 6.28424581,4.11437768 6.18936313,4.15831545 L3.09859218,4.94130901 C2.808,4.96411159 2.53573184,5.13265236 2.39687151,5.4153412 L0.089027933,10.1138884 C-0.120402235,10.5405129 0.0522905028,11.057221 0.475396648,11.2687983 C0.597184358,11.3299506 0.726703911,11.3583863 0.85403352,11.3583863 C1.16858101,11.3583863 1.47159777,11.1825901 1.6203352,10.8792167 L3.35334078,7.35117167 L4.01577654,10.5857124 L2.50837989,16.1593648 L0.901899441,19.0698476 C0.557407821,19.6934034 0.779664804,20.4807232 1.39848045,20.8280794 C1.59593296,20.9392532 1.80960894,20.9918433 2.02073743,20.9918433 C2.47119553,20.9918433 2.90797765,20.7518305 3.1421676,20.327324 L4.82471508,17.2798004 C4.87512849,17.1888605 4.91405587,17.091927 4.94140782,16.991118 L6.12947486,12.5990987 L9.50189944,15.8664013 L9.63267039,18.8044185 C9.66341899,19.497824 10.2310168,20.0390472 10.9126704,20.0390472 C10.931933,20.0390472 10.9515531,20.0385966 10.9712179,20.0377403 C11.6789274,20.0058798 12.2264134,19.4012511 12.1947709,18.6881073 L12.0413408,15.2337876 C12.0268156,14.9028348 11.8862123,14.5895472 11.6490279,14.3598541 L7.93215642,10.7585794 L6.92782123,6.03691416 L8.38560894,6.65704506 C8.49246927,6.70274034 8.60527374,6.7246867 8.71767598,6.7246867 C8.90100559,6.7246867 9.08268156,6.66524678 9.23392179,6.54974678 L10.9357318,5.24963948 L13.4713296,10.1725622 L13.4713296,19.4655129 C13.4713296,20.179603 14.0452737,20.7583197 14.7534749,20.7583197 C15.4616313,20.7583197 16.0356201,20.179603 16.0356201,19.4655129 L16.0356201,11.0351845 L19.3187039,10.2319571 L20.0105922,14.2667511 L20.0105922,14.2667511 Z" id="Shape"></path>
                        <ellipse id="Oval" cx="3.62596648" cy="2.04646352" rx="2.01381006" ry="2.03055579"></ellipse>
                        <ellipse id="Oval" cx="21.9491844" cy="5.93430258" rx="2.01381006" ry="2.03055579"></ellipse>
                    </g>
                </g>
            </g>
        </g>
    </g>
</svg>