<?xml version="1.0" encoding="UTF-8" standalone="no"?>
<svg width="23px" height="23px" viewBox="0 0 23 23" version="1.1" xmlns="http://www.w3.org/2000/svg" xmlns:xlink="http://www.w3.org/1999/xlink">
    <!-- Generator: Sketch 3.6.1 (26313) - http://www.bohemiancoding.com/sketch -->
    <title>Tennis Copy@3x</title>
    <desc>Created with Sketch.</desc>
    <defs></defs>
    <g id="Page-1" stroke="none" stroke-width="1" fill="none" fill-rule="evenodd">
        <g id="assets-icon" transform="translate(-1200.000000, -321.000000)" fill="#B3B3B3">
            <path d="M1221.61913,324.59775 C1221.16737,324.332506 1220.65487,324.192191 1220.13696,324.192191 C1218.56076,324.192191 1217.29978,325.387623 1217.26603,326.913605 L1217.21135,329.386473 C1215.17472,329.294066 1213.20325,328.689619 1211.47887,327.621475 L1210.42853,326.970868 C1210.15012,326.824695 1209.88273,326.757379 1209.85015,326.746975 C1208.73239,326.390286 1207.62727,326.834049 1207.21079,327.842745 L1204.72367,333.866154 C1204.62693,334.100275 1204.47044,334.675873 1204.46729,335.086677 C1204.44355,337.361093 1203.26136,339.469492 1201.30478,340.726645 L1200.60566,341.175829 C1199.98262,341.576142 1199.81251,342.38997 1200.22564,342.993456 C1200.63887,343.597117 1201.47886,343.761998 1202.1019,343.361597 L1202.80111,342.912327 C1204.83413,341.606041 1206.2626,339.63516 1206.8611,337.401658 C1208.79863,338.844499 1210.46201,340.577501 1211.81927,342.569626 L1212.13621,343.03472 C1212.39647,343.416762 1212.82757,343.623869 1213.26715,343.623869 C1213.52317,343.623869 1213.78199,343.55358 1214.01157,343.406795 C1214.63551,343.007881 1214.80743,342.194403 1214.39565,341.590042 L1214.0788,341.124948 C1212.55214,338.884102 1210.68013,336.935864 1208.49947,335.314328 L1209.4621,332.982999 C1211.03199,334.166367 1212.80952,335.093846 1214.69508,335.702665 L1215.12274,335.840794 C1215.26479,335.886692 1215.40909,335.90846 1215.55104,335.90846 C1216.11768,335.90846 1216.64597,335.560951 1216.83503,335.011492 C1216.97942,334.592033 1216.89188,334.170388 1216.64109,333.838965 L1217.76626,332.059017 L1218.00621,332.059017 C1218.75379,332.059017 1219.35987,331.453958 1219.35987,330.729739 C1219.35987,330.677722 1219.3559,330.617749 1219.34985,330.567306 L1221.51282,329.412088 C1222.4213,328.92881 1222.97712,328.038574 1222.99932,327.034599 C1223.02143,326.030712 1222.50559,325.118271 1221.61913,324.59775 L1221.61913,324.59775 Z M1210.61948,330.180368 C1212.34946,331.140981 1214.25721,331.740795 1216.23256,331.94458 L1215.45764,333.18285 C1213.64924,332.585571 1211.96078,331.642443 1210.51678,330.429089 L1210.61948,330.180368 L1210.61948,330.180368 Z M1220.86126,328.258182 L1218.56338,329.480716 L1218.61942,326.941581 C1218.63936,326.041466 1219.40671,325.503547 1220.13696,325.503547 C1220.4113,325.503547 1220.67382,325.576022 1220.9173,325.719047 C1221.38522,325.993907 1221.65757,326.474388 1221.64584,327.004351 C1221.63411,327.534314 1221.34091,328.00308 1220.86126,328.258182 L1220.86126,328.258182 Z M1208.77336,323.403541 C1208.77336,322.076099 1209.88417,321 1211.25453,321 C1212.62479,321 1213.7356,322.076099 1213.7356,323.403541 C1213.7356,324.730984 1212.62479,325.807083 1211.25453,325.807083 C1209.88417,325.807083 1208.77336,324.730984 1208.77336,323.403541 L1208.77336,323.403541 Z" id="Tennis-Copy"></path>
        </g>
    </g>
</svg>