<?xml version="1.0" encoding="UTF-8" standalone="no"?>
<svg width="23px" height="23px" viewBox="0 0 23 23" version="1.1" xmlns="http://www.w3.org/2000/svg" xmlns:xlink="http://www.w3.org/1999/xlink">
    <!-- Generator: Sketch 3.6.1 (26313) - http://www.bohemiancoding.com/sketch -->
    <title>Tennis@3x</title>
    <desc>Created with Sketch.</desc>
    <defs></defs>
    <g id="Page-1" stroke="none" stroke-width="1" fill="none" fill-rule="evenodd">
        <g id="assets-icon" transform="translate(-443.000000, -333.000000)" fill="#00D670">
            <path d="M464.619127,336.59775 C464.167366,336.332506 463.654871,336.192191 463.136962,336.192191 C461.560762,336.192191 460.299785,337.387623 460.266033,338.913605 L460.211346,341.386473 C458.174722,341.294066 456.203254,340.689619 454.478874,339.621475 L453.428526,338.970868 C453.150123,338.824695 452.882731,338.757379 452.850153,338.746975 C451.732392,338.390286 450.627266,338.834049 450.21079,339.842745 L447.723669,345.866154 C447.626928,346.100275 447.470445,346.675873 447.467286,347.086677 C447.443552,349.361093 446.261357,351.469492 444.30478,352.726645 L443.60566,353.175829 C442.982617,353.576142 442.812507,354.38997 443.225644,354.993456 C443.63887,355.597117 444.47886,355.761998 445.101904,355.361597 L445.801113,354.912327 C447.834127,353.606041 449.262598,351.63516 449.861095,349.401658 C451.798631,350.844499 453.462006,352.577501 454.819274,354.569626 L455.136211,355.03472 C455.396474,355.416762 455.827569,355.623869 456.267147,355.623869 C456.523169,355.623869 456.781988,355.55358 457.011569,355.406795 C457.635515,355.007881 457.807429,354.194403 457.395646,353.590042 L457.0788,353.124948 C455.552145,350.884102 453.680126,348.935864 451.499473,347.314328 L452.462104,344.982999 C454.031987,346.166367 455.80952,347.093846 457.695076,347.702665 L458.122741,347.840794 C458.264785,347.886692 458.409085,347.90846 458.551039,347.90846 C459.11768,347.90846 459.645968,347.560951 459.835029,347.011492 C459.979419,346.592033 459.891882,346.170388 459.641095,345.838965 L460.766255,344.059017 L461.006214,344.059017 C461.753794,344.059017 462.359872,343.453958 462.359872,342.729739 C462.359872,342.677722 462.355901,342.617749 462.349855,342.567306 L464.51282,341.412088 C465.421305,340.92881 465.977117,340.038574 465.999317,339.034599 C466.021427,338.030712 465.505593,337.118271 464.619127,336.59775 L464.619127,336.59775 Z M453.619482,342.180368 C455.349457,343.140981 457.257212,343.740795 459.232561,343.94458 L458.457636,345.18285 C456.649239,344.585571 454.960776,343.642443 453.516784,342.429089 L453.619482,342.180368 L453.619482,342.180368 Z M463.861259,340.258182 L461.563379,341.480716 L461.619421,338.941581 C461.639365,338.041466 462.406708,337.503547 463.136962,337.503547 C463.411303,337.503547 463.673823,337.576022 463.917301,337.719047 C464.385215,337.993907 464.657571,338.474388 464.645839,339.004351 C464.634108,339.534314 464.340905,340.00308 463.861259,340.258182 L463.861259,340.258182 Z M451.773363,335.403541 C451.773363,334.076099 452.884175,333 454.254528,333 C455.624791,333 456.735603,334.076099 456.735603,335.403541 C456.735603,336.730984 455.624791,337.807083 454.254528,337.807083 C452.884175,337.807083 451.773363,336.730984 451.773363,335.403541 L451.773363,335.403541 Z" id="Tennis"></path>
        </g>
    </g>
</svg>