<?xml version="1.0" encoding="UTF-8" standalone="no"?>
<svg width="24px" height="24px" viewBox="0 0 24 24" version="1.1" xmlns="http://www.w3.org/2000/svg" xmlns:xlink="http://www.w3.org/1999/xlink">
    <!-- Generator: Sketch 3.6.1 (26313) - http://www.bohemiancoding.com/sketch -->
    <title>Beach volleyball@3x</title>
    <desc>Created with Sketch.</desc>
    <defs></defs>
    <g id="Page-1" stroke="none" stroke-width="1" fill="none" fill-rule="evenodd">
        <g id="assets-icon" transform="translate(-444.000000, -425.000000)" fill="#00D670">
            <g id="Beach-volleyball" transform="translate(444.000000, 425.000000)">
                <g id="Capa_1">
                    <g id="Group">
                        <path d="M11.177931,5.66841379 C11.5947586,5.87503448 12.0402759,5.97958621 12.5023448,5.97958621 C13.648,5.97958621 14.6753103,5.34234483 15.1834483,4.31668966 C15.537931,3.60137931 15.5922759,2.79062069 15.3368276,2.03393103 C15.0813793,1.27724138 14.5467586,0.665655172 13.8314483,0.311172414 C13.4148966,0.104551724 12.9691034,0 12.5070345,0 C11.3616552,0 10.3343448,0.637241379 9.8262069,1.66289655 C9.09489655,3.13986207 9.70124138,4.93682759 11.177931,5.66841379 L11.177931,5.66841379 Z" id="Shape"></path>
                        <path d="M19.4965517,7.91310345 L12.6353103,7.12 C12.598069,7.11558621 12.5616552,7.11751724 12.5249655,7.11834483 L8.89986207,5.32275862 C8.88386207,5.31365517 8.87006897,5.30206897 8.85324138,5.2937931 L2.17848276,1.98703448 C2.06537931,1.93103448 1.93875862,1.90151724 1.81268966,1.90151724 C1.49958621,1.90151724 1.208,2.08193103 1.06951724,2.36137931 L0.793931034,2.91751724 C0.696,3.11503448 0.681103448,3.33958621 0.752,3.54951724 C0.822896552,3.75944828 0.970482759,3.92882759 1.16827586,4.02648276 L7.03668966,6.93324138 L3.92717241,13.2113103 C3.92689655,13.2118621 3.92689655,13.2124138 3.92662069,13.2126897 L0.355862069,20.4215172 C0.0182068966,21.1031724 0.298206897,21.9321379 0.979310345,22.2697931 L1.0662069,22.3128276 C1.25737931,22.4074483 1.46234483,22.4557241 1.67531034,22.4557241 C2.19751724,22.4557241 2.68386207,22.1547586 2.91448276,21.6891034 L6.11862069,15.2206897 L6.64441379,15.4811034 L3.44055172,21.9492414 C3.10289655,22.6308966 3.38289655,23.4598621 4.06427586,23.7975172 L4.15117241,23.8405517 C4.34206897,23.9351724 4.54703448,23.9831724 4.76,23.9831724 C5.2822069,23.9831724 5.76882759,23.6824828 5.99944828,23.2168276 L9.632,15.8830345 L9.632,15.8827586 L12.7933793,9.49986207 L19.1517241,10.2347586 C19.1837241,10.2383448 19.2154483,10.2402759 19.2471724,10.2402759 C19.6628966,10.2402759 20.0253793,9.93158621 20.0904828,9.5222069 L20.1988966,8.83862069 C20.2336552,8.61875862 20.1795862,8.40082759 20.046069,8.22510345 C19.9131034,8.04937931 19.7177931,7.93848276 19.4965517,7.91310345 L19.4965517,7.91310345 Z" id="Shape"></path>
                        <path d="M21.4571034,2.0982069 C20.1815172,2.0982069 19.144,3.136 19.144,4.41158621 C19.144,5.68717241 20.1815172,6.72496552 21.4571034,6.72496552 C22.7326897,6.72496552 23.7704828,5.68717241 23.7704828,4.41158621 C23.7704828,3.136 22.7326897,2.0982069 21.4571034,2.0982069 L21.4571034,2.0982069 Z" id="Shape"></path>
                    </g>
                </g>
            </g>
        </g>
    </g>
</svg>