<?xml version="1.0" encoding="UTF-8" standalone="no"?>
<svg width="20px" height="24px" viewBox="0 0 20 24" version="1.1" xmlns="http://www.w3.org/2000/svg" xmlns:xlink="http://www.w3.org/1999/xlink">
    <!-- Generator: Sketch 3.6.1 (26313) - http://www.bohemiancoding.com/sketch -->
    <title>Indoor Volleyball@3x</title>
    <desc>Created with Sketch.</desc>
    <defs></defs>
    <g id="Page-1" stroke="none" stroke-width="1" fill="none" fill-rule="evenodd">
        <g id="assets-icon" transform="translate(-442.000000, -482.000000)" fill="#00D670">
            <g id="Indoor-Volleyball" transform="translate(442.000000, 482.000000)">
                <g id="Capa_1">
                    <g id="Group">
                        <path d="M10.3450935,4.76958462 C11.6445327,4.3128 12.311215,2.90136923 11.8523364,1.63209231 C11.384486,0.353492308 9.96303738,-0.316476923 8.66588785,0.146953846 C7.36915888,0.597553846 6.70378505,2.01336923 7.16046729,3.29372308 C7.6246729,4.56170769 9.05191589,5.2308 10.3450935,4.76958462 L10.3450935,4.76958462 Z" id="Shape"></path>
                        <path d="M0.234345794,13.6865538 C0.297336449,13.8101538 0.333971963,13.9143231 0.40546729,13.9946308 C0.515420561,14.1980769 0.656588785,14.3839385 0.817476636,14.5445538 C0.856775701,14.5763077 0.893411215,14.5988308 0.932757009,14.6305846 L3.0588785,17.1820154 L1.01546729,21.6462462 C0.660233645,22.4185846 1.00607477,23.3264308 1.79925234,23.6786308 C2.57588785,24.0303692 3.50037383,23.6879077 3.84939252,22.9111385 L6.2967757,17.5840615 C6.32892523,17.5037538 6.32626168,17.4335538 6.34906542,17.3598923 C6.38303738,17.2491231 6.41878505,17.1475846 6.4232243,17.0381538 C6.42411215,16.9352769 6.40939252,16.8408923 6.39462617,16.7415692 C6.38074766,16.6470923 6.37537383,16.5451385 6.3432243,16.4564308 C6.30570093,16.3522615 6.24093458,16.2609231 6.18859813,16.1607231 C7.1511215,16.5429231 8.06668224,16.9220308 8.50771028,17.1012462 C8.7896729,18.2902615 9.85542056,22.8100615 9.85672897,22.8197538 C10.0645327,23.6327077 10.8804673,24.1341231 11.718271,23.9465077 C12.5516355,23.7435231 13.0762617,22.9234615 12.8867757,22.0968462 L11.3567757,15.6306462 C11.2414953,15.1447385 10.905514,14.7444462 10.4300467,14.5542 L6.22700935,12.8387077 L7.01654206,12.0372462 L15.7206542,13.6207846 C15.8033645,13.6357846 15.8846729,13.6428923 15.965514,13.6428923 C16.5374766,13.6428923 17.0491121,13.2774462 17.2314486,12.7376769 C17.2756542,12.6909231 17.3185514,12.6437077 17.3556542,12.5889692 C17.7354673,12.0319846 17.5826168,11.2878923 17.0258879,10.9224462 L8.47728972,5.2776 C7.80257009,4.83184615 6.78864486,4.93029231 6.21443925,5.49784615 L0.791962617,10.8517846 C0.153878505,11.4943846 -0.0869626168,12.3876462 0.0814953271,13.2094615 C0.102943925,13.3749692 0.155233645,13.5365077 0.234345794,13.6865538 L0.234345794,13.6865538 Z M9.91341121,9.09613846 L11.5242991,10.1651077 L9.26504673,9.7542 L9.91341121,9.09613846 L9.91341121,9.09613846 Z" id="Shape"></path>
                        <ellipse id="Oval" cx="17.7690187" cy="7.13829231" rx="2.18728972" ry="2.16036923"></ellipse>
                    </g>
                </g>
            </g>
        </g>
    </g>
</svg>