<?xml version="1.0" encoding="UTF-8" standalone="no"?>
<svg width="24px" height="19px" viewBox="0 0 24 19" version="1.1" xmlns="http://www.w3.org/2000/svg" xmlns:xlink="http://www.w3.org/1999/xlink">
    <!-- Generator: Sketch 3.6.1 (26313) - http://www.bohemiancoding.com/sketch -->
    <title>Water polo Copy@3x</title>
    <desc>Created with Sketch.</desc>
    <defs></defs>
    <g id="Page-1" stroke="none" stroke-width="1" fill="none" fill-rule="evenodd">
        <g id="assets-icon" transform="translate(-1206.000000, -514.000000)" fill="#B3B3B3">
            <g id="Water-polo-Copy" transform="translate(1206.000000, 514.000000)">
                <g id="Capa_1">
                    <g id="XMLID_27_">
                        <path d="M2.11640323,16.1738355 C2.71345161,15.599635 3.47003226,15.2668663 4.28051613,15.183491 L4.31085484,12.486126 C4.15974194,12.3685116 2.44296774,10.6218792 2.30893548,10.4857532 L4.55477419,11.8292828 C4.76206452,11.9528072 5.0021129,11.9847018 5.22179032,11.9331234 L8.82590323,11.0855476 C9.31301613,10.9706684 9.6153871,10.4790129 9.50240323,9.98740617 C9.3885,9.49540874 8.90303226,9.18818509 8.41524194,9.30457841 L5.16493548,10.0692185 L3.23230645,8.91285604 C4.58603226,9.31122108 4.30146774,9.22745501 4.9631129,9.42297429 L7.13656452,8.91163496 L9.06677419,7.14961697 C9.43693548,6.81098715 9.46664516,6.23287918 9.13074194,5.8584473 C8.7948871,5.48367352 8.22120968,5.45568638 7.85124194,5.79358355 L5.09017742,8.31394087 L3.19417742,7.68938303 C3.16543548,7.67956555 2.70953226,7.59418766 2.54583871,7.59418766 L1.79854839,7.59418766 C0.805016129,7.59418766 0,8.40718252 0,9.40968895 L0,15.8226041 C0.695080645,15.5158201 1.5288871,15.6306992 2.11640323,16.1738355 L2.11640323,16.1738355 Z" id="XMLID_28_"></path>
                        <path d="M2.18196774,7.06399486 C3.33527419,7.06399486 4.27045161,6.12039332 4.27045161,4.95582519 C4.27045161,3.79164781 3.33527419,2.84736247 2.18196774,2.84736247 C1.02783871,2.84736247 0.0927096774,3.79169666 0.0927096774,4.95582519 C0.0927096774,6.12044216 1.02783871,7.06399486 2.18196774,7.06399486 L2.18196774,7.06399486 Z" id="XMLID_29_"></path>
                        <path d="M14.1990484,6.35127506 C13.8094839,6.66792545 13.7478871,7.2429563 14.0611452,7.63663239 L16.5532742,10.7674319 C16.6179677,10.8484139 16.6951452,10.9172828 16.7816129,10.9719871 L18.4289516,12.0036041 C18.3807097,12.1412442 18.3525968,12.2847943 18.3378387,12.4319589 L19.4326452,12.1094473 L17.5001129,13.2657609 L14.2497581,12.5011697 C13.760371,12.3871208 13.2764516,12.6931234 13.1625484,13.1839486 C13.0496129,13.6755553 13.3519355,14.1675527 13.839,14.2820411 L17.4431613,15.1296658 C17.6628871,15.1811465 17.9028871,15.1497404 18.1101774,15.0258252 L20.3567903,13.6822956 L18.87,15.1839794 C19.952371,15.019964 21.1034032,15.309018 21.9340645,16.0613496 C22.1537903,15.8824859 22.4047258,15.7648715 22.6650484,15.6951722 L22.6650484,12.6061825 C22.6650484,11.6035784 21.8599355,10.791072 20.8672742,10.791072 L20.1199355,10.791072 C20.0638065,10.791072 20.0107742,10.8020617 19.9562419,10.8071902 L17.8685806,9.50058612 L15.4730323,6.49179692 C15.1599194,6.09846272 14.5910806,6.03628535 14.1990484,6.35127506 L14.1990484,6.35127506 Z" id="XMLID_30_"></path>
                        <path d="M20.483129,10.2604884 C21.6379839,10.2604884 22.5724355,9.31688689 22.5724355,8.15275835 C22.5724355,6.98814139 21.6379839,6.04419794 20.483129,6.04419794 C19.3297742,6.04419794 18.3947419,6.98819023 18.3947419,8.15275835 C18.3947419,9.31688689 19.3297742,10.2604884 20.483129,10.2604884 L20.483129,10.2604884 Z" id="XMLID_31_"></path>
                        <path d="M13.1517581,4.31871465 C14.3300806,4.31871465 15.2847097,3.35469666 15.2847097,2.16570694 C15.2847097,0.976375321 14.3300806,0.012748072 13.1517581,0.012748072 C11.9735323,0.012748072 11.0181774,0.976375321 11.0181774,2.16570694 C11.0181774,3.35469666 11.9735323,4.31871465 13.1517581,4.31871465 L13.1517581,4.31871465 Z" id="XMLID_32_"></path>
                        <path d="M23.7241935,17.0477378 C23.4179516,16.7378766 22.9184516,16.7370463 22.6106613,17.0485193 C22.2466452,17.4159177 21.6123387,17.4143059 21.2484677,17.0485193 C20.2915161,16.0802031 18.6191613,16.0782494 17.6575161,17.04891 C17.2951935,17.4159177 16.6600645,17.4150874 16.2961452,17.0480797 C15.351629,16.093928 13.6520323,16.092365 12.7044677,17.0493008 C12.3288387,17.4276401 11.7194516,17.4284704 11.3423226,17.0480797 C10.3845484,16.0802031 8.74190323,16.0499203 7.72185484,17.0787532 C7.37424194,17.4307172 6.76872581,17.4299357 6.4196129,17.0787532 C5.47824194,16.1265553 3.834,16.1261645 2.88953226,17.0787532 C2.47737097,17.4944576 1.75722581,17.4944576 1.34496774,17.0787532 C1.03722581,16.7680617 0.539274194,16.7684524 0.231435484,17.0783625 C-0.0763548387,17.3887121 -0.0763548387,17.8921388 0.231435484,18.2028303 C0.734854839,18.7109949 1.40429032,18.9914036 2.11722581,18.9914036 C2.83035484,18.9914036 3.49901613,18.7109949 4.0031129,18.2032211 C4.35217742,17.851599 4.95774194,17.850036 5.30608065,18.2032211 C6.25054839,19.1553702 7.85975806,19.1860925 8.86567742,18.1725476 C9.23046774,17.8044165 9.86254839,17.8028046 10.2301935,18.1741594 C11.219129,19.1708046 12.8275645,19.1727584 13.8211935,18.1714242 C14.1780484,17.8102776 14.8232903,17.8094961 15.1817419,18.1721568 C16.1425645,19.1409126 17.8133226,19.1405219 18.7718226,18.173329 C19.1380645,17.8039769 19.7709194,17.8039769 20.1347903,18.1725476 C21.0948387,19.1405219 22.7679677,19.1405219 23.7256935,18.1717172 C24.0328065,17.8607326 24.0328065,17.3576967 23.7241935,17.0477378 L23.7241935,17.0477378 Z" id="XMLID_33_"></path>
                    </g>
                </g>
            </g>
        </g>
    </g>
</svg>