<?xml version="1.0" encoding="UTF-8" standalone="no"?>
<svg width="23px" height="24px" viewBox="0 0 23 24" version="1.1" xmlns="http://www.w3.org/2000/svg" xmlns:xlink="http://www.w3.org/1999/xlink">
    <!-- Generator: Sketch 3.6.1 (26313) - http://www.bohemiancoding.com/sketch -->
    <title>Weightlifting@3x</title>
    <desc>Created with Sketch.</desc>
    <defs></defs>
    <g id="Page-1" stroke="none" stroke-width="1" fill="none" fill-rule="evenodd">
        <g id="assets-icon" transform="translate(-449.000000, -604.000000)" fill="#00D670">
            <g id="Weightlifting" transform="translate(449.000000, 604.000000)">
                <g id="Capa_1">
                    <g id="XMLID_8_">
                        <path d="M11.5033766,7.93633939 C12.720517,7.93633939 13.706483,6.95956364 13.706483,5.75350303 C13.706483,4.54826667 12.720566,3.57100606 11.5033766,3.57100606 C10.2861383,3.57100606 9.30090638,4.54826667 9.30090638,5.75350303 C9.30095532,6.95951515 10.2861383,7.93633939 11.5033766,7.93633939 L11.5033766,7.93633939 Z" id="XMLID_9_"></path>
                        <path d="M22.0622851,0.826278788 C21.7534979,0.826278788 21.4923255,0.985406061 21.3233489,1.21575758 L21.3233489,0.920872727 C21.3233489,0.412121212 20.9065596,0 20.393366,0 C19.8803191,0 19.4634809,0.412121212 19.4634809,0.920921212 L19.4634809,2.28334545 L3.54317447,2.28334545 L3.54317447,0.920921212 C3.54317447,0.412121212 3.12648298,0 2.61328936,0 C2.10019362,0 1.68340426,0.412121212 1.68340426,0.920921212 L1.68340426,1.21580606 C1.51442766,0.985454545 1.25315745,0.826327273 0.944517021,0.826327273 C0.431421277,0.826327273 0.0146319149,1.23844848 0.0146319149,1.74724848 L0.0146319149,4.02036364 C0.0146319149,4.52911515 0.431421277,4.94128485 0.944517021,4.94128485 C1.25315745,4.94128485 1.51442766,4.78215758 1.68340426,4.55219394 L1.68340426,4.84707879 C1.68340426,5.3558303 2.10019362,5.768 2.61328936,5.768 C3.12643404,5.768 3.54317447,5.3558303 3.54317447,4.84707879 L3.54317447,3.48465455 L4.13050638,3.48465455 C4.14626383,3.56955152 5.97525319,7.14569697 5.97525319,7.14569697 C6.02418936,7.24033939 6.08971489,7.32562424 6.1686,7.39830303 L8.83361489,9.85410909 L8.83361489,16.3549576 L6.6723,18.4118788 C6.45756809,18.6156121 6.33684255,18.8972121 6.33684255,19.1917091 L6.33684255,22.8769455 C6.33684255,23.4740848 6.82542128,23.9582061 7.4277766,23.9582061 C8.03013191,23.9582061 8.51871064,23.4740848 8.51871064,22.8769455 L8.51871064,19.6523636 L10.0902957,18.1566061 L12.9163106,18.1566061 L14.4888255,19.6523636 L14.4888255,22.8769455 C14.4888255,23.4740848 14.9774043,23.9582061 15.5797106,23.9582061 C16.182017,23.9582061 16.6706447,23.4740848 16.6706447,22.8769455 L16.6706447,19.1917091 C16.6706447,18.8972121 16.5498702,18.6156606 16.3351872,18.4118788 L14.1747043,16.3556848 L14.1747043,9.85333333 L16.8381043,7.39791515 C16.9169894,7.32562424 16.9825149,7.24029091 17.0314511,7.14569697 C17.0314511,7.14569697 18.8604404,3.56955152 18.8762957,3.48465455 L19.4635298,3.48465455 L19.4635298,4.84707879 C19.4635298,5.3558303 19.8803681,5.768 20.3934149,5.768 C20.9065596,5.768 21.3233979,5.3558303 21.3233979,4.84707879 L21.3233979,4.55180606 C21.4923255,4.78215758 21.7534979,4.94128485 22.062334,4.94128485 C22.5753319,4.94128485 22.9921213,4.52911515 22.9921213,4.02036364 L22.9921213,1.7472 C22.9920723,1.2384 22.575283,0.826278788 22.0622851,0.826278788 L22.0622851,0.826278788 Z M15.4526234,6.1590303 L13.0694809,8.35636364 L9.93878936,8.35636364 L7.55403191,6.1590303 L6.16316809,3.48460606 L16.8435362,3.48460606 L15.4526234,6.1590303 L15.4526234,6.1590303 Z" id="XMLID_10_"></path>
                    </g>
                </g>
            </g>
        </g>
    </g>
</svg>