<?xml version="1.0" encoding="UTF-8" standalone="no"?>
<svg width="25px" height="19px" viewBox="0 0 25 19" version="1.1" xmlns="http://www.w3.org/2000/svg" xmlns:xlink="http://www.w3.org/1999/xlink">
    <!-- Generator: Sketch 3.6.1 (26313) - http://www.bohemiancoding.com/sketch -->
    <title>wrestling copy@3x</title>
    <desc>Created with Sketch.</desc>
    <defs></defs>
    <g id="Page-1" stroke="none" stroke-width="1" fill="none" fill-rule="evenodd">
        <g id="assets-icon" transform="translate(-1208.000000, -553.000000)" fill="#B3B3B3">
            <g id="wrestling-copy" transform="translate(1208.000000, 553.000000)">
                <g id="Capa_1">
                    <g id="Group">
                        <path d="M22.4122759,13.1615138 L22.8714002,9.15041044 C22.8973195,8.92537511 22.8552617,8.70829254 22.7634102,8.51992313 C22.7421145,8.45930646 22.7110824,8.40183391 22.6622223,8.35411736 L22.6622223,8.35411736 L22.4492211,8.13786705 L17.4462476,3.05771875 C17.2753486,2.89010974 17.012198,2.90296362 16.8574376,3.08689428 L16.3051725,3.74438398 C16.2499105,3.78239077 16.1967824,3.82483631 16.1474778,3.87481848 L13.4619101,6.59401464 L12.6596543,6.45516503 C12.691131,6.30526477 12.6949544,6.14699562 12.6617883,5.98738561 C12.5381044,5.39139107 11.9717904,5.01025973 11.3987188,5.14111036 L9.60805874,5.54346446 L9.39888091,5.2786191 L9.62846525,4.99301334 C9.77642355,4.80330306 9.76024061,4.51150154 9.59192026,4.34084089 L7.40122154,2.1177674 C7.23285673,1.94710675 6.97864232,1.96389077 6.83281803,2.15535806 L2.46573627,7.87880131 C2.15243635,8.11271414 1.97002261,8.5123865 2.03084201,8.93642575 L2.69105258,13.5439397 L0.231645938,16.7529704 C-0.133981789,17.2305058 -0.0587133378,17.9260023 0.400410876,18.3067175 C0.595984365,18.468963 0.829792271,18.5476583 1.06235534,18.5476583 C1.37481055,18.5476583 1.68433149,18.4052947 1.89435403,18.1316181 L4.6420304,14.546311 C4.8260891,14.3062487 4.90562558,13.9976169 4.86223396,13.6942561 L4.5216809,11.3191093 C4.54382129,11.3009381 4.56760666,11.2881305 4.58716845,11.2633937 L4.84738478,10.9397349 L6.45994355,13.2737771 L7.06916008,17.6028059 C7.14651808,18.1523785 7.60057402,18.5480745 8.11967291,18.5480745 C8.17066696,18.5480745 8.22255017,18.5440981 8.27483351,18.5365615 C8.85555206,18.4481564 9.25772478,17.8866084 9.17271989,17.2826611 L8.52611366,12.68703 C8.50143912,12.5119768 8.43684074,12.3461711 8.33778693,12.2020042 L6.25547833,9.18883337 L8.01168292,7.00464517 L8.37771077,7.46798584 C8.58177586,7.72663545 8.88445017,7.87168082 9.19908386,7.87168082 C9.27350759,7.87168082 9.34917617,7.86321945 9.42355545,7.84643543 L10.3673676,7.63420774 C10.4698447,8.04321998 10.7929255,8.37261215 11.2197728,8.44640635 L13.6443239,8.86646922 C13.7026091,8.87664135 13.7608055,8.88149623 13.8190907,8.88149623 C14.0937117,8.88149623 14.3602856,8.7705275 14.5605272,8.56800958 L16.0259724,7.08417276 L18.764268,10.2870539 L16.7389109,12.8793296 C16.5850396,13.0760679 16.5008794,13.322326 16.5008794,13.5761207 L16.5008794,17.7225134 C16.5008794,18.3331188 16.9765867,18.8278544 17.5637073,18.8278544 C18.1507834,18.8278544 18.6265352,18.3331188 18.6265352,17.7225134 L18.6265352,13.9687188 L20.446938,11.6382368 L20.2496751,13.3590381 C20.2160644,13.653059 20.2972458,13.9492993 20.4749469,14.1801142 L23.0610607,17.542143 C23.2710832,17.8149411 23.579715,17.9568886 23.8918145,17.9568886 C24.1247777,17.9568886 24.3590302,17.8777309 24.5550038,17.7146069 C25.0137279,17.3334755 25.087707,16.6375629 24.7212346,16.160906 L22.4122759,13.1615138 L22.4122759,13.1615138 Z" id="Shape"></path>
                        <path d="M13.2491912,5.67091806 C14.3502979,5.67091806 15.243116,4.74238724 15.243116,3.59769859 C15.243116,2.45254757 14.3498978,1.52406298 13.2491912,1.52406298 C12.5927596,1.52406298 12.0154643,1.85831004 11.6519706,2.36765649 C11.6651304,2.27083628 11.6804686,2.17401606 11.6804686,2.07321947 C11.6804686,0.928068449 10.787695,-3.55271368e-15 9.68658821,-3.55271368e-15 C8.58548146,-3.55271368e-15 7.69230769,0.928530819 7.69230769,2.07321947 C7.69230769,3.21878662 8.58508133,4.14727121 9.68658821,4.14727121 C10.3430198,4.14727121 10.920315,3.81302415 11.2838532,3.3036777 C11.270649,3.40049791 11.2553552,3.49731813 11.2553552,3.59816096 C11.2553108,4.74284961 12.1480844,5.67091806 13.2491912,5.67091806 L13.2491912,5.67091806 Z" id="Shape"></path>
                    </g>
                </g>
            </g>
        </g>
    </g>
</svg>