<?xml version="1.0" encoding="UTF-8" standalone="no"?>
<svg width="23px" height="22px" viewBox="0 0 23 22" version="1.1" xmlns="http://www.w3.org/2000/svg" xmlns:xlink="http://www.w3.org/1999/xlink">
    <!-- Generator: Sketch 3.6.1 (26313) - http://www.bohemiancoding.com/sketch -->
    <title>Athletics@3x</title>
    <desc>Created with Sketch.</desc>
    <defs></defs>
    <g id="Page-1" stroke="none" stroke-width="1" fill="none" fill-rule="evenodd">
        <g id="assets-icon" transform="translate(-23.000000, -167.000000)" fill="#00D670">
            <g id="Athletics" transform="translate(23.000000, 167.000000)">
                <g id="Capa_1">
                    <g id="Group">
                        <path d="M0.94685353,16.1411795 C0.31429294,16.2693846 -0.100143309,16.9155385 0.0210368809,17.5847949 C0.127675448,18.1745385 0.617243414,18.5847949 1.16497787,18.5847949 C1.23768599,18.5847949 1.3128177,18.5770769 1.38552582,18.5617179 L6.18426133,17.587359 C6.45812856,17.5309487 6.70291254,17.3745385 6.87741201,17.1437692 L8.93747524,14.3950513 L8.249196,14.0232564 C7.7402392,13.7514615 7.38636881,13.2591538 7.26518862,12.6617179 L5.32145838,15.2540256 L0.94685353,16.1411795 L0.94685353,16.1411795 Z" id="Shape"></path>
                        <ellipse id="Oval" cx="18.0381075" cy="2.72066667" rx="2.5544784" ry="2.7025641"></ellipse>
                        <path d="M12.4638188,2.04374359 C12.1947987,1.7514359 11.9451918,1.63605128 11.6713246,1.63605128 C11.5719326,1.63605128 11.472589,1.6514359 11.3659262,1.67707692 L6.98165121,2.77707692 C6.37575026,2.92835897 6.00251528,3.57194872 6.1455079,4.21041026 C6.2691117,4.75912821 6.72959642,5.12835897 7.24097682,5.12835897 C7.32825079,5.12835897 7.41547629,5.11810256 7.50275026,5.09502564 L11.2375237,4.15912821 C11.4798841,4.44374359 12.6941096,5.83605128 12.9146575,6.08220513 L12.9146575,6.08220513 C11.3708219,7.83092308 9.8269863,9.57707692 8.28312645,11.3257949 C8.25889041,11.3540256 8.23710221,11.3822051 8.21526554,11.4104103 C7.76447524,12.0181026 7.90264489,12.9719487 8.58125395,13.3334872 L9.4028314,13.7771026 L13.3145279,15.8898974 L10.8569937,20.1027179 C10.520137,20.6822308 10.6897893,21.4411795 11.2374995,21.8001538 C11.4289642,21.9257949 11.6398177,21.9847692 11.8482476,21.9847692 L11.8482476,21.9847692 C12.2384478,21.9847692 12.621353,21.7770769 12.8419252,21.4001538 L15.9635269,16.0488718 C16.1356027,15.754 16.1816512,15.3975897 16.0919779,15.0668205 C16.0023045,14.7334872 15.7866038,14.4565641 15.4933477,14.3001538 L12.2869199,12.5745128 L15.658177,8.75912821 L18.202961,11.0411795 C18.4137903,11.2308974 18.6731159,11.3232308 18.9300421,11.3232308 C19.2063087,11.3232308 19.4826238,11.2155385 19.6983003,11.0052821 L22.6187429,8.12579487 C23.0744046,7.67707692 23.10104,6.92323077 22.6769094,6.44117949 C22.4539378,6.18989744 22.153411,6.06169231 21.8528841,6.06169231 C21.5790169,6.06169231 21.302726,6.16682051 21.0870253,6.37964103 L18.9009347,8.53092308 C18.8984868,8.53348718 13.4211423,3.08220513 12.4638188,2.04374359 L12.4638188,2.04374359 Z" id="Shape"></path>
                    </g>
                </g>
            </g>
        </g>
    </g>
</svg>