<?xml version="1.0" encoding="UTF-8" standalone="no"?>
<svg width="22px" height="24px" viewBox="0 0 22 24" version="1.1" xmlns="http://www.w3.org/2000/svg" xmlns:xlink="http://www.w3.org/1999/xlink">
    <!-- Generator: Sketch 3.6.1 (26313) - http://www.bohemiancoding.com/sketch -->
    <title>Badminton Copy@3x</title>
    <desc>Created with Sketch.</desc>
    <defs></defs>
    <g id="Page-1" stroke="none" stroke-width="1" fill="none" fill-rule="evenodd">
        <g id="assets-icon" transform="translate(-782.000000, -194.000000)" fill="#B3B3B3">
            <g id="Badminton-Copy" transform="translate(782.000000, 194.000000)">
                <g id="Capa_1">
                    <path d="M21.902008,7.54795699 C21.6672829,6.87346237 20.9198964,6.51380645 20.2329004,6.74382796 L12.7114422,9.26486022 L9.05181673,9.42589247 L7.90737849,6.3556129 C7.69850996,5.7951828 7.1350996,5.46425806 6.55696414,5.51475269 L5.78161753,4.75380645 C5.91396813,4.36516129 5.92396016,3.90907527 5.80098805,3.42623656 C5.6249004,2.73496774 5.19471713,2.0271828 4.58984861,1.43354839 C3.7763745,0.635010753 2.76262151,0.158365591 1.87832669,0.158365591 C1.33735458,0.158365591 0.872462151,0.334021505 0.533784861,0.666322581 C-0.38425498,1.56739785 -0.0409322709,3.31587097 1.31535458,4.64705376 C2.12891633,5.44541935 3.14266932,5.92206452 4.02705179,5.92206452 C4.356,5.92206452 4.6561992,5.85617204 4.91765737,5.73058065 L5.47230279,6.27492473 C5.33846215,6.57023656 5.31611155,6.91466667 5.43811952,7.24215054 L6.91352191,11.2006022 C7.10372112,11.7110538 7.59823904,12.0476559 8.1478008,12.0476559 C8.16752191,12.0476559 8.18733068,12.0472258 8.20713944,12.0463656 L10.885004,11.9285161 C10.885004,11.9285161 10.8695777,16.180129 10.8803586,16.3762581 C9.74039044,18.1659355 8.37788048,19.7497634 6.69176892,21.0635699 L5.88478088,21.6924731 C5.31611155,22.1355699 5.22118725,22.9472688 5.67266932,23.5052903 C5.9321992,23.8261505 6.31584064,23.9933763 6.70316335,23.9933763 C6.98960159,23.9933763 7.27814343,23.9019355 7.51979283,23.7134624 L8.32678088,23.0846452 C10.2279841,21.6032688 11.844239,19.8328602 13.1365418,17.819957 C14.7094104,19.1384086 15.8024861,20.9132043 16.2598406,22.9267097 L16.2693068,22.9684301 C16.4061275,23.5692043 16.9490279,23.9777204 17.5512669,23.9777204 C17.6461036,23.9777204 17.7426056,23.9675699 17.8390199,23.9464946 C18.5476653,23.7911398 18.9938884,23.1014194 18.8355936,22.4059355 L18.83349,22.3647312 C18.2492191,19.7926022 16.8597131,17.5257634 14.8437769,15.8447312 L14.8437769,11.5779785 C14.8437769,11.479914 14.8288765,11.3836559 14.8145896,11.2895484 L21.0864303,9.18615054 C21.7735139,8.95578495 22.1366454,8.22236559 21.902008,7.54795699 L21.902008,7.54795699 Z M4.02696414,4.63182796 C3.49975299,4.63182796 2.80031076,4.27965591 2.24505179,3.73470968 C1.33603984,2.84249462 1.17494024,1.86193548 1.46348207,1.57875269 C1.57304382,1.47122581 1.74948207,1.44860215 1.87823904,1.44860215 C2.4054502,1.44860215 3.10480478,1.80077419 3.66006375,2.34580645 C4.0927012,2.77032258 4.40806375,3.27810753 4.52551394,3.73909677 C4.61228685,4.07991398 4.58099602,4.36490323 4.44163347,4.50167742 C4.33215936,4.60929032 4.15572112,4.63182796 4.02696414,4.63182796 L4.02696414,4.63182796 Z M18.2160876,1.03612903 L19.9839761,0.0406021505 C20.1876733,-0.0748387097 20.453251,0.0694193548 20.453251,0.300301075 L20.453251,2.70830108 C20.453251,2.9391828 20.1876733,3.08344086 19.9839761,2.968 L18.2216096,1.97247312 C17.8543586,1.76447312 17.8488367,1.24421505 18.2160876,1.03612903 L18.2160876,1.03612903 Z M10.7137371,6.28860215 C10.7137371,5.15664516 11.6487809,4.23896774 12.8021594,4.23896774 C13.9555378,4.23896774 14.8905817,5.15664516 14.8905817,6.28860215 C14.8905817,7.42055914 13.9555378,8.33823656 12.8021594,8.33823656 C11.6487809,8.33823656 10.7137371,7.42055914 10.7137371,6.28860215 L10.7137371,6.28860215 Z" id="Shape"></path>
                </g>
            </g>
        </g>
    </g>
</svg>