<?xml version="1.0" encoding="UTF-8" standalone="no"?>
<svg width="24px" height="23px" viewBox="0 0 24 23" version="1.1" xmlns="http://www.w3.org/2000/svg" xmlns:xlink="http://www.w3.org/1999/xlink">
    <!-- Generator: Sketch 3.6.1 (26313) - http://www.bohemiancoding.com/sketch -->
    <title>Basketball Copy 2@3x</title>
    <desc>Created with Sketch.</desc>
    <defs></defs>
    <g id="Page-1" stroke="none" stroke-width="1" fill="none" fill-rule="evenodd">
        <g id="assets-icon" transform="translate(-781.000000, -245.000000)" fill="#B3B3B3">
            <g id="Basketball-Copy-2" transform="translate(781.000000, 245.000000)">
                <g id="Capa_1">
                    <g id="Group">
                        <path d="M23.0680324,16.8540748 C21.2238704,16.3973742 18.985749,15.7703971 18.5245992,15.537289 C18.2655061,15.3315322 16.9187368,13.7564865 16.9187368,13.7564865 L16.1731336,9.54313514 C17.4209879,9.92285031 17.7645668,10.7023638 18.1729069,12.2011892 C18.2832874,12.6052911 18.6550931,12.8731143 19.0608097,12.8731143 C19.1393684,12.8731143 19.2194818,12.863264 19.2994494,12.8424158 C19.7897976,12.7133098 20.0815385,12.2157734 19.9495385,11.7335863 C18.817749,6.75884407 13.450251,7.49130561 13.4380081,7.49202287 C11.5490526,7.61639501 9.93988664,7.14950936 9.80866397,6.95106861 C9.66393522,6.74535967 9.08152227,5.8226341 8.9925668,4.13598337 C8.96642915,3.63643867 8.53078543,3.25031601 8.02639676,3.27895842 C7.90872874,3.28498337 7.7982996,3.31415177 7.69617814,3.35938669 C8.03587045,3.00448857 8.24725506,2.5297131 8.24725506,2.00391684 C8.24725506,0.907997921 7.34521457,0.0197484407 6.23169231,0.0197484407 C5.11817004,0.0197484407 4.21690688,0.90785447 4.21690688,2.00382121 C4.21690688,3.09921414 5.11899595,3.98688981 6.23174089,3.98688981 C6.63439676,3.98688981 7.00702834,3.86835135 7.3217004,3.66771102 C7.20937652,3.82727651 7.14529555,4.0207921 7.15549798,4.22965696 C7.27394332,6.47552807 8.10796761,7.73689397 8.36166802,8.06974844 C8.85420243,8.7186736 10.2037409,9.11971518 11.6499109,9.26235343 C11.6512227,9.26837838 11.6516113,9.272921 11.6523401,9.27932848 L12.7847126,14.5983056 C12.7847126,14.5983056 12.4940405,17.5409189 12.5978623,18.2963326 C12.6405182,18.6151289 12.7521134,19.4617775 16.1264939,22.6677193 C16.356583,22.8869605 16.655417,22.9963659 16.9529879,22.9963659 C17.2631903,22.9963659 17.5752874,22.8763451 17.8082915,22.6385988 C18.2641943,22.173817 18.2507368,21.4320312 17.7787045,20.983316 C16.610915,19.871474 14.952,17.9036112 14.952,17.9036112 C14.952,17.9036112 15.0150121,16.584578 15.1266073,15.5720042 C15.1337004,15.4749356 15.3057814,15.4181289 15.379336,15.5063514 C15.5671579,15.7460104 16.7665749,17.2039522 17.2234494,17.4982661 C17.934996,17.9556362 20.8273846,18.7132495 22.4876113,19.1236154 C22.5851174,19.1485281 22.6829636,19.1602432 22.778915,19.1602432 C23.3103158,19.1602432 23.7951255,18.8063971 23.9311579,18.2741933 C24.0923563,17.6470728 23.7062186,17.0101497 23.0680324,16.8540748 L23.0680324,16.8540748 Z" id="Shape"></path>
                        <path d="M13.6371012,7.12445322 C14.9164372,6.85433472 15.7321457,5.61467775 15.4575547,4.35622869 C15.1836437,3.09706237 13.924664,2.29512266 12.6457166,2.56519335 C11.3653603,2.83531185 10.5508178,4.07458628 10.8248745,5.33250936 C11.0990769,6.59167568 12.3581053,7.39399792 13.6371012,7.12445322 L13.6371012,7.12445322 Z" id="Shape"></path>
                        <g transform="translate(0.000000, 4.446985)" id="Shape">
                            <path d="M0.427676113,0.0172141372 L0,0.0234303534 L1.37324696,5.7502869 L4.8551417,5.74617464 L6.02642915,0.0138191268 L0.427676113,0.0172141372 L0.427676113,0.0172141372 Z M4.42090688,5.43029522 L4.296,5.19097089 L4.17094737,5.43062994 L3.8231417,5.43101247 L4.12221862,4.85787734 L3.67753846,4.00577755 L3.23290688,4.85787734 L3.53217814,5.43139501 L3.18480972,5.43177755 L3.05917409,5.19097089 L2.93339271,5.43206445 L2.58558704,5.4324948 L2.88539271,4.85787734 L2.44076113,4.00577755 L1.99608097,4.85787734 L2.29612955,5.43282952 L1.94876113,5.43325988 L1.82234818,5.19101871 L1.69578947,5.43354678 L1.62787045,5.43364241 L1.53983806,5.06626403 L1.6485668,4.85787734 L1.35527126,4.29578794 L1.06022672,3.06430769 L1.20393522,3.33968607 L1.6485668,2.48758628 L1.20393522,1.63543867 L0.870850202,2.27374844 L0.761246964,1.81719127 L1.02991093,1.3022973 L0.524502024,0.333762994 L0.871967611,0.333571726 L1.20369231,0.969251559 L1.53565992,0.333141372 L2.10845344,0.332758836 L2.4405668,0.969251559 L2.77297166,0.332328482 L3.34489069,0.331945946 L3.6774413,0.969251559 L4.0102834,0.331515593 L4.58132794,0.331133056 L4.91431579,0.969251559 L5.24754656,0.330702703 L5.59525506,0.330463617 L5.08814575,1.30239293 L5.33757085,1.78046778 L5.23977328,2.25916424 L4.91431579,1.63548649 L4.46968421,2.4876341 L4.91431579,3.33973389 L5.08634818,3.01008316 L4.86267206,4.10485447 L4.46973279,4.85792516 L4.64152227,5.18719335 L4.59191903,5.43015177 L4.42090688,5.43029522 L4.42090688,5.43029522 Z"></path>
                            <path d="M2.44061538,1.63539085 L1.99603239,2.48753846 L2.44061538,3.33963825 L2.88529555,2.48753846 L2.44061538,1.63539085 Z"></path>
                            <path d="M1.37761943,3.67268399 L1.82215385,4.52478378 L2.26693117,3.67268399 L1.82215385,2.82053638 L1.37761943,3.67268399 Z"></path>
                            <path d="M2.61449393,3.67268399 L3.05902834,4.52478378 L3.50380567,3.67268399 L3.05902834,2.82053638 L2.61449393,3.67268399 Z"></path>
                            <path d="M3.67748988,1.63539085 L3.23290688,2.48753846 L3.67748988,3.33963825 L4.12226721,2.48753846 L3.67748988,1.63539085 Z"></path>
                            <path d="M4.29590283,2.82053638 L3.85131984,3.67268399 L4.29590283,4.52478378 L4.74068016,3.67268399 L4.29590283,2.82053638 Z"></path>
                            <path d="M4.74068016,1.30234511 L4.29590283,0.450245322 L3.85131984,1.30234511 L4.29590283,2.15444491 L4.74068016,1.30234511 Z"></path>
                            <path d="M2.26693117,1.30234511 L1.82215385,0.450245322 L1.37761943,1.30234511 L1.82215385,2.15444491 L2.26693117,1.30234511 Z"></path>
                            <path d="M3.50380567,1.30234511 L3.05902834,0.450245322 L2.61449393,1.30234511 L3.05902834,2.15444491 L3.50380567,1.30234511 Z"></path>
                        </g>
                    </g>
                </g>
            </g>
        </g>
    </g>
</svg>