<?xml version="1.0" encoding="UTF-8" standalone="no"?>
<svg width="23px" height="24px" viewBox="0 0 23 24" version="1.1" xmlns="http://www.w3.org/2000/svg" xmlns:xlink="http://www.w3.org/1999/xlink">
    <!-- Generator: Sketch 3.6.1 (26313) - http://www.bohemiancoding.com/sketch -->
    <title>Boxing@3x</title>
    <desc>Created with Sketch.</desc>
    <defs></defs>
    <g id="Page-1" stroke="none" stroke-width="1" fill="none" fill-rule="evenodd">
        <g id="assets-icon" transform="translate(-30.000000, -298.000000)" fill="#00D670">
            <g id="Boxing" transform="translate(30.000000, 298.000000)">
                <g id="Capa_1">
                    <g id="Layer_1_55_">
                        <g id="Group">
                            <path d="M10.8934587,4.82895962 C11.1792282,5.0256342 11.5028471,5.16131116 11.8406456,5.22863658 L11.8441626,5.22949169 C12.6810947,5.39543943 13.5613471,5.12020903 14.1649296,4.50550119 C14.777165,3.88127316 15.0460194,2.95878385 14.8679927,2.0943848 C14.6939854,1.25227553 14.1107791,0.531477435 13.3322403,0.200779097 C12.535949,-0.137615202 11.6074636,-0.0438384798 10.8919515,0.448418052 C10.1764393,0.940674584 9.74317961,1.78455107 9.7511068,2.66571021 C9.75908981,3.52651781 10.1948617,4.3487886 10.8934587,4.82895962 L10.8934587,4.82895962 Z" id="Shape"></path>
                            <path d="M21.8060655,5.34795249 C21.6694612,5.30998575 21.5280558,5.29100238 21.3865947,5.29100238 C21.054267,5.29100238 20.7355607,5.29316865 20.4257864,5.43859382 C20.375432,5.46219477 20.3263617,5.48853207 20.2787985,5.51737767 C20.2419539,5.53966746 20.2183956,5.55876485 20.1878592,5.56742993 C20.0115631,5.56708789 19.7358981,5.56651781 19.6564029,5.56765796 C19.4322087,5.56765796 19.2119782,5.64684086 19.0375243,5.79055582 C19.0030801,5.81877435 18.983318,5.86312589 18.9387136,5.86033254 C18.8696019,5.85588599 18.8003228,5.85149644 18.7310995,5.84710689 C17.9212985,5.79540143 17.1116092,5.74369596 16.3016966,5.6919905 C15.1893228,5.62107363 14.0768374,5.55009976 12.9646311,5.47912589 C12.2830607,5.43562945 11.6028859,5.34863658 10.9203665,5.34863658 C9.89859709,5.34863658 9.44685922,5.66844656 9.27251699,5.77351069 C8.71951214,6.1072304 8.31444417,6.62297387 8.08316019,7.23146793 C7.77690291,8.03732067 7.47047816,8.8432304 7.16433252,9.64931116 C6.8546699,10.463658 6.44100485,11.2609596 6.13134223,12.0753064 C6.12469903,12.0932637 6.11783252,12.1112209 6.11107767,12.1289501 C6.07501456,12.224266 6.04565049,12.3221473 6.01773786,12.4201425 C5.86868447,12.944152 6.00478641,13.0059477 5.90977184,13.2846556 C5.81425485,13.6010451 5.8535,13.4706128 5.75798301,13.7870594 C5.44921359,14.8100523 5.13888107,15.8324751 4.82609223,16.8542138 C4.75597573,17.0835534 4.61607767,17.5426318 4.61607767,17.5426318 C4.61607767,17.5426318 4.50442718,17.6629169 4.47126699,17.6971781 C4.37027913,17.8014442 4.26823058,17.9049121 4.16573544,18.0075249 C3.76809223,18.4056057 3.36402913,18.7970736 2.95884951,19.1869454 C2.24356068,19.8751924 1.52201942,20.5562565 0.800087379,21.2370926 C0.670349515,21.3593729 0.539271845,21.480285 0.410929612,21.6039335 C0.112041262,21.887829 -0.0290291262,22.3174347 0.0398033981,22.728057 C0.181990291,23.5770641 1.14648301,24.0299857 1.86981068,23.5889786 C2.03215049,23.4900143 2.18098058,23.3615202 2.33254612,23.2469359 C2.69758738,22.9711924 3.06240534,22.6953919 3.42733495,22.4195914 C4.27342233,21.7764941 5.11822573,21.1308314 5.9503568,20.4690926 C6.26805825,20.2164941 6.58866262,19.9655487 6.88816505,19.6906033 C7.32466262,19.2899002 7.71047087,18.3444941 7.85628641,18.0072969 C8.0911432,17.463848 8.32025,16.9175487 8.55192476,16.3726176 C9.4185,16.936019 12.0367597,18.6749644 12.0367597,18.6749644 C12.0367597,18.6749644 12.5123908,20.1550404 12.6697063,20.688342 C12.814182,21.1781473 12.9538568,21.6693777 13.0934199,22.1606651 C13.1852524,22.4844086 13.2565413,22.8217767 13.3715413,23.1377672 C13.6645121,23.9424228 14.6913058,24.2072779 15.3233592,23.6409121 C15.6140413,23.3805036 15.7699612,22.9860143 15.7359636,22.59238 C15.7059854,22.2468029 15.6371529,21.9017387 15.5857379,21.5589549 C15.428534,20.5099097 15.2699903,19.4603515 15.0740437,18.4179192 C14.9866214,17.9525131 14.9091917,17.4661853 14.7342913,17.0248361 C14.646199,16.8027363 14.5750777,16.6222518 13.5745218,15.7647506 L11.4569587,13.9893777 L12.4604175,11.3490356 C12.6008738,11.4858527 12.741051,11.6228409 12.8811723,11.759715 C13.1586796,12.0308409 13.544432,12.1103658 13.9093617,12.0067268 C14.1412597,11.9407696 14.3732136,11.8748694 14.6051117,11.8087411 C14.7393155,11.7706603 14.8717888,11.8022993 15.0099563,11.7745368 C15.1188714,11.7525321 15.2267257,11.7235154 15.3347476,11.6977482 C15.3647257,11.6905653 15.4851966,11.6594394 15.5553131,11.6411401 C15.5900922,11.6533397 15.708051,11.6934157 15.8195898,11.7163325 C16.0475801,11.7631924 16.2803714,11.7548124 16.5065194,11.7009976 C16.8196432,11.6264893 17.1179733,11.5508979 17.3792354,11.3460713 C18.0260267,10.8384798 18.186301,9.87882185 17.7386942,9.18145368 C17.5257767,8.84972922 17.1928908,8.60590974 16.8172427,8.50529216 C16.4815097,8.4152209 16.1660971,8.46966271 15.8361699,8.54810451 C15.6602087,8.58994774 15.4916165,8.64689786 15.3346359,8.74027553 C15.2417427,8.79562945 15.1544879,8.86061758 15.0747136,8.93387173 C15.0385947,8.96710689 15.003983,9.00228029 14.9710461,9.03882185 C14.843932,9.06578622 14.5660898,9.13225653 14.4873762,9.15101188 C14.4276432,9.16514964 14.3688592,9.18094062 14.31175,9.20414252 C14.2592184,9.22552019 14.2474393,9.25584798 14.2157864,9.21212352 C13.9999102,8.91295012 13.7838107,8.61371971 13.5678228,8.31448931 C14.2649684,8.27002375 14.9619466,8.22550119 15.6587573,8.18103563 C16.6488738,8.11787173 17.6390461,8.05465083 18.6291626,7.99154394 C18.7289223,7.98510214 18.828682,7.97871734 18.9285534,7.97238955 C18.981085,7.96896912 18.9927524,8.0047696 19.0374684,8.04142518 C19.2119223,8.18525416 19.4321529,8.26432304 19.6563471,8.26432304 L20.2003083,8.26415202 C20.2183956,8.27663658 20.236483,8.28900713 20.255017,8.30063658 C20.309949,8.33529691 20.3670024,8.36590974 20.4256748,8.39350119 C20.7341092,8.53824228 21.0548811,8.54371496 21.386483,8.54109264 C22.1721675,8.54109264 22.8588738,7.93060333 22.9635461,7.13455582 C23.0687209,6.33719715 22.5671311,5.55961995 21.8060655,5.34795249 L21.8060655,5.34795249 Z" id="Shape"></path>
                        </g>
                    </g>
                </g>
            </g>
        </g>
    </g>
</svg>