<?xml version="1.0" encoding="UTF-8" standalone="no"?>
<svg width="25px" height="22px" viewBox="0 0 25 22" version="1.1" xmlns="http://www.w3.org/2000/svg" xmlns:xlink="http://www.w3.org/1999/xlink">
    <!-- Generator: Sketch 3.6.1 (26313) - http://www.bohemiancoding.com/sketch -->
    <title>Canoeing Slalom Copy@3x</title>
    <desc>Created with Sketch.</desc>
    <defs></defs>
    <g id="Page-1" stroke="none" stroke-width="1" fill="none" fill-rule="evenodd">
        <g id="assets-icon" transform="translate(-786.000000, -328.000000)" fill="#B3B3B3">
            <g id="Group-3" transform="translate(29.000000, 23.000000)">
                <g id="parachutism">
                    <g id="Canoeing-Slalom-Copy" transform="translate(757.000000, 305.000000)">
                        <g id="Capa_1">
                            <g id="Group">
                                <path id="Shape" d="M12.5208821,2.53255814 C12.5208821,2.70105814 12.5058821,2.86605814 12.4988821,3.03255814 L12.5208821,3.03255814 L12.5208821,2.53255814 L12.5208821,2.53255814 Z"></path>
                                <path d="M10.6707317,2.58372093 L10.4166667,3.09534884 C10.2134146,3.43645116 9.87464431,3.60697674 9.4004065,3.60697674 L8.7398374,3.60697674 C9.18023374,4.25505581 9.73917683,4.57906977 10.4166667,4.57906977 C10.9925305,4.57906977 11.4837398,4.38296279 11.8902439,3.99069767 C12.2846545,3.61009767 12.4871443,3.14093488 12.4988821,2.58372093 L10.7723577,2.58372093 L10.6707317,2.58372093 L10.6707317,2.58372093 Z" id="Shape"></path>
                                <path d="M7.97764228,3.09534884 L9.4004065,3.09534884 C9.67139228,3.09534884 9.84080285,3.01006047 9.90853659,2.83953488 L10.2134146,2.32790698 C10.2811484,2.1573814 10.4674797,2.07209302 10.7723577,2.07209302 L12.9573171,2.07209302 C12.7879573,1.52633953 12.4745935,1.04883721 12.0172764,0.639534884 C11.5599593,0.230232558 11.0264228,0.0255813953 10.4166667,0.0255813953 C9.70528455,0.0255813953 9.10401423,0.26435814 8.61280488,0.741860465 C8.12159553,1.21936279 7.87601626,1.81627907 7.87601626,2.53255814 C7.87601626,2.90773488 7.90990854,3.09534884 7.97764228,3.09534884 L7.97764228,3.09534884 Z" id="Shape"></path>
                                <path d="M21.1636179,14.0953488 C23.0098069,13.7542465 24.2378049,13.2937814 24.847561,12.7139535 C24.5426829,11.7930233 23.8567073,11.2472698 22.7896341,11.0767442 C21.722561,10.9062186 20.6300813,11.0767442 19.5121951,11.5883721 C19.1734248,11.7588977 18.6652947,11.8953488 17.9878049,11.9976744 L17.5304878,10.2069767 C17.9708841,10.0022744 18.1741362,9.66117209 18.1402439,9.18372093 C18.1402439,8.87674419 18.0301321,8.62093023 17.8099593,8.41627907 C17.5897866,8.21162791 17.3272358,8.12633953 17.0223577,8.16046512 L16.6666667,6.83023256 C17.0392785,6.55727907 17.1747967,6.18210233 17.0731707,5.70465116 C17.005437,5.43164651 16.8445122,5.20995814 16.5904472,5.03953488 C16.3363821,4.8690093 16.0738313,4.81784651 15.8028455,4.88604651 C12.6185467,4.92017209 10.5182927,5.07366047 9.50203252,5.34651163 C9.06163618,5.44883721 8.68053862,5.74726977 8.35873984,6.24186047 C8.03694106,6.73645116 7.80828252,7.18837209 7.67276423,7.59767442 L7.5203252,8.2627907 L6.19918699,12.5093023 L0,12.5093023 L0,14.6069767 L16.5142276,14.6069767 C17.7676321,14.6069767 19.3174289,14.4364512 21.1636179,14.0953488 L21.1636179,14.0953488 Z M12.195122,7.18837209 L15.9044715,7.03488372 L16.2093496,8.16046512 C14.8543191,8.22866512 13.3977134,8.31395349 11.8394309,8.41627907 L12.195122,7.18837209 L12.195122,7.18837209 Z M11.1788618,10.6162791 L16.7682927,10.3604651 L17.2256098,12.1511628 C15.5318598,12.3899395 13.3299289,12.5093023 10.6199187,12.5093023 L11.1788618,10.6162791 L11.1788618,10.6162791 Z" id="Shape"></path>
                                <path d="M21.5955285,17.0627907 C21.6971545,17.0627907 21.824187,17.0542465 21.976626,17.0372093 C22.129065,17.0201721 22.4000508,16.9434279 22.7896341,16.8069767 C23.1792175,16.6705256 23.517937,16.5 23.8058943,16.2953488 C24.0938516,16.0906977 24.3648374,15.7581395 24.6189024,15.2976744 C24.8729675,14.8372093 25,14.3 25,13.6860465 C25,13.6178465 24.9830793,13.4984326 24.949187,13.327907 C24.0684451,13.975986 22.6795224,14.4449442 20.7825203,14.7348837 C18.8855183,15.0248233 17.4627541,15.1697674 16.5142276,15.1697674 L0,15.1697674 L0,17.727907 C0.406504065,17.727907 0.796087398,17.6426186 1.16869919,17.472093 C1.77845528,17.1992419 2.41361789,17.0627907 3.07418699,17.0627907 C3.7347561,17.0627907 4.3699187,17.1992419 4.9796748,17.472093 C5.35228659,17.6426186 5.75035569,17.727907 6.17378049,17.727907 C6.59720528,17.727907 6.99527439,17.6426186 7.36788618,17.472093 C7.97764228,17.1992419 8.60431911,17.0627907 9.24796748,17.0627907 C9.92545732,17.0627907 10.5691057,17.1992419 11.1788618,17.472093 C11.5514736,17.6426186 11.9410569,17.727907 12.347561,17.727907 C12.754065,17.727907 13.1436484,17.6426186 13.5162602,17.472093 C14.1260163,17.1992419 14.7611789,17.0627907 15.421748,17.0627907 C16.0823171,17.0627907 16.7174797,17.1992419 17.3272358,17.472093 C17.6998476,17.6426186 18.0894309,17.727907 18.495935,17.727907 L18.597561,17.727907 L18.648374,17.727907 L19.1565041,19.6209302 C18.9193598,19.6550558 18.699187,19.672093 18.495935,19.672093 C17.9878049,19.672093 17.4796748,19.5697674 16.9715447,19.3651163 C16.4973069,19.1263395 15.9806911,19.0069767 15.421748,19.0069767 C14.8628049,19.0069767 14.346189,19.1263395 13.8719512,19.3651163 C13.3977134,19.5697674 12.8895833,19.672093 12.347561,19.672093 C11.8055386,19.672093 11.2974085,19.5697674 10.8231707,19.3651163 C10.3150407,19.1263395 9.78998984,19.0069767 9.24796748,19.0069767 C8.70594512,19.0069767 8.18089431,19.1263395 7.67276423,19.3651163 C7.19847561,19.5697674 6.6988313,19.672093 6.17378049,19.672093 C5.64872967,19.672093 5.14903455,19.5697674 4.67479675,19.3651163 C4.16666667,19.1263395 3.64161585,19.0069767 3.0995935,19.0069767 C2.55757114,19.0069767 2.03252033,19.1263395 1.52439024,19.3651163 C1.05015244,19.5697674 0.542022358,19.672093 0,19.672093 L0,21.9744186 C0.542022358,21.9744186 1.05015244,21.8550558 1.52439024,21.6162791 C2.03252033,21.4116279 2.55757114,21.3093023 3.0995935,21.3093023 C3.64161585,21.3093023 4.16666667,21.4116279 4.67479675,21.6162791 C5.14903455,21.8550558 5.64872967,21.9744186 6.17378049,21.9744186 C6.6988313,21.9744186 7.19852642,21.8550558 7.67276423,21.6162791 C8.18089431,21.4116279 8.70594512,21.3093023 9.24796748,21.3093023 C9.78998984,21.3093023 10.3150407,21.4116279 10.8231707,21.6162791 C11.2974085,21.8550558 11.8055386,21.9744186 12.347561,21.9744186 C12.8895833,21.9744186 13.3977134,21.8550558 13.8719512,21.6162791 C14.3800813,21.4116279 14.9051321,21.3093023 15.4471545,21.3093023 C15.9891768,21.3093023 16.4973069,21.4116279 16.9715447,21.6162791 C17.4796748,21.8550558 17.9962907,21.9744186 18.5213415,21.9744186 C19.0464939,21.9744186 19.5461382,21.8550558 20.0203252,21.6162791 C20.5284553,21.4116279 21.0535061,21.3093023 21.5955285,21.3093023 C22.0697663,21.3093023 22.5609756,21.4116279 23.0691057,21.6162791 C23.5434451,21.8550558 24.0176829,21.9744186 24.4918699,21.9744186 L24.4918699,19.672093 C24.0176321,19.672093 23.5433435,19.5697674 23.0691057,19.3651163 C22.5609756,19.1263395 22.0528455,19.0069767 21.5447154,19.0069767 C21.0026931,19.0069767 20.494563,19.1263395 20.0203252,19.3651163 C19.9525915,19.3651163 19.9186992,19.3821535 19.9186992,19.4162791 L19.4613821,17.5744186 C19.5630081,17.540293 19.6477134,17.5062186 19.7154472,17.472093 C20.3252033,17.1992419 20.9518801,17.0627907 21.5955285,17.0627907 L21.5955285,17.0627907 Z" id="Shape"></path>
                            </g>
                        </g>
                    </g>
                </g>
            </g>
        </g>
    </g>
</svg>