<?xml version="1.0" encoding="UTF-8" standalone="no"?>
<svg width="23px" height="24px" viewBox="0 0 23 24" version="1.1" xmlns="http://www.w3.org/2000/svg" xmlns:xlink="http://www.w3.org/1999/xlink">
    <!-- Generator: Sketch 3.6.1 (26313) - http://www.bohemiancoding.com/sketch -->
    <title>Canoeing Sprint Copy@3x</title>
    <desc>Created with Sketch.</desc>
    <defs></defs>
    <g id="Page-1" stroke="none" stroke-width="1" fill="none" fill-rule="evenodd">
        <g id="assets-icon" transform="translate(-788.000000, -374.000000)" fill="#B3B3B3">
            <path d="M810.716368,394.66275 C810.936902,394.937614 810.88702,395.334501 810.604848,395.549323 C810.473444,395.649282 807.334275,397.998433 802.604946,397.998433 C799.954305,397.998433 798.283314,397.26066 796.808911,396.609709 C795.683074,396.112611 794.710685,395.683303 793.484134,395.683303 C790.737793,395.683303 789.333501,396.699225 789.319669,396.709499 C789.037496,396.924489 788.631787,396.874468 788.411253,396.599603 C788.190719,396.324823 788.24233,395.926589 788.524502,395.711766 C788.593749,395.658966 790.25765,394.420138 793.484134,394.420138 C794.990783,394.420138 796.13391,394.924814 797.344209,395.459218 C798.765186,396.08659 800.234489,396.735267 802.604946,396.735267 C806.892343,396.735267 809.777608,394.575928 809.806223,394.554117 C810.088396,394.339548 810.495921,394.387969 810.716368,394.66275 L810.716368,394.66275 Z M789.793674,387.193905 C790.089505,386.527543 790.876632,386.217142 791.563649,386.488554 L792.319567,384.785891 C792.283431,384.658311 792.266487,384.523405 792.274008,384.384036 C792.298733,383.923823 792.573989,383.535863 792.963706,383.334851 L796.081003,376.31283 C795.487438,375.925628 795.326641,375.14356 795.722495,374.563767 C796.119127,373.98288 796.923976,373.825236 797.520394,374.211428 L799.178071,375.285287 C800.984096,376.455147 802.054865,378.41499 802.042416,380.527929 L802.040168,380.91311 C802.180131,381.036479 802.304013,381.181912 802.405679,381.34806 L805.970614,387.170916 C806.441852,387.940689 806.287625,388.903894 805.65412,389.501456 C805.776706,390.648326 806.277338,391.723448 807.096105,392.574148 C807.132673,392.612127 807.165438,392.652211 807.1963,392.693222 L809.053417,392.693222 C809.053417,392.693222 809.00708,392.729096 808.92089,392.790907 C809.484025,392.479663 809.796887,392.246146 809.806137,392.239072 C810.088309,392.024418 810.495834,392.07284 810.716282,392.347704 C810.936729,392.622569 810.886934,393.019456 810.604761,393.234278 C810.473357,393.334321 807.334188,395.683387 802.604859,395.683387 C799.954218,395.683387 798.283228,394.945615 796.808825,394.294663 C795.682988,393.797566 794.710599,393.368258 793.484048,393.368258 C790.737707,393.368258 789.333414,394.38418 789.319582,394.394453 C789.03741,394.609444 788.6317,394.559423 788.411167,394.284558 C788.190633,394.009777 788.242244,393.611543 788.524416,393.396721 C788.557008,393.371879 788.942315,393.084803 789.676707,392.787623 L788.607494,392.337262 C788.097094,392.122103 787.86221,391.544584 788.083003,391.047318 L789.793674,387.193905 Z M793.484134,392.105008 C794.390216,392.105008 795.164547,392.288167 795.90136,392.549895 C795.921071,392.421557 795.960838,392.293978 796.0236,392.171619 L796.739319,390.777253 C797.680326,388.943895 799.408201,387.615971 801.399834,387.103547 L799.778552,384.455447 C798.411347,385.319199 796.791275,385.785055 795.162818,385.785055 C795.018274,385.785055 794.873816,385.781434 794.729272,385.774023 L793.500992,385.71137 C793.456989,385.709097 793.413677,385.704633 793.371057,385.698318 L792.790806,387.005441 C793.464423,387.307169 793.771321,388.078458 793.475489,388.74482 L791.939015,392.205893 C792.406882,392.143324 792.921172,392.105008 793.484134,392.105008 L793.484134,392.105008 Z M804.009152,392.693222 C803.47662,391.742985 803.152692,390.692537 803.059759,389.601078 C802.988178,389.543393 802.920228,389.480403 802.856861,389.41194 C801.248806,389.540025 799.78737,390.488241 799.059116,391.907196 L798.655568,392.693222 L804.009152,392.693222 L804.009152,392.693222 Z M797.741879,377.388879 L797.212286,377.045803 L794.466551,383.23085 L794.864912,383.251145 C795.818109,383.299566 796.776665,383.115397 797.6403,382.726931 C797.087453,382.379056 796.721165,381.773915 796.721165,381.085069 C796.721165,380.005989 797.619206,379.131289 798.726889,379.131289 C798.892613,379.131289 799.053497,379.151247 799.20755,379.188131 C798.930565,378.463664 798.424919,377.831323 797.741879,377.388879 L797.741879,377.388879 Z" id="Canoeing-Sprint-Copy"></path>
        </g>
    </g>
</svg>