<?xml version="1.0" encoding="UTF-8" standalone="no"?>
<svg width="23px" height="24px" viewBox="0 0 23 24" version="1.1" xmlns="http://www.w3.org/2000/svg" xmlns:xlink="http://www.w3.org/1999/xlink">
    <!-- Generator: Sketch 3.6.1 (26313) - http://www.bohemiancoding.com/sketch -->
    <title>Canoeing Sprint@3x</title>
    <desc>Created with Sketch.</desc>
    <defs></defs>
    <g id="Page-1" stroke="none" stroke-width="1" fill="none" fill-rule="evenodd">
        <g id="assets-icon" transform="translate(-31.000000, -386.000000)" fill="#00D670">
            <path d="M53.716368,406.66275 C53.9369018,406.937614 53.8870202,407.334501 53.6048476,407.549323 C53.4734438,407.649282 50.3342745,409.998433 45.6049456,409.998433 C42.9543048,409.998433 41.2833144,409.26066 39.8089112,408.609709 C38.683074,408.112611 37.7106853,407.683303 36.484134,407.683303 C33.7377931,407.683303 32.3335008,408.699225 32.3196688,408.709499 C32.0374963,408.924489 31.6317868,408.874468 31.4112531,408.599603 C31.1907194,408.324823 31.24233,407.926589 31.5245025,407.711766 C31.5937489,407.658966 33.2576503,406.420138 36.484134,406.420138 C37.9907831,406.420138 39.1339103,406.924814 40.344209,407.459218 C41.7651863,408.08659 43.234489,408.735267 45.6049456,408.735267 C49.8923426,408.735267 52.7776084,406.575928 52.8062233,406.554117 C53.0883959,406.339548 53.4959207,406.387969 53.716368,406.66275 L53.716368,406.66275 Z M32.7936736,399.193905 C33.0895052,398.527543 33.8766317,398.217142 34.5636492,398.488554 L35.3195672,396.785891 C35.2834311,396.658311 35.266487,396.523405 35.2740081,396.384036 C35.2987328,395.923823 35.5739893,395.535863 35.9637055,395.334851 L39.0810029,388.31283 C38.4874378,387.925628 38.326641,387.14356 38.7224951,386.563767 C39.1191273,385.98288 39.923976,385.825236 40.520394,386.211428 L42.178071,387.285287 C43.9840962,388.455147 45.0548648,390.41499 45.042416,392.527929 L45.0401683,392.91311 C45.1801307,393.036479 45.3040134,393.181912 45.4056785,393.34806 L48.9706136,399.170916 C49.4418521,399.940689 49.2876254,400.903894 48.6541205,401.501456 C48.7767064,402.648326 49.2773379,403.723448 50.096105,404.574148 C50.1326733,404.612127 50.1654379,404.652211 50.1963005,404.693222 L52.0534175,404.693222 C52.0534175,404.693222 52.0070803,404.729096 51.9208898,404.790907 C52.4840245,404.479663 52.7968868,404.246146 52.8061369,404.239072 C53.0883094,404.024418 53.4958343,404.07284 53.7162816,404.347704 C53.9367289,404.622569 53.8869337,405.019456 53.6047612,405.234278 C53.4733573,405.334321 50.3341881,407.683387 45.6048591,407.683387 C42.9542184,407.683387 41.283228,406.945615 39.8088247,406.294663 C38.6829875,405.797566 37.7105989,405.368258 36.4840475,405.368258 C33.7377067,405.368258 32.3334143,406.38418 32.3195823,406.394453 C32.0374098,406.609444 31.6317004,406.559423 31.4111666,406.284558 C31.1906329,406.009777 31.2422435,405.611543 31.524416,405.396721 C31.5570076,405.371879 31.9423149,405.084803 32.6767069,404.787623 L31.6074944,404.337262 C31.0970941,404.122103 30.8622097,403.544584 31.0830028,403.047318 L32.7936736,399.193905 Z M36.484134,404.105008 C37.3902155,404.105008 38.1645474,404.288167 38.90136,404.549895 C38.9210706,404.421557 38.9608375,404.293978 39.0236002,404.171619 L39.739319,402.777253 C40.6803263,400.943895 42.4082007,399.615971 44.3998338,399.103547 L42.7785521,396.455447 C41.4113468,397.319199 39.7912754,397.785055 38.1628184,397.785055 C38.0182741,397.785055 37.8738163,397.781434 37.7292721,397.774023 L36.5009917,397.71137 C36.4569887,397.709097 36.4136773,397.704633 36.3710575,397.698318 L35.7908057,399.005441 C36.4644234,399.307169 36.7713206,400.078458 36.475489,400.74482 L34.9390147,404.205893 C35.4068816,404.143324 35.9211721,404.105008 36.484134,404.105008 L36.484134,404.105008 Z M47.0091515,404.693222 C46.4766201,403.742985 46.1526922,402.692537 46.0597586,401.601078 C45.9881781,401.543393 45.9202284,401.480403 45.8568606,401.41194 C44.2488058,401.540025 42.78737,402.488241 42.059116,403.907196 L41.6555678,404.693222 L47.0091515,404.693222 L47.0091515,404.693222 Z M40.7418786,389.388879 L40.2122865,389.045803 L37.4665508,395.23085 L37.864912,395.251145 C38.8181087,395.299566 39.7766654,395.115397 40.6403,394.726931 C40.0874528,394.379056 39.7211645,393.773915 39.7211645,393.085069 C39.7211645,392.005989 40.6192062,391.131289 41.7268889,391.131289 C41.8926134,391.131289 42.0534967,391.151247 42.2075505,391.188131 C41.9305649,390.463664 41.4249194,389.831323 40.7418786,389.388879 L40.7418786,389.388879 Z" id="Canoeing-Sprint"></path>
        </g>
    </g>
</svg>