<svg width="27" height="25" viewBox="0 0 27 25" xmlns="http://www.w3.org/2000/svg"><title>Сalendar off@3x</title><g stroke="#AAA" fill="none" fill-rule="evenodd"><path d="M7.109 5.602h.357c.544 0 .984-.43.984-.96V.998c0-.53-.44-.96-.984-.96H7.11a.973.973 0 0 0-.985.96V4.64c0 .53.441.96.985.96zM19.73 5.578h.358c.544 0 .984-.43.984-.96V.974c0-.53-.44-.96-.984-.96h-.357a.973.973 0 0 0-.985.96V4.617c0 .53.441.96.985.96z"/><path d="M21.872 1.99V4.87c0 .96-.8 1.49-1.784 1.49h-.357c-.984 0-1.784-.782-1.784-1.742V1.99H9.25v2.651c0 .96-.8 1.741-1.784 1.741H7.11c-.984 0-1.784-.78-1.784-1.741v-2.65H2.6c-.882 0-1.6.7-1.6 1.56v18.87c0 .861.718 1.562 1.6 1.562h21.798c.882 0 1.6-.7 1.6-1.562V3.551c0-.86-.718-1.56-1.6-1.56h-2.526z"/><path d="M11.291 14h4.06c.16 0 .291-.127.291-.284v-3.432a.288.288 0 0 0-.291-.284h-4.06a.288.288 0 0 0-.291.284v3.432c0 .157.13.284.291.284zM11.291 20h4.06c.16 0 .291-.127.291-.284v-3.432a.288.288 0 0 0-.291-.284h-4.06a.288.288 0 0 0-.291.284v3.432c0 .157.13.284.291.284zM18.291 14h4.06c.16 0 .291-.127.291-.284v-3.432a.288.288 0 0 0-.291-.284h-4.06a.288.288 0 0 0-.291.284v3.432c0 .157.13.284.291.284zM18.291 20h4.06c.16 0 .291-.127.291-.284v-3.432a.288.288 0 0 0-.291-.284h-4.06a.288.288 0 0 0-.291.284v3.432c0 .157.13.284.291.284zM4.291 14h4.06c.16 0 .291-.127.291-.284v-3.432A.288.288 0 0 0 8.351 10H4.29a.288.288 0 0 0-.291.284v3.432c0 .157.13.284.291.284zM8.35 20c.162 0 .292-.127.292-.284v-3.432A.288.288 0 0 0 8.351 16H4.29a.288.288 0 0 0-.291.284v3.432c0 .157.13.284.291.284h4.06z"/></g></svg>