<svg width="25" height="24" viewBox="0 0 25 24" xmlns="http://www.w3.org/2000/svg"><title>Сalendar@3x</title><g fill="none" fill-rule="evenodd"><path d="M6.109 5.602h.357c.544 0 .984-.43.984-.96V.998c0-.53-.44-.96-.984-.96H6.11a.973.973 0 0 0-.985.96V4.64c0 .53.441.96.985.96zM18.73 5.578h.358c.544 0 .984-.43.984-.96V.974c0-.53-.44-.96-.984-.96h-.357a.973.973 0 0 0-.985.96V4.617c0 .53.441.96.985.96z" fill="#00D56F"/><path d="M20.872 1.99V4.87c0 .96-.8 1.49-1.784 1.49h-.357c-.984 0-1.784-.782-1.784-1.742V1.99H8.25v2.651c0 .96-.8 1.741-1.784 1.741H6.11c-.984 0-1.784-.78-1.784-1.741v-2.65H1.6c-.882 0-1.6.7-1.6 1.56v18.87c0 .861.718 1.562 1.6 1.562h21.798c.882 0 1.6-.7 1.6-1.562V3.551c0-.86-.718-1.56-1.6-1.56h-2.526z" fill="#00D56F"/><path d="M10.291 14h4.06c.16 0 .291-.127.291-.284v-3.432a.288.288 0 0 0-.291-.284h-4.06a.288.288 0 0 0-.291.284v3.432c0 .157.13.284.291.284zM10.291 20h4.06c.16 0 .291-.127.291-.284v-3.432a.288.288 0 0 0-.291-.284h-4.06a.288.288 0 0 0-.291.284v3.432c0 .157.13.284.291.284zM17.291 14h4.06c.16 0 .291-.127.291-.284v-3.432a.288.288 0 0 0-.291-.284h-4.06a.288.288 0 0 0-.291.284v3.432c0 .157.13.284.291.284zM17.291 20h4.06c.16 0 .291-.127.291-.284v-3.432a.288.288 0 0 0-.291-.284h-4.06a.288.288 0 0 0-.291.284v3.432c0 .157.13.284.291.284zM3.291 14h4.06c.16 0 .291-.127.291-.284v-3.432A.288.288 0 0 0 7.351 10H3.29a.288.288 0 0 0-.291.284v3.432c0 .157.13.284.291.284zM7.35 20c.162 0 .292-.127.292-.284v-3.432A.288.288 0 0 0 7.351 16H3.29a.288.288 0 0 0-.291.284v3.432c0 .157.13.284.291.284h4.06z" fill="#FFF"/></g></svg>