<svg width="23" height="23" viewBox="0 0 23 23" xmlns="http://www.w3.org/2000/svg"><title>Сalendar settings@3x</title><g fill="none" fill-rule="evenodd"><g fill="#00D670"><path d="M7.13 10.905a.453.453 0 0 0-.458-.449H5.077c-.252 0-.456.201-.456.449v1.565c0 .248.204.449.456.449h1.595c.252 0 .457-.201.457-.449v-1.565zM11.114 10.905a.453.453 0 0 0-.456-.449H9.063c-.252 0-.457.201-.457.449v1.565c0 .248.205.449.457.449h1.595c.252 0 .456-.201.456-.449v-1.565zM7.13 14.818a.453.453 0 0 0-.458-.449H5.077c-.252 0-.456.2-.456.449v1.565c0 .247.204.448.456.448h1.595c.252 0 .457-.2.457-.448v-1.565z"/><path d="M17.951 4.592c0 1.08-.893 1.951-1.993 1.951H14.7c-1.1 0-2.005-.87-2.005-1.951v-2.4H7.026v2.4c0 1.08-.905 1.951-2.005 1.951H3.763c-1.1 0-1.994-.87-1.994-1.951V2.2C.807 2.229.017 3.01.017 3.97v14.013c0 .978.808 1.782 1.805 1.782h16.077c.995 0 1.805-.806 1.805-1.782V3.97c0-.96-.79-1.742-1.753-1.77v2.39zm-.161 12.464c0 .453-.36.82-.802.82H3.12a.812.812 0 0 1-.802-.82V9.299c0-.453.359-.821.802-.821h13.867c.443 0 .802.368.802.821v7.757z"/><path d="M3.758 5.262h1.244c.378 0 .684-.3.684-.671V.67A.677.677 0 0 0 5.002 0H3.758c-.377 0-.683.3-.683.671v3.92c0 .37.306.67.683.67zM14.684 5.262h1.244c.377 0 .684-.3.684-.671V.67A.677.677 0 0 0 15.928 0h-1.244C14.307 0 14 .3 14 .671v3.92c0 .37.307.67.684.67z"/></g><path d="M19.992 12.828a5.135 5.135 0 0 0-1.018-1.016c.13-.706.183-1.147.183-1.147a.149.149 0 0 0-.062-.134s-.165-.146-.71-.378c-.545-.232-.765-.25-.765-.25a.16.16 0 0 0-.138.048s-.277.34-.688.92a5.082 5.082 0 0 0-1.718 0c-.411-.58-.688-.92-.688-.92a.148.148 0 0 0-.139-.049s-.22.019-.764.251c-.545.232-.71.378-.71.378a.161.161 0 0 0-.062.134s.052.44.182 1.145c-.456.343-.854.76-1.174 1.235a19.229 19.229 0 0 0-1.158-.145.148.148 0 0 0-.13.067s-.14.171-.352.726c-.212.555-.223.776-.223.776a.161.161 0 0 0 .053.138s.363.277.975.682a5.18 5.18 0 0 0-.036.616v.09c0 .301.026.596.076.882-.59.436-.936.731-.936.731a.15.15 0 0 0-.046.14s.022.22.263.763c.24.543.388.707.388.707.03.04.09.066.135.06 0 0 .442-.06 1.148-.206.29.385.633.727 1.017 1.016-.13.706-.182 1.147-.182 1.147-.006.045.015.1.061.134 0 0 .166.146.71.378.546.232.765.25.765.25a.16.16 0 0 0 .139-.048s.277-.34.688-.92a5.082 5.082 0 0 0 1.718 0c.41.58.688.92.688.92a.148.148 0 0 0 .138.049s.22-.019.765-.251.71-.378.71-.378c.04-.03.068-.09.062-.134 0 0-.052-.44-.183-1.145.457-.343.855-.76 1.175-1.235.712.108 1.157.145 1.157.145.045.004.1-.02.131-.067 0 0 .14-.171.352-.726.212-.555.222-.776.222-.776a.161.161 0 0 0-.053-.138s-.362-.277-.975-.682a5.18 5.18 0 0 0 .037-.616v-.09c0-.301-.026-.596-.076-.882.59-.436.936-.731.936-.731a.15.15 0 0 0 .046-.14s-.022-.22-.263-.763c-.24-.543-.389-.707-.389-.707a.16.16 0 0 0-.134-.06s-.442.06-1.148.206zm-4.057.423a2.668 2.668 0 0 0-2.664 2.667v.064a2.667 2.667 0 0 0 2.664 2.667 2.668 2.668 0 0 0 2.663-2.667v-.064a2.667 2.667 0 0 0-2.663-2.667z" stroke="#FFF" fill="#00D56F"/></g></svg>