<svg width="72" height="161" viewBox="0 0 72 161" xmlns="http://www.w3.org/2000/svg"><title>torch@3x</title><g fill="none" fill-rule="evenodd"><g><path d="M40.102 30.274c2.707-8.579 3.383 21.997 3.383 21.997 2.096-4.527 5.438-5.85 8.316-12.173 2.878-6.323 3.254-9.164 2.18-14.16-.546-2.537-3.494-8.669-3.354-14.156.137-5.311 2.59-10.008 2.268-10.888-.655-1.788-22.21 11.953-27.794 26.834-5.577 14.878-4.181 31.622 11.59 41.513-12.746-21.991.703-30.388 3.41-38.967z" fill="#FAC039"/><path d="M29.612 149.45c.077.547.586.991 1.145.991H41.3c.556 0 1.062-.44 1.13-.991l5.316-42.504a.857.857 0 0 0-.875-.991H24.546c-.552 0-.937.44-.86.991l5.926 42.504z" fill="#303030"/><rect fill="#303030" x="19.111" y="99.699" width="33.208" height="4.639" rx="2"/><path d="M36.196 97.884c18.024 0 32.937-10.946 35.68-25.26H.516c2.745 14.309 17.654 25.26 35.68 25.26zM29.589 152.429h12.718v8.436H29.589z" fill="#303030"/></g><path d="M30.133 50.103c.791-4.141 8.974-8.54 11.287-11.072 4.44-4.86 2.89-14.694 4.802-13.092 1.912 1.601 5.29 9.229 4.193 16.377-.493 3.206-3.86 7.105-3.86 7.105s1.107-.088 3.427-1.09c2.319-1.002 2.616-4.84 2.796-3.311.18 1.528 1.452 4.907-1.653 7.381-3.377 2.691-6.01 4.297-8.119 6.383-4.547 4.496-1.656 10.303-1.656 10.303S27.825 62.19 30.133 50.103z" fill="#F00026"/><path d="M44.084 61.163c2.348-5.05 7.079-5.949 10.447-9.324 3.367-3.375-1.165-11.571.569-10.925 1.733.645 5.71 6.283 5.85 10.218.16 4.483-3.665 6.282-3.665 6.282s.595-.047 1.839-.585c1.244-.538 1.902-2.023 1.999-1.203.096.82-.129 5.203-4.116 8.353-3.987 3.15-11.827 4.747-11.827 4.747s-3.711-1.94-1.096-7.563z" fill="#009F4A"/><path d="M18.794 51.39c-1.732-8.217.722-14.21.743-15.492.014-.891-2.527.264-5.414 3.041-2.887 2.777-5.168 6.576-5.41 10.685-.29 4.914 2.987 7.312 3.656 8.63.602 1.185-3.528-2.086-2.895-.683 2.358 5.227 5.436 6.93 8.546 8.421 5.625 2.7 13.448 2.824 13.448 2.824S20.526 59.607 18.794 51.39z" fill="#008BC8"/><path d="M56.115 33.984c1.768-2.154.799-3.822 1.305-3.442.507.38 2.53 2.884 1.327 4.87-1.203 1.986-.562 3.641-1.222 3.208-.66-.432-3.179-2.483-1.41-4.636z" fill="#009F4A"/></g></svg>