<svg width="25" height="25" viewBox="0 0 25 25" xmlns="http://www.w3.org/2000/svg"><title>info off@3x</title><g fill="#AAA" fill-rule="evenodd"><path d="M10.543 9.385h3.78V19.77h-3.78zM12.458 3.73c-1.217 0-2.015.794-2.015 1.83 0 1.014.771 1.832 1.966 1.832 1.266 0 2.037-.818 2.037-1.832-.025-1.036-.77-1.83-1.988-1.83z"/><path d="M12.45.04C5.594.04.038 5.425.038 12.075c0 6.646 5.556 12.034 12.412 12.034 6.854 0 12.41-5.389 12.41-12.034C24.862 5.426 19.305.039 12.45.039zm0 23c-6.266 0-11.344-4.926-11.344-11 0-6.078 5.078-11 11.344-11 6.264 0 11.342 4.922 11.342 11 0 6.074-5.078 11-11.342 11z"/><path d="M10.694 9.121h3.697v9.61h-3.697zM12.461 4.404c-1.123 0-1.86.734-1.86 1.69 0 .936.712 1.69 1.815 1.69 1.169 0 1.88-.754 1.88-1.69-.022-.956-.71-1.69-1.835-1.69z"/></g></svg>