<svg width="25" height="25" viewBox="0 0 25 25" xmlns="http://www.w3.org/2000/svg"><title>info</title><g fill="none" fill-rule="evenodd"><path d="M12.45.04C5.594.04.038 5.425.038 12.075c0 6.646 5.556 12.034 12.412 12.034 6.854 0 12.41-5.389 12.41-12.034C24.862 5.426 19.305.039 12.45.039zm0 22.838c-6.155 0-11.141-4.837-11.141-10.802 0-5.97 4.986-10.805 11.14-10.805 6.153 0 11.14 4.835 11.14 10.805 0 5.965-4.987 10.802-11.14 10.802z" fill="#00D56F"/><circle fill="#00D56F" cx="12.5" cy="12.5" r="11.5"/><path fill="#FFF" d="M10.694 9.121h3.697v9.61h-3.697zM12.461 4.404c-1.123 0-1.86.734-1.86 1.69 0 .936.712 1.69 1.815 1.69 1.169 0 1.88-.754 1.88-1.69-.022-.956-.71-1.69-1.835-1.69z"/></g></svg>