<svg width="20" height="24" viewBox="0 0 20 24" xmlns="http://www.w3.org/2000/svg"><title>Notification off@3x</title><g fill="#FAC039" fill-rule="evenodd"><path d="M9.863 23.196c1.148 0 2.086-.954 2.086-2.12H7.778c0 1.166.938 2.12 2.085 2.12zm5.79-15.785a6.9 6.9 0 0 1 .988 3.597v5.829l2.086 2.12v1.06H4.863L15.653 7.41zm-2.495-2.4a6.953 6.953 0 0 0-1.73-.68V3.59c0-.848-.73-1.59-1.565-1.59C9.03 2 8.3 2.742 8.3 3.59v.742c-3.024.741-5.213 3.39-5.213 6.676v5.658c.078-.061.16-.138.244-.233 2.66-2.99 6.662-7.682 9.828-11.423zM18.613.27a.797.797 0 0 1 1.094-.096c.328.269.375.742.094 1.07L1.372 22.73a.797.797 0 0 1-1.093.095.743.743 0 0 1-.094-1.07L18.613.27z"/></g></svg>