<svg width="22" height="21" viewBox="0 0 22 21" xmlns="http://www.w3.org/2000/svg"><title>settings@3x</title><path d="M17.666 5.081a8.931 8.931 0 0 0-1.774-1.763c.228-1.225.318-1.99.318-1.99a.258.258 0 0 0-.107-.233S15.814.843 14.864.44c-.95-.403-1.332-.435-1.332-.435a.28.28 0 0 0-.242.084s-.482.591-1.199 1.596a8.896 8.896 0 0 0-2.995 0C8.38.679 7.897.088 7.897.088a.258.258 0 0 0-.241-.084S7.273.036 6.323.44c-.95.404-1.238.656-1.238.656a.28.28 0 0 0-.107.233s.09.764.318 1.987A8.915 8.915 0 0 0 3.249 5.46c-1.242-.187-2.018-.252-2.018-.252a.258.258 0 0 0-.228.116S.76 5.62.39 6.583C.02 7.546.002 7.93.002 7.93a.28.28 0 0 0 .092.238s.633.481 1.7 1.185c-.042.35-.064.707-.064 1.068v.158c0 .522.046 1.033.132 1.53-1.027.757-1.631 1.269-1.631 1.269-.06.05-.1.146-.08.243 0 0 .039.382.458 1.324.42.943.678 1.227.678 1.227a.28.28 0 0 0 .234.103s.771-.104 2.001-.356a8.931 8.931 0 0 0 1.774 1.763c-.228 1.225-.318 1.99-.318 1.99a.258.258 0 0 0 .107.233s.289.252 1.238.656c.95.403 1.333.435 1.333.435a.28.28 0 0 0 .241-.084s.483-.591 1.2-1.596a8.896 8.896 0 0 0 2.995 0 33.449 33.449 0 0 0 1.198 1.596c.05.06.144.102.242.084 0 0 .383-.032 1.332-.435.95-.404 1.239-.656 1.239-.656a.28.28 0 0 0 .107-.233s-.09-.764-.318-1.987a8.915 8.915 0 0 0 2.047-2.144c1.242.187 2.018.252 2.018.252a.258.258 0 0 0 .228-.116s.243-.297.612-1.26c.37-.963.389-1.347.389-1.347a.28.28 0 0 0-.093-.238s-.632-.481-1.7-1.185c.043-.35.064-.707.064-1.068v-.158c0-.522-.045-1.033-.132-1.53 1.027-.757 1.632-1.269 1.632-1.269.06-.05.1-.146.08-.243 0 0-.039-.382-.459-1.324-.42-.943-.677-1.227-.677-1.227a.28.28 0 0 0-.234-.103s-.771.104-2.001.356zm-7.072.735c-2.564 0-4.643 2.079-4.643 4.63v.109c0 2.557 2.084 4.629 4.643 4.629 2.564 0 4.643-2.079 4.643-4.63v-.109c0-2.557-2.084-4.629-4.643-4.629z" fill="#00D56F" fill-rule="evenodd"/></svg>