<svg width="23" height="20" viewBox="0 0 23 20" xmlns="http://www.w3.org/2000/svg"><title>sound1@3x</title><path d="M19.971.357c.073.085.177.216.326.42C21.91 2.98 23 6.444 23 9.66c0 3.217-1.074 6.603-2.574 8.703-.2.28-.342.453-.441.56a.804.804 0 0 1-1.478-.54.708.708 0 0 1 .127-.336s.207-.28.489-.685c1.064-1.527 2.254-4.485 2.27-7.702-.016-3.217-1.184-6.025-2.27-7.695-.312-.48-.483-.683-.483-.683a.693.693 0 0 1-.14-.43.804.804 0 0 1 1.471-.495zM16.71 3.513a.97.97 0 0 1 .092.104s.11.114.336.474c.991 1.52 1.718 3.477 1.74 5.503-.022 2.274-.559 4.075-1.74 5.668a7.376 7.376 0 0 1-.324.418.973.973 0 0 1-.108.114.803.803 0 0 1-1.424-.513c0-.256.12-.485.308-.632.084-.105.228-.28.448-.537 1.017-1.187 1.198-2.602 1.209-4.518-.011-1.598-.573-3.211-1.332-4.455a7.852 7.852 0 0 0-.43-.584.804.804 0 0 1 1.225-1.042zM6.056 4.841H1.025C.459 4.841 0 5.327 0 5.926v7.45c0 .6.459 1.085 1.025 1.085h5.03l5.692 4.685c.457.376 1.121.032 1.121-.58V.736c0-.611-.664-.955-1.12-.58L6.055 4.841z" fill="#00D670" fill-rule="evenodd"/></svg>