<svg width="23" height="24" viewBox="0 0 23 24" xmlns="http://www.w3.org/2000/svg"><title>Sound_off1@3x</title><g fill="#00D670" fill-rule="evenodd"><path d="M20.459 4.307c1.414 2.129 2.354 5.272 2.354 8.202 0 3.1-1.035 6.363-2.48 8.386-.193.27-.33.437-.426.54a.774.774 0 0 1-1.424-.521.682.682 0 0 1 .123-.323s.199-.27.47-.66c1.026-1.472 2.173-4.322 2.189-7.422-.015-2.804-.937-5.286-1.888-6.925l1.082-1.277zM17.536 7.76c.76 1.359 1.286 2.998 1.305 4.686-.022 2.19-.54 3.927-1.678 5.461-.233.314-.312.403-.312.403a.938.938 0 0 1-.104.11.773.773 0 0 1-1.372-.494c0-.247.116-.468.296-.61.081-.1.22-.27.432-.517.98-1.143 1.154-2.507 1.165-4.353-.008-1.185-.33-2.379-.812-3.412l1.08-1.274zM5.532 17.135H1.638c-.546 0-.988-.468-.988-1.045V8.91c0-.577.442-1.045.988-1.045h4.847l5.485-4.514c.44-.362 1.08-.03 1.08.558v4.35l-7.518 8.876zm2.785 1.508l3.653 3.006c.44.362 1.08.03 1.08-.558v-8.036l-4.733 5.588zM20.353.696a.784.784 0 0 1 1.094-.098.77.77 0 0 1 .094 1.094L3.112 23.654a.784.784 0 0 1-1.093.098.77.77 0 0 1-.094-1.094L20.353.696z"/></g></svg>