<svg width="23" height="20" viewBox="0 0 23 20" xmlns="http://www.w3.org/2000/svg"><title>Vibrate off</title><g fill="none" fill-rule="evenodd"><path d="M9.54 19.235c.256.625.98.928 1.619.677l7.773-3.054c.639-.25.949-.96.692-1.585L13.671.765a1.255 1.255 0 0 0-1.62-.677L4.276 3.142a1.21 1.21 0 0 0-.691 1.585l5.953 14.508zm5.203-1.533a.79.79 0 0 1-1.02-.426.762.762 0 0 1 .436-.998.79.79 0 0 1 1.02.426.762.762 0 0 1-.436.998zM6.681 5.546l5.457-2.143a.298.298 0 0 1 .385.16l3.951 9.63a.287.287 0 0 1-.164.377l-5.456 2.143a.298.298 0 0 1-.385-.16l-3.951-9.63a.286.286 0 0 1 .163-.377z" fill="#00A2FF"/><path d="M18.487 1.266l-1.651 3.472 3.535 1.687-1.446 3.356 3.401 1.598M5.036 18.298l1.529-3.527-3.592-1.563 1.328-3.405L.846 8.326" stroke="#00A2FF" stroke-linecap="square"/></g></svg>