<?xml version="1.0" encoding="UTF-8" standalone="no"?>
<svg width="163px" height="163px" viewBox="0 0 163 163" version="1.1" xmlns="http://www.w3.org/2000/svg" xmlns:xlink="http://www.w3.org/1999/xlink">
    <!-- Generator: Sketch 3.6.1 (26313) - http://www.bohemiancoding.com/sketch -->
    <title>Group 5</title>
    <desc>Created with Sketch.</desc>
    <defs>
        <path id="path-1" d="M104.868692,0 C121.03175,0 129.111267,0 137.811975,2.75041667 C147.310975,6.20789167 154.792108,13.689025 158.249583,23.188025 C161,31.8873917 161,39.9695917 161,56.1313083 L161,104.868692 C161,121.03175 161,129.111267 158.249583,137.811975 C154.792108,147.310975 147.310975,154.792108 137.811975,158.248242 C129.111267,161 121.03175,161 104.868692,161 L56.1313083,161 C39.96825,161 31.8873917,161 23.188025,158.248242 C13.689025,154.792108 6.20789167,147.310975 2.75041667,137.811975 C0,129.111267 0,121.03175 0,104.868692 L0,56.1313083 C0,39.9695917 0,31.8873917 2.75041667,23.188025 C6.20789167,13.689025 13.689025,6.20789167 23.188025,2.75041667 C31.8873917,0 39.96825,0 56.1313083,0 L104.868692,0 Z"></path>
        <linearGradient x1="64.1971919%" y1="10.3400305%" x2="50%" y2="100%" id="linearGradient-3">
            <stop stop-color="#FFDE00" offset="0%"></stop>
            <stop stop-color="#FFA800" offset="100%"></stop>
        </linearGradient>
        <linearGradient x1="50%" y1="0%" x2="50%" y2="100%" id="linearGradient-4">
            <stop stop-color="#4F4F4F" offset="0%"></stop>
            <stop stop-color="#000000" offset="100%"></stop>
        </linearGradient>
        <linearGradient x1="62.0111223%" y1="0%" x2="50%" y2="100%" id="linearGradient-5">
            <stop stop-color="#FF2D1C" offset="0%"></stop>
            <stop stop-color="#D20B00" offset="100%"></stop>
        </linearGradient>
        <linearGradient x1="50%" y1="8.1804807%" x2="50%" y2="100%" id="linearGradient-6">
            <stop stop-color="#00DB54" offset="0%"></stop>
            <stop stop-color="#00941D" offset="100%"></stop>
        </linearGradient>
        <linearGradient x1="50%" y1="0%" x2="50%" y2="100%" id="linearGradient-7">
            <stop stop-color="#009CE0" offset="0%"></stop>
            <stop stop-color="#005C85" offset="100%"></stop>
        </linearGradient>
        <linearGradient x1="50%" y1="0%" x2="50%" y2="100%" id="linearGradient-8">
            <stop stop-color="#303030" offset="0%"></stop>
            <stop stop-color="#656565" offset="100%"></stop>
        </linearGradient>
        <filter x="-50%" y="-50%" width="200%" height="200%" filterUnits="objectBoundingBox" id="filter-9">
            <feOffset dx="0" dy="1" in="SourceAlpha" result="shadowOffsetInner1"></feOffset>
            <feGaussianBlur stdDeviation="0.5" in="shadowOffsetInner1" result="shadowBlurInner1"></feGaussianBlur>
            <feComposite in="shadowBlurInner1" in2="SourceAlpha" operator="arithmetic" k2="-1" k3="1" result="shadowInnerInner1"></feComposite>
            <feColorMatrix values="0 0 0 0 0.185932185   0 0 0 0 0.185932185   0 0 0 0 0.185932185  0 0 0 0.7 0" in="shadowInnerInner1" type="matrix" result="shadowMatrixInner1"></feColorMatrix>
            <feMerge>
                <feMergeNode in="SourceGraphic"></feMergeNode>
                <feMergeNode in="shadowMatrixInner1"></feMergeNode>
            </feMerge>
        </filter>
        <linearGradient x1="50%" y1="0%" x2="50%" y2="100%" id="linearGradient-10">
            <stop stop-color="#868686" offset="0%"></stop>
            <stop stop-color="#EDEDED" offset="30.5314305%"></stop>
            <stop stop-color="#373737" offset="100%"></stop>
        </linearGradient>
        <filter x="-50%" y="-50%" width="200%" height="200%" filterUnits="objectBoundingBox" id="filter-11">
            <feOffset dx="0" dy="1" in="SourceAlpha" result="shadowOffsetOuter1"></feOffset>
            <feGaussianBlur stdDeviation="0.5" in="shadowOffsetOuter1" result="shadowBlurOuter1"></feGaussianBlur>
            <feColorMatrix values="0 0 0 0 0.395222151   0 0 0 0 0.395222151   0 0 0 0 0.395222151  0 0 0 0.572554348 0" in="shadowBlurOuter1" type="matrix" result="shadowMatrixOuter1"></feColorMatrix>
            <feMerge>
                <feMergeNode in="shadowMatrixOuter1"></feMergeNode>
                <feMergeNode in="SourceGraphic"></feMergeNode>
            </feMerge>
        </filter>
        <linearGradient x1="50%" y1="0%" x2="50%" y2="100%" id="linearGradient-12">
            <stop stop-color="#AEAEAE" offset="0%"></stop>
            <stop stop-color="#CDCDCD" offset="100%"></stop>
        </linearGradient>
        <filter x="-50%" y="-50%" width="200%" height="200%" filterUnits="objectBoundingBox" id="filter-13">
            <feOffset dx="0" dy="1" in="SourceAlpha" result="shadowOffsetInner1"></feOffset>
            <feGaussianBlur stdDeviation="0.5" in="shadowOffsetInner1" result="shadowBlurInner1"></feGaussianBlur>
            <feComposite in="shadowBlurInner1" in2="SourceAlpha" operator="arithmetic" k2="-1" k3="1" result="shadowInnerInner1"></feComposite>
            <feColorMatrix values="0 0 0 0 0.185932185   0 0 0 0 0.185932185   0 0 0 0 0.185932185  0 0 0 0.7 0" in="shadowInnerInner1" type="matrix" result="shadowMatrixInner1"></feColorMatrix>
            <feMerge>
                <feMergeNode in="SourceGraphic"></feMergeNode>
                <feMergeNode in="shadowMatrixInner1"></feMergeNode>
            </feMerge>
        </filter>
    </defs>
    <g id="Page-1" stroke="none" stroke-width="1" fill="none" fill-rule="evenodd">
        <g id="Экран-0.0" transform="translate(-106.000000, -252.000000)">
            <g id="Group-5" transform="translate(107.000000, 253.000000)">
                <g id="icon">
                    <mask id="mask-2" fill="white">
                        <use xlink:href="#path-1"></use>
                    </mask>
                    <use id="Mask" stroke-opacity="0.5" stroke="#FFFFFF" stroke-width="0.5" fill-opacity="0" fill="#D8D8D8" xlink:href="#path-1"></use>
                    <g id="ios-grid" opacity="0.5" mask="url(#mask-2)">
                        <circle id="circle-1" stroke="#FFFFFF" stroke-width="0.5" cx="80.2643902" cy="80.2643902" r="69.897561"></circle>
                        <ellipse id="circle-2" stroke="#FFFFFF" stroke-width="0.5" cx="80.2643902" cy="80.2643902" rx="43.195122" ry="43.195122"></ellipse>
                        <path id="path-1" fill="#FFFFFF" d="M0.0785365854,10.7603659 L0.0785365854,10.4453659 L160.921463,10.4453659 L160.921463,10.7603659 L0.0785365854,10.7603659 L0.0785365854,10.7603659 Z"></path>
                        <path id="path-2" fill="#FFFFFF" d="M0.0785365854,150.712561 L0.0785365854,150.397561 L160.921463,150.397561 L160.921463,150.712561 L0.0785365854,150.712561 L0.0785365854,150.712561 Z"></path>
                        <path id="path-3" fill="#FFFFFF" d="M0.0785365854,50.3428049 L0.0785365854,50.0278049 L160.921463,50.0278049 L160.921463,50.3428049 L0.0785365854,50.3428049 L0.0785365854,50.3428049 Z"></path>
                        <path id="path-4" fill="#FFFFFF" d="M0.0785365854,111.130122 L0.0785365854,110.815122 L160.921463,110.815122 L160.921463,111.130122 L0.0785365854,111.130122 L0.0785365854,111.130122 Z"></path>
                        <path id="path-5" fill="#FFFFFF" d="M110.972195,0.0785365854 L111.287195,0.0785365854 L111.287195,160.921463 L110.972195,160.921463 L110.972195,0.0785365854 L110.972195,0.0785365854 Z"></path>
                        <path id="path-6" fill="#FFFFFF" d="M50.0278049,0.0785365854 L50.3428049,0.0785365854 L50.3428049,160.921463 L50.0278049,160.921463 L50.0278049,0.0785365854 L50.0278049,0.0785365854 Z"></path>
                        <path id="path-7" fill="#FFFFFF" d="M10.4453659,0.0785365854 L10.7603659,0.0785365854 L10.7603659,160.921463 L10.4453659,160.921463 L10.4453659,0.0785365854 L10.4453659,0.0785365854 Z"></path>
                        <path id="path-8" fill="#FFFFFF" d="M150.397561,0.0785365854 L150.712561,0.0785365854 L150.712561,160.921463 L150.397561,160.921463 L150.397561,0.0785365854 L150.397561,0.0785365854 Z"></path>
                        <path id="path-9" fill="#FFFFFF" d="M80.3429268,0.0785365854 L80.6579268,0.0785365854 L80.6579268,160.921463 L80.3429268,160.921463 L80.3429268,0.0785365854 L80.3429268,0.0785365854 Z"></path>
                        <path id="path-10" fill="#FFFFFF" d="M0.0785365854,80.3429268 L160.921463,80.3429268 L160.921463,80.6579268 L0.0785365854,80.6579268 L0.0785365854,80.3429268 Z"></path>
                        <path d="M160.86586,0.0229326829 L160.977067,0.134140488 L0.134140488,160.977067 L0.0229326829,160.86586 L160.86586,0.0229326829 L160.86586,0.0229326829 Z" id="path-11" stroke="#FFFFFF" stroke-width="0.5"></path>
                        <path d="M0.0229326829,0.134140488 L0.134140488,0.0229326829 L160.977067,160.86586 L160.86586,160.977067 L0.0229326829,0.134140488 L0.0229326829,0.134140488 Z" id="path-12" stroke="#FFFFFF" stroke-width="0.5"></path>
                    </g>
                    <path d="M112.167159,86.5952021 L111.333072,88.8146123 C108.977504,95.0816631 104.847162,100.440416 99.3877842,104.311491 C93.8065557,108.268884 87.2371582,110.360783 80.3893125,110.36094 C80.141209,110.36094 79.8937344,110.357324 79.6465742,110.351979 C79.5615146,110.350092 79.4767695,110.347262 79.3920244,110.344746 C79.2314961,110.339872 79.0714395,110.334055 78.91154,110.327137 C78.8069844,110.322577 78.7027432,110.317703 78.598502,110.312043 C78.4621865,110.304968 78.3263428,110.296006 78.190499,110.287201 C77.6939775,110.254341 77.1993428,110.211261 76.7070664,110.156231 C76.651251,110.1501 76.5951211,110.143968 76.5394629,110.137679 C76.3602246,110.116768 76.181458,110.094599 76.0030059,110.070857 C75.97046,110.066455 75.9377568,110.061738 75.9050537,110.057493 C75.0997393,109.947592 74.3005566,109.808604 73.5089209,109.640057 C73.4942988,109.636912 73.479834,109.633768 73.4653691,109.630623 C72.8784424,109.504685 72.2960752,109.362552 71.7184248,109.205011 C71.6965703,109.199036 71.674873,109.193533 71.6531758,109.187559 C71.5143447,109.14951 71.3762998,109.10926 71.2379404,109.069167 C71.1322842,109.038508 71.0266279,109.007849 70.9212861,108.975932 C70.8116992,108.942914 70.7022695,108.909582 70.5929971,108.875464 C70.4220918,108.822007 70.251501,108.767135 70.0812246,108.710848 C70.0307549,108.694024 69.9801279,108.677987 69.9298154,108.661164 C69.1686816,108.404728 68.4150947,108.119833 67.669998,107.805852 L77.2378633,71.620001 C79.5027119,72.0275322 81.8592236,72.0258027 84.1223428,71.6160703 L92.6608457,103.909777 C94.2560664,103.167668 95.791541,102.278237 97.2502891,101.243844 C98.6620264,100.242782 99.9704658,99.1266309 101.172148,97.9145713 L93.1002939,67.3849463 C97.4996504,63.6791162 100.090901,58.1453701 100.090901,52.3338047 C100.090901,43.4178008 94.1438066,35.6993916 85.7438203,33.4186631 L85.7438203,18.8686025 L75.9814658,18.8686025 L75.9814658,33.3188242 C72.0923096,34.2936289 68.5674473,36.4779775 65.9298145,39.5756553 C62.9099639,43.1220576 61.2468213,47.6528555 61.2468213,52.3338047 C61.2468213,58.1554326 63.8451475,63.6949961 68.2566104,67.4009834 L58.9928213,102.437508 C58.9557158,102.406062 58.9186104,102.374774 58.8819766,102.343015 C58.6797832,102.168808 58.4794766,101.992714 58.282,101.81379 C58.2165937,101.754673 58.1521309,101.694455 58.0871963,101.634709 C57.8758838,101.440377 57.6658291,101.245259 57.4600195,101.045896 C57.4488564,101.03489 57.4376934,101.023569 57.4265303,101.012563 C56.7095771,100.316521 56.0259561,99.5893486 55.3764531,98.833875 C55.3553848,98.8095049 55.3336875,98.785292 55.3129336,98.7607646 C55.1231611,98.5390752 54.9379482,98.3139268 54.7541504,98.0872061 C54.7054102,98.0269883 54.6563555,97.9669277 54.6080869,97.9065527 C54.4341943,97.6886367 54.2631318,97.4685195 54.094585,97.2465156 C54.0431719,97.1785938 53.9922305,97.110043 53.9412891,97.0416494 C53.7735283,96.8169727 53.6078115,96.5911953 53.4460254,96.3624307 C53.4087627,96.3100742 53.3727578,96.2566172 53.3359668,96.2037891 C52.8152324,95.4586924 52.3256289,94.691584 51.8665273,93.9045078 C51.8214033,93.8268379 51.7745498,93.7501113 51.7298975,93.672127 C51.6111914,93.4649023 51.4968877,93.2546904 51.3824268,93.0446357 C51.3146621,92.9199551 51.246583,92.7954316 51.1802334,92.6699648 C51.0763066,92.47296 50.9750527,92.2743828 50.8748994,92.0751768 C50.8032041,91.9322578 50.7322949,91.7885527 50.6626436,91.644376 C50.5694082,91.4519307 50.476959,91.2590137 50.3873398,91.0648389 C50.3154873,90.9090273 50.2463076,90.7514863 50.1768135,90.594417 C50.0931689,90.4054307 50.0085811,90.2170732 49.9282383,90.0265146 C49.8546562,89.851207 49.7853193,89.6738555 49.7144102,89.4974473 C49.6488467,89.33346 49.5807676,89.1712021 49.5175625,89.005957 L48.6751426,86.8055713 L48.6738848,86.8065146 L48.6735703,86.8055713 L40.4067549,92.4636836 L41.0001279,93.8807666 C44.2740566,101.700587 49.6332812,108.171089 56.2658838,112.751099 L51.6839873,129.907661 L58.5900068,141.974171 L65.1235566,117.437551 C65.7232187,117.66946 66.3291699,117.886904 66.9404668,118.091613 C66.9577617,118.097431 66.9748994,118.103091 66.9920371,118.109065 C67.2498887,118.195068 67.5086836,118.278713 67.7684219,118.359842 C67.8262812,118.377923 67.8839834,118.39679 67.9418428,118.414714 C68.1805127,118.488139 68.4199687,118.559205 68.6600537,118.628542 C68.9032832,118.698822 69.1474561,118.766272 69.3919434,118.83215 C69.4285771,118.842056 69.4652109,118.85259 69.502002,118.862181 C69.7442881,118.926958 69.9872031,118.989062 70.2304326,119.049595 C70.2349922,119.050538 70.2395518,119.051953 70.2439541,119.053054 C72.4760996,119.605862 74.7521113,119.97503 77.0627129,120.157728 C77.148873,120.164646 77.234876,120.17235 77.3211934,120.178639 C77.484709,120.190745 77.6485391,120.200808 77.8122119,120.21087 C77.9622061,120.220304 78.1122002,120.229108 78.2625088,120.236812 C78.3974092,120.24373 78.5323096,120.250177 78.6675244,120.255837 C78.8620137,120.263855 79.0569746,120.270459 79.25225,120.275962 C79.3530322,120.278949 79.4539717,120.282408 79.5549111,120.284452 C79.856,120.291056 80.1575605,120.294986 80.45975,120.295301 L80.4614795,120.295301 C80.468083,120.295301 80.4746865,120.295458 80.4814473,120.295458 C85.91221,120.295458 91.2208076,119.273014 96.1824062,117.300449 L102.770985,141.974171 L109.677005,129.907661 L105.012879,112.511328 C111.685417,107.803493 116.862259,101.338651 120.005218,93.7766826 L120.593245,92.3618008 L112.167159,86.5952021 L112.167159,86.5952021 Z M80.6688613,41.7411367 C86.4590439,41.7411367 91.169709,46.4929951 91.169709,52.3338047 C91.169709,58.1746143 86.4590439,62.9264727 80.6688613,62.9264727 C74.8786787,62.9264727 70.1680137,58.1746143 70.1680137,52.3338047 C70.1680137,46.4929951 74.8786787,41.7411367 80.6688613,41.7411367 L80.6688613,41.7411367 Z" id="logo" fill="#FFFFFF" mask="url(#mask-2)"></path>
                </g>
                <rect id="Rectangle-32-Copy" stroke="#939292" stroke-width="0.5" fill="#FFFFFF" x="1" y="1" width="160" height="160" rx="31.5"></rect>
                <g id="Group-3-Copy" transform="translate(37.000000, 45.000000)">
                    <g id="Group-2" transform="translate(-0.000000, 0.000000)">
                        <g id="tool-copy">
                            <g id="Capa_1">
                                <g id="Group">
                                    <path d="M49.7989793,30.3299833 C53.4516032,20.6138121 54.3639386,55.2424336 54.3639386,55.2424336 C57.1913645,50.1153522 61.7000401,48.6181193 65.5828323,41.4562442 C69.4656246,34.2943691 69.9723161,31.0771114 68.5235112,25.4199463 C67.7873489,22.5454447 63.809507,15.6010432 63.9993027,9.38690357 C64.1830346,3.37130092 65.4168197,1.29709834 64.9821295,0.300526837 C64.0984027,-1.72550669 37.0950313,10.5924461 29.5620352,27.4459798 C22.0378768,44.2962287 23.9202778,63.2598027 45.196758,74.4621632 C28.0024694,49.5557894 46.1463554,40.0461544 49.7989793,30.3299833 Z" id="Shape" fill="url(#linearGradient-3)"></path>
                                    <path d="M44.5302694,106.902916 C66.9316193,106.902916 85.4654077,94.5052982 88.8753699,78.2945026 L0.185168943,78.2945026 C3.59580904,94.499276 22.1255299,106.902916 44.5302694,106.902916 Z" id="Shape" fill="url(#linearGradient-4)"></path>
                                </g>
                            </g>
                        </g>
                        <path d="M36.3506301,52.7871054 C37.4177034,48.0974702 48.4571228,43.1148151 51.5780653,40.2470514 C57.5672291,34.7437435 55.4764485,23.6060953 58.0562414,25.4199463 C60.6360343,27.2337973 65.1935505,35.8719898 63.7124,43.9675753 C63.0480418,47.5987851 58.5049455,52.0149889 58.5049455,52.0149889 C58.5049455,52.0149889 59.9993082,51.9156784 63.1281798,50.7804412 C66.2570513,49.6452039 66.658359,45.2994272 66.9010499,47.0300302 C67.1437407,48.7606332 68.8598202,52.5885201 64.6711887,55.3900491 C60.1140512,58.4380501 56.5632075,60.2569305 53.7175036,62.6190173 C47.5825683,67.7113423 51.4837253,74.288566 51.4837253,74.288566 C51.4837253,74.288566 33.2358172,66.4762638 36.3506301,52.7871054 Z" id="Rectangle-31" fill="url(#linearGradient-5)"></path>
                        <path d="M55.1713292,65.3136712 C58.3389356,59.5947692 64.7219171,58.576315 69.2652876,54.7538469 C73.808658,50.9313788 67.6945746,41.6485869 70.0329459,42.3799085 C72.3713171,43.1112301 77.7362507,49.495732 77.9261156,53.9532238 C78.1423794,59.0304875 72.9815037,61.0672518 72.9815037,61.0672518 C72.9815037,61.0672518 73.7832174,61.0139725 75.4618321,60.4049267 C77.1404468,59.795881 78.0285305,58.1138457 78.1587322,59.0423004 C78.2889339,59.9707552 77.9849877,64.9356663 72.6060876,68.5033965 C67.2271875,72.0711267 56.6495934,73.8794058 56.6495934,73.8794058 C56.6495934,73.8794058 51.6435476,71.6828455 55.1713292,65.3136712 Z" id="Rectangle-31-Copy" fill="url(#linearGradient-6)"></path>
                        <path d="M21.0527651,54.2450805 C18.7162555,44.9385303 22.027041,38.1521997 22.054923,36.6997253 C22.0743099,35.6897914 18.6453556,36.9986209 14.7506419,40.1434167 C10.8559281,43.2882125 7.77904727,47.5909471 7.4517408,52.2454096 C7.06039753,57.8105078 11.4816163,60.5257827 12.3845114,62.0186575 C13.1963839,63.3610326 7.62460937,59.6564232 8.47885422,61.245699 C11.6607117,67.1653707 15.8127575,69.0931106 20.0087824,70.7831729 C27.5973878,73.8396885 38.1518183,73.9810293 38.1518183,73.9810293 C38.1518183,73.9810293 23.3892747,63.5516308 21.0527651,54.2450805 Z" id="Rectangle-31-Copy-2" fill="url(#linearGradient-7)"></path>
                    </g>
                    <path d="M71.4098898,34.5440757 C73.8192774,32.0843247 72.5305389,30.2045096 73.2094703,30.6293484 C73.8884017,31.0541873 76.5889687,33.8692175 74.9437737,36.1331704 C73.2985787,38.3971233 74.1445362,40.2651318 73.2592167,39.782506 C72.3738972,39.2998802 69.0005022,37.0038267 71.4098898,34.5440757 Z" id="Rectangle-34" fill="#00D751"></path>
                    <path d="M16.8756077,22.4883181 C18.8621672,20.1940128 17.7814562,18.4228718 18.3475855,18.8253505 C18.9137148,19.2278292 21.1719778,21.8844933 19.8188178,23.9994188 C18.4656577,26.1143442 19.1786597,27.871894 18.440838,27.4140226 C17.7030162,26.9561512 14.8890481,24.7826234 16.8756077,22.4883181 Z" id="Rectangle-34-Copy" fill="#00A1E8" transform="translate(18.211161, 23.127591) rotate(-3.000000) translate(-18.211161, -23.127591) "></path>
                </g>
                <circle id="Oval-36-Copy-2" fill="url(#linearGradient-8)" filter="url(#filter-9)" cx="50" cy="17" r="3"></circle>
                <rect id="Rectangle-101-Copy" fill="url(#linearGradient-10)" filter="url(#filter-11)" x="49" y="16" width="65" height="4" rx="31.5"></rect>
                <rect id="Rectangle-111-Copy" fill="url(#linearGradient-12)" x="1" y="35" width="160" height="2"></rect>
                <circle id="Oval-36-Copy-3" fill="url(#linearGradient-8)" filter="url(#filter-13)" cx="112" cy="17" r="3"></circle>
            </g>
        </g>
    </g>
</svg>