<svg width="19" height="25" viewBox="0 0 19 25" xmlns="http://www.w3.org/2000/svg"><title>opening ceremony@3x</title><g fill="#00D670" fill-rule="evenodd"><path d="M9.55 6.831c1.127.364 2.347-.224 2.724-1.316.376-1.09-.234-2.27-1.361-2.634-1.13-.365-2.35.225-2.725 1.316-.377 1.091.233 2.27 1.361 2.634z"/><path d="M18.544 5.208h-.627c.307-.242.547-.578.712-.975C19.222 2.808 18.15 0 16.89 0c.497.683.706 1.83-.266 2.785-.176-.318-.096-.785-.113-1.188-.775.342-1.449 1.211-1.449 2.418 0 .476.22.9.56 1.193h-.307a.424.424 0 0 0-.431.417c0 .23.192.417.431.417h.066c.108.376.354.694.686.898l.098 1.498-3.237.837-2.41-1.478a3.89 3.89 0 0 0-.777-.34l-.751-.242c-.176-.057-.694-.152-.908-.1L3.859 8.12a.887.887 0 0 0-.682.733L2.682 12.4c-.073.526.353.993.9.993.446 0 .836-.32.897-.76l.412-2.955 1.41-.334-1.374 3.982-.462 4.564-3.1-.601c-.618-.12-1.2.264-1.32.85-.122.588.272 1.16.879 1.278l4.3.833c.657.124 1.265-.322 1.336-.944l.333-2.909.2.065 2.23 1.615-.557 5.735c-.058.596.394 1.125 1.01 1.182.623.055 1.165-.385 1.223-.98l.617-6.34a1.069 1.069 0 0 0-.444-.97L9.039 15.16l1.75-5.073 1.543.883a.938.938 0 0 0 .696.093l3.254-.841.065.996c.02.297.274.529.583.529a.575.575 0 0 0 .582-.529l.279-4.277c.333-.204.579-.523.687-.899h.066a.424.424 0 0 0 .432-.417.425.425 0 0 0-.432-.417z"/></g></svg>