<svg width="23" height="22" viewBox="0 0 23 22" xmlns="http://www.w3.org/2000/svg"><title>Track cycling Copy@3x</title><g fill="none" fill-rule="evenodd"><path d="M10.4 4.529L5.623 9.613a1.104 1.104 0 0 0 .288 1.54l4.81 3.284v3.193c0 .607.484 1.116 1.093 1.128a1.11 1.11 0 0 0 1.132-1.109v-3.792c0-.367-.181-.709-.483-.914l-3.086-2.108 2.597-2.745 1.33 3.02c.177.402.578.662 1.018.662h4.051c.61 0 1.12-.482 1.132-1.089a1.11 1.11 0 0 0-1.112-1.128h-3.34c-.44-.997-.91-1.985-1.318-2.997-.208-.511-.324-.733-.707-1.084-.077-.073-.616-.564-1.098-1.003a1.096 1.096 0 0 0-1.53.058z" fill="#B3B3B3"/><ellipse fill="#B3B3B3" cx="14.956" cy="2.543" rx="2.549" ry="2.54"/><ellipse fill="#B3B3B3" cx="4.692" cy="17.307" rx="4.692" ry="4.675"/><ellipse stroke="#B3B3B3" cx="18.294" cy="17.307" rx="4.692" ry="4.675"/></g></svg>