<svg width="28" height="24" viewBox="0 0 28 24" xmlns="http://www.w3.org/2000/svg"><title>Mountain biking@3x</title><g fill="#00D670" fill-rule="evenodd"><path d="M22.893 3.72c.576.951.581 1.321.585 1.591.003.158.005.31.11.497l-.9 1.027.638.558.874-1 .019-.002c.092-.008.183-.015.277-.016.002.305.208.582.29.68l.246.74.035.034c.307.3.813.295 1.113-.01a.785.785 0 0 0 .203-.717c.048.042.094.079.141.107.131.079.329.123.532-.108.515-.588.01-1.844-1.152-2.859-.424-.37-1.06-.827-1.616-1.162-1.124-.675-1.447-.584-1.601-.427-.242.241-.017.697.206 1.067zm1.187-.294c.53.32 1.157.77 1.559 1.12 1.04.91 1.422 1.937 1.112 2.29l-.023.025a1.208 1.208 0 0 1-.157-.136c-.21-.2-.606-.515-1.087-.649l-.645-.1-.086-.003a4.392 4.392 0 0 0-.485.008l-.14-.12-.842.961-.03-.025.844-.964-.1-.131c-.115-.15-.116-.227-.119-.396-.005-.299-.011-.749-.643-1.795-.211-.35-.249-.507-.254-.566.085 0 .367.043 1.096.481z"/><path d="M18.533 7.637l.407.385c.287.27.618.448.973.52.107.716.219 1.43.337 2.125.034.498.787.988.795.993l2.665 1.601c.57.343 1.31.16 1.651-.408a1.204 1.204 0 0 0-.414-1.65l-2.284-1.372c-.145-.87-.277-1.741-.408-2.614.264-.683.09-1.379-.48-1.918L16.883.678a2.713 2.713 0 0 0-.462-.353 2.123 2.123 0 0 0-2.613.308c-.26.146-.33.427-.391.677a2.5 2.5 0 0 1-.07.246l-3.534 9.892a1.442 1.442 0 0 0 .873 1.838 1.438 1.438 0 0 0 1.838-.866l.302-.846c.189.151.409.247.64.287 2.794.494 4.023-.79 4.507-1.6.416-.696.607-1.596.56-2.624zm-4.11 2.11c-.196-.034-.947-.104-1.07-.083l-.347.06.114-.327 1.773-4.798.231.132c1.064.64 1.683 3.347 1.164 4.215-.228.382-.774.994-1.865.802zM7.482 6.035a2.196 2.196 0 0 1 .756 3.01 2.197 2.197 0 0 1-3.012.745 2.197 2.197 0 0 1-.756-3.01 2.197 2.197 0 0 1 3.012-.745zm.948-1.577A4.042 4.042 0 0 0 2.888 5.83c-1.144 1.905-.52 4.389 1.39 5.537 1.911 1.148 4.397.533 5.542-1.372a4.041 4.041 0 0 0-1.39-5.537z"/><path d="M20.53 13.874a2.197 2.197 0 0 1 .756 3.01 2.197 2.197 0 0 1-3.013.746 2.196 2.196 0 0 1-.756-3.01 2.196 2.196 0 0 1 3.013-.746zm.947-1.577a4.042 4.042 0 0 0-5.542 1.373c-1.144 1.904-.52 4.389 1.39 5.537 1.912 1.148 4.398.533 5.543-1.372 1.145-1.905.521-4.389-1.39-5.538zM0 10.83c0-.55.427-.864.949-.665 0 0 .9.14 2.257 1.405.723.674.999 2.533 2.104 3.323.852.608 2.924.778 3.815 1.42.762.55 1.615 2.297 2.41 2.78 1.203.73 1.138-1.245 5.5.617 1.234.527 1.984 1.685 2.775 2.165a530.38 530.38 0 0 0 2.671 1.613c.47.283.407.512-.15.512H1.003A.995.995 0 0 1 0 23.004V10.83z"/></g></svg>