<svg width="24" height="22" viewBox="0 0 24 22" xmlns="http://www.w3.org/2000/svg"><title>Diving Copy@3x</title><g fill="#B3B3B3" fill-rule="evenodd"><ellipse cx="14.546" cy="4.611" rx="2.546" ry="2.611"/><path d="M11.496 4.795c-.064-.105-.269-.308-.456-.459L6.048.245A1.073 1.073 0 0 0 4.514.42c-.377.483-.3 1.187.17 1.573l2.322 1.903-2.12-.08C3.88 3.777 3 4.58 3 5.61c0 .862.317 1.228.434 1.362l2.034 2.329-1.88 2.962a1.137 1.137 0 0 0 .32 1.548c.183.123.39.181.594.181.356 0 .706-.179.915-.508l2.337-3.68c.27-.425.228-.981-.102-1.358l-.716-.82 3.01.114.07.001c.973 0 1.78-.79 1.816-1.796a1.89 1.89 0 0 0-.336-1.15zM9.2 14.926H1.396a.672.672 0 0 0-.663.68c0 .376.296.68.663.68h7.141v5.023c0 .376.297.68.663.68a.672.672 0 0 0 .664-.68v-5.703a.672.672 0 0 0-.664-.68zM20.523 15.183c0-.28-.198-.507-.442-.507s-.442.227-.442.507c0 .628-1.04 1.33-2.432 1.33s-2.432-.702-2.432-1.33c0-.28-.198-.507-.442-.507-.266 0-.464.227-.464.507 0 .628-1.04 1.33-2.432 1.33-.245 0-.443.226-.443.507 0 .28.198.507.443.507 1.251 0 2.32-.467 2.885-1.172.565.705 1.633 1.172 2.885 1.172 1.243 0 2.306-.46 2.874-1.158.568.698 1.63 1.158 2.874 1.158.245 0 .443-.227.443-.507s-.198-.508-.443-.508c-1.392 0-2.432-.701-2.432-1.329zM23.04 20.31c-1.393 0-2.433-.7-2.433-1.328 0-.28-.198-.508-.442-.508s-.442.228-.442.508c0 .627-1.04 1.329-2.432 1.329s-2.432-.702-2.432-1.33c0-.28-.198-.507-.442-.507h-.022c-.245 0-.443.228-.443.508 0 .627-1.04 1.329-2.432 1.329-.244 0-.442.227-.442.507s.198.508.442.508c1.252 0 2.32-.467 2.886-1.173.565.706 1.633 1.173 2.885 1.173 1.243 0 2.306-.461 2.874-1.159.568.698 1.63 1.159 2.874 1.159.244 0 .442-.228.442-.508s-.197-.507-.442-.507z"/></g></svg>