<svg width="24" height="22" viewBox="0 0 24 22" xmlns="http://www.w3.org/2000/svg"><title>Equestrian @3x</title><g fill="#00D670" fill-rule="evenodd"><path d="M14.294 4.723c.872.709 2.158.58 2.87-.288.233-.283.367-.611.424-.948l.209.094c.222.1.48-.004.491-.246.008-.17-.012-.38-.102-.605-.16-.404.332-1.899-1.22-2.601-1.112-.503-2.532.772-2.979 1.262-.136.15-.105.34.035.458-.005.006-.012.01-.017.017a2.024 2.024 0 0 0 .289 2.857z"/><path d="M12.51 5.26L9.519 9.957a12 12 0 0 0-.85-.036c-1.795 0-2.764.458-3.284.9-.427-.153-1.804-.576-2.926-.081-.6.265-1.029.747-1.272 1.434l-.139.391c-.819 2.304-1.23 3.46-.97 4.513a.22.22 0 0 0 .214.167.22.22 0 0 0 .083-.016c.027-.01 2.707-1.133 2.712-3.902 0-.342.092-.567.281-.686.392-.25 1.145-.034 1.526.118v.739c0 .234-.02.616-.046.852l-.103.94c-.022.201-.147.521-.268.684L.803 20.938c-.259.35-.193.607-.131.73.062.122.232.327.668.327h.686c.554 0 1.26-.336 1.608-.765l3.837-4.736a.604.604 0 0 1 .506-.185c.129.02.295.043.486.067l-.406.457c-.483.546-.46 1.346.055 1.787.514.442 1.318.353 1.795-.198l1.623-1.875a28.59 28.59 0 0 0 1.582-.048c2.194-.128 3.392-.473 4.011-.74.144-.06.346-.031.435.066l2.849 3.116a.33.33 0 0 1 .018.395l-1.223 1.607c-.264.346-.201.603-.14.725.06.122.229.327.666.327h.74c.551 0 1.267-.323 1.631-.735l1.52-1.724a.751.751 0 0 0 .014-.954l-3.682-4.453c-.11-.135.022-.327.05-.364.136-.18.207-.38.212-.591.003-.166-.047-.356-.094-.54a2.331 2.331 0 0 1-.073-.339 6.673 6.673 0 0 1 .032-1.263c.347.263.817.282 1.197.297.163.007.316.013.435.036.158.03.52.259.716.381l.064.04c.468.292 1.02.308 1.289.023.248-.264.245-.728-.01-1.24-.067-.135-.14-.283-.203-.416a2.87 2.87 0 0 1-.207-.763 5.962 5.962 0 0 0-.26-1.208c-.064-.192-.11-.527-.073-.732l.125-.68c.051-.275.001-.518-.138-.685-.186-.222-.512-.282-.863-.154l-.694.254c-.172.063-.517.098-.754.075a4.401 4.401 0 0 0-.397-.018c-1.089 0-2.073.433-2.847 1.253-.761.807-1.445 1.471-2.308 1.93l-.23-.242.67-2.165a.878.878 0 0 0 .035-.253l.036-.055a.533.533 0 0 0-.281-.607l-.125-.058a.872.872 0 0 0-.248-.126c-.015-.004-.03-.005-.044-.009l-1.815-.837a.521.521 0 0 0-.638.187z"/></g></svg>