<svg width="21" height="24" viewBox="0 0 21 24" xmlns="http://www.w3.org/2000/svg"><title>Field hockey@3x</title><g transform="matrix(-1 0 0 1 21 0)" fill="#00D670" fill-rule="evenodd"><path d="M4.36 0C2.939 0 1.78 1.169 1.78 2.602c0 1.443 1.159 2.605 2.58 2.605a2.6 2.6 0 0 0 2.597-2.605A2.603 2.603 0 0 0 4.361 0zM.11 20.524c-.218.392-.009.71.467.71h1.437c.476 0 .861-.318.861-.71l-.001-.013 2.945-6.145c.281 0 .562-.111.773-.33l2.893-3.011c.022-.024.04-.05.06-.076l1.127 1.082-3.664 3.346a1.304 1.304 0 0 0-.016 1.912l5.686 5.38a1.284 1.284 0 0 0 1.828-.057 1.308 1.308 0 0 0-.057-1.84l-4.666-4.414 2.223-2.031.815 2.603c.071.228.205.433.385.59l5.637 4.935a1.287 1.287 0 0 0 1.824-.128 1.308 1.308 0 0 0-.127-1.836l-5.363-4.694-.633-2.022V9.747c0-.719-.442-1.678-.988-2.142L9.413 3.581a1.06 1.06 0 0 0-.702-.268 1.08 1.08 0 0 0-1.078 1.085v5.434l-2.59 2.695a1.088 1.088 0 0 0-.012 1.488l-2.793 5.826a1.026 1.026 0 0 0-.225-.027h-.646c-.476 0-1.038.317-1.257.71z"/><ellipse cx="1.78" cy="23.022" rx=".934" ry=".941"/></g></svg>