<svg width="22" height="24" viewBox="0 0 22 24" xmlns="http://www.w3.org/2000/svg"><title>Football@3x</title><g fill="#00D670" fill-rule="evenodd"><path d="M13.007 0c1.186 0 2.148.92 2.148 2.055 0 1.135-.962 2.055-2.148 2.055-1.185 0-2.147-.92-2.147-2.055C10.86.92 11.822 0 13.007 0zM20.323 12.197c.123.043.248.064.372.064.438 0 .85-.258 1.01-.674.685-1.78-.41-4.36-.536-4.648l-.152-.342-3.808-1.888a1.11 1.11 0 0 0-.704-.092c-1.726-.142-3.996 1.074-4.586 1.41l-.146.086v.002a.995.995 0 0 0-.266.238L9.44 9.118l-2.754 1.297c-.534.251-.753.869-.491 1.379.187.364.57.576.966.576.16 0 .322-.034.475-.107l3.24-1.525 1.07-1.432.178 3.292.032.012a.943.943 0 0 0 .028.175l.347 1.278-2.07 2.245-5.168 5.975a1 1 0 0 0 .144 1.45c.2.16.443.236.685.236.31 0 .617-.126.83-.373l5.135-5.938 1.097-1.19.108.402.6.158c1.666.438 3.675 1.07 4.233 1.375a1.091 1.091 0 0 0 .953.433c.593-.039 1.04-.53 1-1.099-.062-.86-.882-1.268-3.164-1.987-.694-.219-1.38-.415-1.849-.545l-.162-.6.718-.78c.694-.417 1.949-3.953 2.188-6.5l1.51.748c.29.788.632 2.112.366 2.8-.206.535.08 1.127.638 1.324zM2.3 19.075c1.248 0 2.26.969 2.26 2.163 0 1.195-1.012 2.164-2.26 2.164-1.249 0-2.261-.97-2.261-2.164 0-1.194 1.012-2.163 2.26-2.163z"/></g></svg>