<svg width="20" height="26" viewBox="0 0 20 26" xmlns="http://www.w3.org/2000/svg"><title>Golf@3x</title><path d="M16.851 1.543c-.435-.01-3.756.127-7.165.278C9.41.776 8.383 0 7.156 0 5.838 0 4.753.892 4.577 2.05l-1.849.084a1.639 1.639 0 0 0-1.227-.6c-.86 0-1.343.604-1.441 1.315-.205 1.475.07 3.103 1.382 4.11 1.172.9 2.713 1.093 4.196.996.801 2.02.942 4.183 1.69 6.216a91.54 91.54 0 0 0-1.984 10.055c-.326 2.31 3.642 2.281 3.963 0a78.271 78.271 0 0 1 1.115-6.083c.9 2.34 2.15 4.563 3.78 6.557 1.51 1.847 4.953.046 3.423-1.827-2.074-2.536-3.443-5.372-4.257-8.41.157-.469.171-.97-.02-1.452-.85-2.124-.953-4.406-1.802-6.53-.491-1.227-1.635-2.11-3.035-2.072.75-.418 1.251-1.169 1.251-2.029a.19.19 0 0 0-.001-.017l6.16-.062c-.692 2.873 3.269 3.047 3.324 2.322.065-.888-1.463-3.058-2.395-3.08zM6.423 5.255c-.039 0-.077.002-.117.007-1.002.12-2.131.218-2.979-.277-.554-.324-.48-1.438-.383-2.136a.875.875 0 0 0-.047-.417l1.656-.016c.02 1.29 1.164 2.33 2.58 2.342a3.273 3.273 0 0 0-.71.497z" fill="#00D670" fill-rule="evenodd"/></svg>