<svg width="19" height="24" viewBox="0 0 19 24" xmlns="http://www.w3.org/2000/svg"><title>Artistic Copy@3x</title><g fill="#B3B3B3" fill-rule="evenodd"><path d="M18.148 10.475l-4.885-1.091c.006-.053.01-.105.012-.157l4.162-4.688c.371-.42.358-1.062-.044-1.463a1.084 1.084 0 0 0-1.526-.005l-3.95 3.902-2.17-1.075 1.147-1.057.042-.04a.919.919 0 0 0 .293-.717L11.077.851A.899.899 0 0 0 9.28.882L9.25 3.638s-1.068.638-1.988 1.75c-1.263 1.53-1.717 2.456-1.929 3.244-.21.788-1.253 4.675-1.253 4.675a.885.885 0 0 0-.01.409c-.323.19-.54.54-.54.94v.376H1.956a1.939 1.939 0 0 0-1.945 1.932c0 1.067.87 1.932 1.945 1.932h2.949l-1.963 4.379a.514.514 0 0 0 .473.725.52.52 0 0 0 .475-.306l2.151-4.798h6.006l2.15 4.798a.52.52 0 0 0 .949-.42l-1.963-4.378h2.814a1.939 1.939 0 0 0 1.946-1.932 1.939 1.939 0 0 0-1.946-1.932h-1.573v-.376c0-.603-.494-1.094-1.1-1.094-.608 0-1.102.49-1.102 1.094v.376h-6.49v-.376c0-.184-.047-.358-.128-.51a.885.885 0 0 0 .197-.329l1.314-3.944 2.722 1.35c.328.162.676.241 1.02.247l6.881 1.107c.558.089 1.1-.267 1.225-.822a1.07 1.07 0 0 0-.815-1.28zM3.89 14.655c0-.251.129-.474.323-.606a.9.9 0 0 0 1.092.306.727.727 0 0 1 .065.3v.377H3.89v-.376zm8.693 0c0-.405.332-.734.74-.734s.74.33.74.735v.376h-1.48v-.376z"/><path d="M3.11 7.261c.24.16.51.27.793.325h.003c.7.136 1.437-.088 1.943-.588a2.157 2.157 0 0 0 .588-1.963 2.171 2.171 0 0 0-1.285-1.54 2.195 2.195 0 0 0-2.043.2A2.162 2.162 0 0 0 2.154 5.5c.007.7.371 1.37.956 1.761z"/></g></svg>