<svg width="17" height="24" viewBox="0 0 17 24" xmlns="http://www.w3.org/2000/svg"><title>Archery Copy@3x</title><g fill="#B3B3B3" fill-rule="evenodd"><path d="M7.14 6.896c-1.588 0-2.88-1.209-2.88-2.695 0-1.486 1.292-2.695 2.88-2.695 1.587 0 2.878 1.209 2.878 2.695 0 1.486-1.291 2.695-2.878 2.695z"/><path d="M.204 21.772l2.436-3.785a3.17 3.17 0 0 0 .321-.766l.906-5.147-.08-.005c-.616-.035-1.13-.34-1.378-.815-.248-.475-.187-1.043.162-1.518l1.47-2c.228-.31.55-.495 1.005-.495h4.5L11.644.847c-.1-.015-.2-.023-.3-.023-.244 0-.441-.184-.441-.412 0-.228.197-.412.44-.412 1.383 0 2.659.944 3.593 2.657.707 1.297 1.16 2.929 1.314 4.694.412.183.697.576.697 1.03 0 .438-.264.819-.652 1.01-.086 2.029-.56 3.92-1.359 5.384-.934 1.714-2.21 2.657-3.593 2.657-.243 0-.44-.184-.44-.412 0-.227.197-.412.44-.412.066 0 .132-.003.198-.01l-2.033-4.341c-.138.06-.29.096-.449.103l-.094.99c-.003.056.007.088.012.108l2.098 9.063c.15.648-.291 1.29-.984 1.43-.09.019-.182.028-.273.028-.6 0-1.127-.399-1.254-.948l-1.857-8.022h-.623l-.609 2.708a5.355 5.355 0 0 1-.635 1.51l-2.435 3.786a1.296 1.296 0 0 1-1.102.582 1.35 1.35 0 0 1-.661-.173c-.607-.342-.803-1.082-.438-1.65zm12.264-20.63l-2 6.1h4.886c-.296-2.887-1.438-5.268-2.886-6.1zm2.94 8.38h-5.69l-.216.662c.445.19.743.623.712 1.107a1.073 1.073 0 0 1-.061.29l2.228 4.757c1.6-.843 2.847-3.573 3.026-6.816z"/></g></svg>