<svg width="18" height="25" viewBox="0 0 18 25" xmlns="http://www.w3.org/2000/svg"><title>Rhythmic@3x</title><g fill="#00D670" fill-rule="evenodd"><path d="M14.633 6.869a.206.206 0 0 0 .258-.134c.05-.158 1.198-3.882.05-5.723-.337-.538-.835-.865-1.481-.972-1.12-.183-2.018.267-2.46 1.24-.069.15-.123.308-.164.467-1.228-.46-3.134-.738-5.166-.572C3.21 1.377 1.465 2.92.653 4.296.022 5.367-.149 6.448.197 7.188c.437.935 1.265 1.399 1.957 1.399.133 0 .26-.017.379-.051.63-.18.94-.777.83-1.596a2.874 2.874 0 0 1-.023-.467l.348 1.683c.036.175.118.337.238.47l1.496 1.676-.33 2.133c-.06.217-.019.553.094.749l.868 2.074c-.05.145-.083.297-.083.459v7.83c0 .788.647 1.427 1.445 1.427s1.444-.64 1.444-1.428V16.76l2.581.736c.13.037.266.056.4.056h4.71c.798 0 1.445-.64 1.445-1.428 0-.788-.647-1.428-1.445-1.428h-4.505l-.696-.198c-.01-.007-.013-.015-.024-.021L9.31 13.213a.62.62 0 0 1-.26-.617l.225-1.004.8-.512 4.657-1.327c.547-.156.863-.722.705-1.263a1.035 1.035 0 0 0-1.277-.697L9.356 9.16c-.097.028-.19.07-.275.125l-.46.294-1.458-.404c-.01-.013-.017-.027-.028-.038L5.655 7.48l-.443-2.143a1.033 1.033 0 0 0-1.218-.795 1.023 1.023 0 0 0-.824.985c-.216.387-.294.874-.215 1.465.081.61-.114 1.03-.536 1.15-.561.162-1.425-.225-1.847-1.126-.285-.61-.117-1.574.438-2.516.76-1.287 2.391-2.73 4.695-2.92 2.05-.168 3.937.143 5.059.569-.064.585.059 1.13.355 1.366.104.083.389.246.776-.035.402-.293.359-.611.297-.774-.107-.282-.451-.558-.97-.8.034-.152.085-.307.154-.459.211-.464.755-1.211 2.016-1.005.531.087.923.344 1.197.783 1.05 1.684-.08 5.351-.092 5.388a.203.203 0 0 0 .136.256zm-1.004-3.097c.065.123.217.41-.594.833-.662.344-.924.192-1.04.127-.545-.313-.908-1.26-.823-2.41 1.345.475 2.208.978 2.457 1.45z"/><ellipse cx="8.861" cy="6.205" rx="2.499" ry="2.47"/></g></svg>