<svg width="22" height="25" viewBox="0 0 22 25" xmlns="http://www.w3.org/2000/svg"><title>Trampoline Copy@3x</title><g fill="none" fill-rule="evenodd"><g transform="translate(9.313)" fill="#B3B3B3"><path d="M2.528 22.761c.883-.178 1.458-1.064 1.287-1.977-.497-2.645-1.279-10.23 1.036-13.535.08-.114.142-.236.191-.36C6.314 5.053 7.985 3.628 9.99 2.7c1.127-.521.152-2.23-.967-1.713-1.87.865-3.474 2.162-4.785 3.753a1.596 1.596 0 0 0-2.024.53C-1.347 10.348.405 20.31.617 21.43c.152.804.833 1.362 1.597 1.362.103 0 .208-.01.314-.03z"/><ellipse cx="2.58" cy="2.267" rx="1.853" ry="1.918"/></g><path d="M1.219 19.245s3.98 4.512 10.17 4.429c6.188-.083 10.392-4.429 10.392-4.429" stroke="#B3B3B3" stroke-linecap="square"/></g></svg>