<svg width="18" height="25" viewBox="0 0 18 25" xmlns="http://www.w3.org/2000/svg"><title>Handball@3x</title><path d="M17.508 14.556a1.284 1.284 0 0 1-1.837-.17l-.395-.482a30.633 30.633 0 0 0-3.302-3.446s.207 8.418-5.188 13.458l-.644.64a1.287 1.287 0 0 1-1.845-.025 1.348 1.348 0 0 1 .025-1.88l.644-.64a11.194 11.194 0 0 0 3.026-5.489 8.824 8.824 0 0 1-2.63.402 8.786 8.786 0 0 1-4.75-1.39 1.345 1.345 0 0 1-.409-1.835 1.29 1.29 0 0 1 1.8-.416 6.235 6.235 0 0 0 5.674.538l.51-4.763a7.452 7.452 0 0 1-5.485-2.042l-.085-.08a2.26 2.26 0 0 1-.33.025C1.024 6.96 0 5.917 0 4.629c0-1.287 1.024-2.331 2.287-2.331s2.286 1.044 2.286 2.331c0 .165-.017.326-.048.48a4.868 4.868 0 0 0 4.591 1.126l.773-.21.026-.005a1.23 1.23 0 0 1 .258-.038h.06c.022 0 .045 0 .067.002.02 0 .04.003.061.005l.063.008c.022.003.045.008.067.013l.054.012c.025.006.048.014.072.022l.048.015.071.03.046.02a1.314 1.314 0 0 1 .225.139l.023.016 1.303 1.043a33.217 33.217 0 0 1 4.946 4.893l.395.483a1.348 1.348 0 0 1-.166 1.873zM10.15 5.44c1.473 0 2.668-1.218 2.668-2.72C12.818 1.219 11.623 0 10.15 0S7.483 1.218 7.483 2.72c0 1.501 1.194 2.719 2.667 2.719z" fill="#00D670" fill-rule="evenodd"/></svg>