<svg width="22" height="25" viewBox="0 0 22 25" xmlns="http://www.w3.org/2000/svg"><title>Judo@3x</title><g fill="#00D670" fill-rule="evenodd"><ellipse cx="4.414" cy="18.924" rx="2.155" ry="2.187"/><path d="M19.36 18.84l1.7-3.154c.051-.093.081-.192.102-.291a.427.427 0 0 0 .08-.24v-2.488c0-.24-.143-.56-.32-.718l-4.029-3.633c-.176-.158-.535-.086-.669.11l-.113.212a.859.859 0 0 0-.18.202l-2.266 3.643-2.618 1.993a.861.861 0 0 0-.334.63l-.735-.555a.846.846 0 0 0-.492-.17l-3.06-.06.789-2.53 2.527.507a1.068 1.068 0 0 0 1.226-.75l1.003-3.386a2.15 2.15 0 0 0 1.955 1.28c1.19 0 2.156-.979 2.156-2.188 0-1.21-.966-2.188-2.156-2.188-.419 0-.808.127-1.139.337l.142-.479a1.084 1.084 0 0 0-.713-1.346 1.061 1.061 0 0 0-1.326.724L9.208 9.987 6.87 9.519 9 6.82c.308-.39.312-.945.01-1.34L5.126.419a1.053 1.053 0 0 0-1.494-.19 1.092 1.092 0 0 0-.186 1.517l3.365 4.39L4.11 9.558c-.113.145-.18.31-.21.48l-.68 1.796a4.393 4.393 0 0 0-.26.816l-.087.696L1.77 11.77l.328-3.457a.862.862 0 0 0-.765-.944.858.858 0 0 0-.93.777l-.36 3.779a.878.878 0 0 0 .153.583l2.178 3.117c.095.136.223.23.364.291a.356.356 0 0 0 .202.069l.105.001.024.003c.006 0 .01-.002.016-.003l2.036.026c.043.008.085.016.13.016l3.928.077 2.524 1.903c.02.016.045.021.067.035a.844.844 0 0 0 1.05.075l3.232-2.236a.86.86 0 0 0 .346-.503l.586-2.367c.097.106.156.19.148.23l.61 1.759-2.677 2.121c-.199.157-.336.38-.387.63l-1.224 5.94a1.08 1.08 0 0 0 1.043 1.303c.494 0 .936-.35 1.041-.86l1.144-5.553.678-.538-.152.282c-.176.326-.174.722.005 1.046l2.79 5.069a1.062 1.062 0 0 0 1.45.416 1.09 1.09 0 0 0 .41-1.47L19.36 18.84zm-4.534-4.202l-2.468 1.708-.498-.376a.819.819 0 0 0 .21-.111l2.742-2.089a.869.869 0 0 0 .209-.23l.128-.205-.323 1.303z"/></g></svg>