<svg width="24" height="20" viewBox="0 0 24 20" xmlns="http://www.w3.org/2000/svg"><title>Rowing Copy@3x</title><g fill="#B3B3B3" fill-rule="evenodd"><path d="M2.347 4.683c1.153 0 2.088-1.042 2.088-2.33 0-1.286-.935-2.33-2.088-2.33-1.154 0-2.09 1.044-2.09 2.33 0 1.288.936 2.33 2.09 2.33zM7.052 14.262l2.024 1.772c.514.451 1.258.345 1.658-.223.403-.573.313-1.402-.2-1.85l-2.49-2.181-.992 2.482zM14.987 4.683c1.153 0 2.088-1.042 2.088-2.33 0-1.286-.935-2.33-2.088-2.33-1.154 0-2.09 1.044-2.09 2.33 0 1.288.936 2.33 2.09 2.33zM19.692 14.262l2.024 1.772c.515.451 1.258.345 1.658-.223.403-.573.313-1.402-.201-1.85l-2.489-2.181-.992 2.482z"/><path d="M23.724 17.835a.73.73 0 0 0-1.113 0 .914.914 0 0 1-1.363 0 2.407 2.407 0 0 0-2.776-.592 2.483 2.483 0 0 0-.83.584l4.191-10.541.029-.004c.54-.082.916-.635.844-1.235-.073-.601-.57-1.024-1.108-.942l-.867.13-4.107.618a1.708 1.708 0 0 0-1.264-.583h-.748c-.993 0-1.798.898-1.798 2.006v6c0 .732.325 1.416.869 1.827a1.805 1.805 0 0 0 1.842.225l1.402-.622.003-.006 1.332-3.332-1.149.459.038-3.837c3.074-.463 2.416-.363 3.307-.497l-3.926 9.814-.218.544c-.006-.007-.014-.008-.02-.015-.989-1.104-2.599-1.105-3.593.002a.916.916 0 0 1-1.36-.002c-.958-1.07-2.6-1.104-3.62.035a.873.873 0 0 1-1.3 0 2.24 2.24 0 0 0-.66-.502 2.363 2.363 0 0 0-.54-.208l3.97-9.874.031-.005c.539-.081.916-.635.844-1.235-.073-.601-.567-1.024-1.107-.942l-.868.13-4.115.619a1.706 1.706 0 0 0-1.265-.584h-.748C.97 5.27.165 6.168.165 7.276v6c0 .732.325 1.416.868 1.827a1.805 1.805 0 0 0 1.843.225l1.414-.627.001-.001 1.33-3.332-1.157.463.037-3.84 3.312-.498-3.911 9.725a2.319 2.319 0 0 0-1.013.651 1.015 1.015 0 0 1-1.545 0 .732.732 0 0 0-1.113 0 .952.952 0 0 0 0 1.243c.52.58 1.202.87 1.885.87s1.366-.29 1.888-.87c.322-.362.89-.438 1.363.067.946.988 2.514.997 3.498-.1a.915.915 0 0 1 1.363 0 2.418 2.418 0 0 0 3.59-.002.896.896 0 0 1 1.363.001 2.41 2.41 0 0 0 3.591 0 .913.913 0 0 1 1.363 0 2.408 2.408 0 0 0 3.59 0 .952.952 0 0 0 0-1.243z"/></g></svg>