<svg width="22" height="22" viewBox="0 0 22 22" xmlns="http://www.w3.org/2000/svg"><title>rugby copy@3x</title><g fill="#B3B3B3" fill-rule="evenodd"><path d="M1.531 21.902c.246 0 .497-.06.728-.186l6.348-3.441a1.53 1.53 0 0 0 .79-1.523l-.406-3.473 4.264 4.015-1.85 2.055a1.53 1.53 0 1 0 2.275 2.046l2.753-3.059a1.529 1.529 0 0 0 .018-2.025l-4.556-5.254 4.617-.38 3.039 10.42a1.224 1.224 0 1 0 2.35-.685L18.688 9.4a1.21 1.21 0 0 0-.427-.622l-1.915-2.25-.007-.066-.02-.024c.541.484 1.253.78 2.036.78a3.06 3.06 0 1 0-2.58-1.418L14.44 4.23l-.199-.233-.59-.694-.032.02c-.003 0-.006-.002-.008-.003a1.086 1.086 0 0 0-.168-.099L6.588.098a1.081 1.081 0 0 0-.93.014 1.085 1.085 0 0 0-.577.73c-.049.213-1.187 5.258.047 8.358l.003.009c.137.341.427.572.76.65.08.02.163.032.247.032a1.086 1.086 0 0 0 1.007-1.487c-.024-.06-.044-.123-.066-.185a4.925 4.925 0 0 1-.116-.385 6.7 6.7 0 0 1-.139-.712 3.53 3.53 0 0 1-.547-.812 3.506 3.506 0 0 1 .367-3.682l.111-.146.183.002a3.5 3.5 0 0 1 2.79 1.429l1.8.82.003.002-.177.12-.176.119-.002-.001-.791.537c.13.918-.1 1.863-.685 2.63l-.111.147-.183-.002a3.516 3.516 0 0 1-2.069-.704l-.052.035c.054.231.118.451.198.652l.004.014a1.449 1.449 0 0 1-.513 1.702c-.091.065-.19.124-.298.167a1.444 1.444 0 0 1-.538.104c-.035 0-.069-.005-.103-.007A1.435 1.435 0 0 1 4.93 9.6a.86.86 0 0 0-.024.32l1.332 6.16-5.436 2.947a1.53 1.53 0 0 0 .73 2.875z"/><path d="M9.82 7.941a3.167 3.167 0 0 0 .633-2.177 3.133 3.133 0 0 0-.302-1.124 3.214 3.214 0 0 0-.49-.723 3.122 3.122 0 0 0-.448-.406 3.164 3.164 0 0 0-1.238-.563 3.168 3.168 0 0 0-.63-.078l-.011.016a3.155 3.155 0 0 0-.319 3.284c.044.09.096.17.146.252.064.106.134.206.208.301.068.086.136.17.21.248.15.155.315.292.491.412a3.168 3.168 0 0 0 1.75.558z"/></g></svg>