<svg width="22" height="23" viewBox="0 0 22 23" xmlns="http://www.w3.org/2000/svg"><title>Sailing@3x</title><g fill="#00D670" fill-rule="evenodd"><path d="M20.648 20.71a3.322 3.322 0 0 0-1.421-.328c-.482 0-.94.11-1.375.327a3.39 3.39 0 0 1-2.704 0 3.274 3.274 0 0 0-1.398-.327c-.466 0-.932.11-1.398.327a3.39 3.39 0 0 1-2.704 0 3.027 3.027 0 0 0-1.375-.327c-.481 0-.955.11-1.421.327a3.39 3.39 0 0 1-2.704 0 3.027 3.027 0 0 0-1.375-.327c-.481 0-.94.11-1.375.327A3.73 3.73 0 0 1 0 20.99V23a3.73 3.73 0 0 0 1.398-.28 3.027 3.027 0 0 1 1.375-.328c.482 0 .94.11 1.375.328a3.39 3.39 0 0 0 2.704 0c.466-.219.94-.328 1.421-.328.482 0 .94.11 1.375.328a3.39 3.39 0 0 0 2.704 0 3.027 3.027 0 0 1 1.375-.328c.481 0 .955.11 1.421.328a3.39 3.39 0 0 0 2.704 0 3.027 3.027 0 0 1 1.375-.328c.481 0 .955.11 1.421.328.435.187.886.28 1.352.28v-2.01a3.39 3.39 0 0 1-1.352-.28zM2.377 11.407c.373 0 .691-.125.956-.374.264-.25.396-.561.396-.935s-.132-.686-.396-.935a1.342 1.342 0 0 0-.956-.374c-.373 0-.684.124-.932.374a1.27 1.27 0 0 0-.373.935c0 .374.124.685.373.935.248.249.56.374.932.374zM6.572 12.856l2.33-.982a.587.587 0 0 0 .28-.514.635.635 0 0 0-.652-.655.517.517 0 0 0-.233.047l-2.098.935H3.076a1.3 1.3 0 0 0-.955.397 1.308 1.308 0 0 0-.396.959v.327l1.444 3.132c.218.499.638.748 1.259.748h3.775l2.191 2.15c.187.156.396.242.63.258.232.015.442-.07.629-.258.372-.405.357-.794-.047-1.168l-2.517-2.29c-.093-.094-.295-.141-.606-.141H5.92l-1.165-2.852h1.399l.419-.093zM21.161 13.463c-.093-1.807-.645-3.521-1.655-5.142a15.065 15.065 0 0 0-3.752-4.114 22.642 22.642 0 0 0-4.847-2.781C9.167.694 7.457.218 5.78 0l7.364 18.512 8.017-5.049zm-9.928-3.085c-.249 0-.373-.125-.373-.374 0-.187.062-.296.187-.327.341-.125.862-.226 1.561-.304.7-.078 1.57-.101 2.61-.07 1.041.031 2.067.32 3.076.865a5.735 5.735 0 0 1 2.354 2.36.72.72 0 0 1 .094.28c0 .25-.125.375-.373.375-.156 0-.249-.031-.28-.094a27.394 27.394 0 0 0-.256-.42c-.078-.125-.249-.328-.513-.608a5.795 5.795 0 0 0-.816-.725c-.28-.202-.66-.42-1.142-.654a5.726 5.726 0 0 0-1.538-.49c-.544-.094-1.204-.133-1.98-.118-.778.016-1.586.117-2.425.304h-.186z"/></g></svg>