<svg width="19" height="25" viewBox="0 0 19 25" xmlns="http://www.w3.org/2000/svg"><title>Shooting Copy@3x</title><g fill="#B3B3B3" fill-rule="evenodd"><path d="M8.353 10.165a2.307 2.307 0 0 1-2.632.054c-.663-.45-.933-1.18-.779-1.862l-1.893.156 4.549-1.027c.592-.134.95-.67.8-1.196-.15-.528-.753-.845-1.346-.712l-4.55 1.027 2.063-.785A1.804 1.804 0 0 1 4.08 5L.483 7.12c-.436.251-.642.816-.34 1.299.247.377.729.586 1.227.473l1.484-.335c0 1.074-.008 6.587-.008 14.8 0 .674.613 1.22 1.37 1.22.757 0 1.37-.546 1.37-1.22v-8.099H6.59v8.1c0 .37-.117.71-.304 1.013.212.119.448.205.717.205.756 0 1.37-.545 1.37-1.218 0-6.416-.019-12.528-.019-13.193zM4.185 4.292c.3-.71 1.065-1.22 1.969-1.22h1.964c.087-.231.145-.475.145-.732C8.263 1.048 7.085 0 5.63 0 4.178 0 3 1.048 3 2.34c0 .817.472 1.534 1.185 1.952zM9 9.475c.01 0 .022.004.032.004.199 0 .396-.047.572-.142L13.5 7.243c.12-.064.216-.15.297-.243h-2.668L9 9.475z"/><path d="M15.757 4.168a1.065 1.065 0 0 0-.893-.469h-8.81C5.472 3.7 5 4.12 5 4.637c0 .368.244.68.591.832L6.8 5.01c.977-.372 2.067.077 2.452.874.492 1.02-.258 2.194-1.544 2.308l-1.67.137c-.266.403-.175.923.252 1.215.466.316 1.127.234 1.478-.176l3.263-3.792h3.834c.386 0 .71-.194.893-.47h2.611c.291 0 .527-.209.527-.468 0-.26-.236-.469-.527-.469h-2.611z"/></g></svg>