<svg width="24" height="17" viewBox="0 0 24 17" xmlns="http://www.w3.org/2000/svg"><title>Swimming@3x</title><g fill="#00D670" fill-rule="evenodd"><path d="M3.046 3.569l5.55.777c.193.537 1.169 3.175 1.352 3.648h-.002c-1.608.866-3.215 1.73-4.823 2.597a8.654 8.654 0 0 1 1.692-.167c.744 0 1.472.097 2.168.29 1.404.388 2.672 1.01 3.898 1.613 1.093.536 2.127 1.044 3.16 1.336.144.042.284.078.425.108-1.223-2.73-4.512-10.089-5.162-11.708-.306-.764-.726-1.047-1.322-1.13L3.464.019c-.899-.125-1.722.566-1.84 1.547-.111.98.523 1.878 1.422 2.003z"/><path d="M.425 16.33a.954.954 0 0 0 .726.197c.27-.039.525-.195.695-.453.66-1.003 1.682-1.792 2.872-2.225a6.178 6.178 0 0 1 2.097-.372c2.54 0 4.718 1.655 7.011 2.608 1.228.511 2.51.89 3.903.89.586 0 1.193-.068 1.822-.22 1.48-.356 2.749-1.122 3.666-2.198.22-.258.418-.53.594-.822.31-.51.18-1.2-.288-1.539a.95.95 0 0 0-.56-.183.999.999 0 0 0-.852.497c-.079.13-.165.256-.26.378-.636.828-1.592 1.422-2.738 1.697-1.058.253-2.224.178-3.267-.116-1.095-.311-2.155-.83-3.281-1.384-1.198-.586-2.433-1.194-3.773-1.566a7.368 7.368 0 0 0-1.98-.264 8.083 8.083 0 0 0-4.89 1.66 7.667 7.667 0 0 0-1.734 1.862c-.03.047-.056.094-.08.144-.22.48-.098 1.084.317 1.409z"/><ellipse cx="18.876" cy="7.255" rx="3.595" ry="3.919"/></g></svg>