<svg width="23" height="22" viewBox="0 0 23 22" xmlns="http://www.w3.org/2000/svg"><title>Athletics Copy@3x</title><g fill="#B3B3B3" fill-rule="evenodd"><path d="M.947 16.141c-.633.128-1.047.775-.926 1.444.107.59.596 1 1.144 1 .073 0 .148-.008.22-.023l4.8-.975c.273-.056.518-.212.692-.443l2.06-2.749-.688-.372c-.509-.272-.863-.764-.984-1.361l-1.944 2.592-4.374.887z"/><ellipse cx="18.038" cy="2.721" rx="2.554" ry="2.703"/><path d="M12.464 2.044c-.27-.293-.519-.408-.793-.408-.1 0-.198.015-.305.041l-4.384 1.1c-.606.151-.98.795-.836 1.433.123.55.584.918 1.095.918.087 0 .174-.01.262-.033l3.735-.936a245.46 245.46 0 0 0 1.677 1.923l-4.632 5.244c-.024.028-.046.056-.068.084-.45.608-.312 1.562.366 1.923l.822.444 3.912 2.113-2.458 4.213c-.337.58-.167 1.338.38 1.697.192.126.403.185.611.185.39 0 .773-.208.994-.585l3.122-5.351c.172-.295.218-.651.128-.982a1.221 1.221 0 0 0-.599-.767l-3.206-1.725 3.371-3.816 2.545 2.282a1.083 1.083 0 0 0 1.495-.036l2.92-2.88a1.24 1.24 0 0 0 .059-1.684 1.1 1.1 0 0 0-.824-.38c-.274 0-.55.106-.766.319l-2.186 2.15c-.003.003-5.48-5.448-6.437-6.486z"/></g></svg>