<svg width="25" height="19" viewBox="0 0 25 19" xmlns="http://www.w3.org/2000/svg"><title>Synchronized swimming Copy@3x</title><g fill="#B3B3B3" fill-rule="evenodd"><path d="M3.208 16.437c.14-.15.427-.173.58-.045l2.285 1.905c.59.494 1.46.453 2.02-.09l1.844-1.786c.154-.15.477-.168.64-.035l2.375 1.928a1.612 1.612 0 0 0 2.017-.016l2.284-1.906c.172-.143.519-.14.69.004l2.23 1.89a1.51 1.51 0 0 0 2.021-.067l2.546-2.42c.27-.256.326-.745.127-1.091-.2-.347-.58-.42-.85-.164l-2.545 2.42c-.152.145-.471.157-.63.02l-2.231-1.89a1.583 1.583 0 0 0-2.019-.012l-2.284 1.906c-.175.146-.532.149-.71.006l-2.373-1.928a1.527 1.527 0 0 0-2.02.108L7.362 16.96c-.153.148-.47.162-.63.028L4.45 15.083c-.6-.503-1.47-.436-2.02.155L.22 17.61c-.258.276-.293.768-.079 1.1.121.184.294.28.467.28a.53.53 0 0 0 .388-.181l2.213-2.37zM8.71 9.703v1.57h1.881c.476 0 .74-.352.74-.785 0-.434-.264-.785-.74-.785H8.71z"/><path d="M7.116.952c-.123 2.21-.408 7.265-.59 8.427-.01.068-.255 1.69-.21 3.28l.073 2.52.639.533 1.425-1.38V.955c0-.613-.286-.906-.638-.906-.352 0-.665.292-.699.902zM5.138 11.272h.833c.046-.624.109-1.362.143-1.616l-2.59-.085h-.052c-.604 0-1.06.58-1.06 1.04 0 .788.196 1.114.444 1.528.048.081.1.166.152.26l.593 1.06c.473-.017.95.127 1.335.449l1.033.862-.047-1.646a13.84 13.84 0 0 1-.005-.27c-.223-.285-.52-.638-.918-1.076-.19-.21-.217-.344-.205-.386.011-.042.099-.12.344-.12zM24.616 10.488c0-.434-.264-.785-.74-.785h-1.88v1.57h1.88c.476 0 .74-.352.74-.785zM19.812 9.379c-.01.068-.256 1.69-.21 3.28l.073 2.52.638.533 1.426-1.38V.955c0-.613-.286-.906-.639-.906-.352 0-.664.292-.698.902-.124 2.21-.409 7.265-.59 8.427zM18.424 11.272h.832c.046-.624.109-1.362.144-1.616l-2.592-.085h-.05c-.605 0-1.06.58-1.06 1.04 0 .788.195 1.114.443 1.528.048.081.1.166.152.26l.593 1.06c.474-.017.95.127 1.336.449l1.033.862-.048-1.646-.005-.27c-.222-.285-.52-.638-.917-1.076-.19-.21-.218-.344-.206-.386.012-.042.1-.12.345-.12z"/></g></svg>