<svg width="23" height="21" viewBox="0 0 23 21" xmlns="http://www.w3.org/2000/svg"><title>Table tennis@3x</title><g fill="#00D670" fill-rule="evenodd"><path d="M11.041 7.664c.168.065.337.118.5.195l-.03-.5-.47.305zM13.036 3.666a1.823 1.823 0 0 0 1.694-1.952c-.08-.999-.965-1.746-1.98-1.669-1.013.079-1.771.953-1.692 1.952.078 1 .965 1.748 1.978 1.669zM16.894 20.25c.217.451.671.715 1.145.715.182 0 .366-.038.54-.12a1.242 1.242 0 0 0 .603-1.662l-2.559-5.336h-2.8l3.071 6.404zM6.437 19.061a1.238 1.238 0 0 0 .412 1.718c.207.126.437.186.664.186.424 0 .838-.21 1.078-.592l4.086-6.526H9.702l-3.265 5.214zM21.904 10.935H5.401c-.583 0-1.055.466-1.055 1.04 0 .574.472 1.04 1.055 1.04h16.503c.583 0 1.055-.466 1.055-1.04 0-.574-.472-1.04-1.055-1.04zM11.35 8.933a.811.811 0 0 0-.817-.806.811.811 0 0 0-.817.806c0 .445.366.806.817.806.451 0 .817-.36.817-.806z"/><path d="M21.466 4.628a1.059 1.059 0 0 0-1.327-.67l-3.113.99-3.202-.52s-1.114.039-1.374.06c-.64.048-2.2.958-4.185 1.955H5.98c-.15 0-.293.033-.423.09l-1.335-.624c.03-.757-.45-1.542-1.276-1.947C1.873 3.436.63 3.75.17 4.662c-.46.914.038 2.079 1.112 2.604.856.42 1.812.297 2.4-.229l1.274.596c.077.5.496.89 1.024.89h2.537c.136 0 .269-.028.393-.08a1.693 1.693 0 0 1 1.622-1.182c.937 0 1.695.748 1.695 1.672 0 .456-.184.868-.484 1.17h3.419l-.267-3.393 2.04.332a1.102 1.102 0 0 0 .494-.037l3.356-1.068c.555-.177.86-.762.68-1.31z"/></g></svg>