<svg width="24" height="21" viewBox="0 0 24 21" xmlns="http://www.w3.org/2000/svg"><title>Kickboxing Copy@3x</title><g fill="#B3B3B3" fill-rule="evenodd"><path d="M20.01 14.267a.857.857 0 0 0 .989.702.861.861 0 0 0 .696-.996l-.951-5.542a.861.861 0 0 0-.215-.439l-4.65-5.062a.85.85 0 0 0-1.208-.046.867.867 0 0 0-.046 1.218L17.13 6.83l-2.113.736-2.01-3.901a.866.866 0 0 0 .16-1.203.848.848 0 0 0-.933-.3L11.527.79A1.276 1.276 0 0 0 9.8.238 1.298 1.298 0 0 0 9.25 1.98l.885 1.717-1.542 1.177-1.716-.73a.838.838 0 0 0-.367-.064l-.001-.004-.02.005a.845.845 0 0 0-.3.076l-3.091.783a.852.852 0 0 0-.702.474L.089 10.114a.865.865 0 0 0 .386 1.155.853.853 0 0 0 1.145-.39l1.733-3.528.663 3.235-1.508 5.573-1.606 2.91a1.298 1.298 0 0 0 .496 1.76 1.28 1.28 0 0 0 1.744-.5l1.683-3.05c.05-.09.09-.187.116-.288L6.13 12.6l3.373 3.267.13 2.938a1.287 1.287 0 0 0 1.34 1.234 1.289 1.289 0 0 0 1.223-1.35l-.154-3.454a1.296 1.296 0 0 0-.392-.874l-3.717-3.601-1.004-4.722 1.458.62a.843.843 0 0 0 .848-.107l1.702-1.3 2.535 4.923v9.293c0 .714.574 1.292 1.282 1.292.709 0 1.283-.578 1.283-1.292v-8.43l3.283-.804.692 4.035z"/><ellipse cx="3.626" cy="2.046" rx="2.014" ry="2.031"/><ellipse cx="21.949" cy="5.934" rx="2.014" ry="2.031"/></g></svg>