<svg width="23" height="23" viewBox="0 0 23 23" xmlns="http://www.w3.org/2000/svg"><title>Tennis@3x</title><path d="M21.62 3.598a2.931 2.931 0 0 0-1.483-.406c-1.576 0-2.837 1.196-2.871 2.722l-.055 2.472a11.898 11.898 0 0 1-5.732-1.765l-1.05-.65c-.279-.146-.546-.214-.579-.224-1.118-.357-2.223.087-2.64 1.096l-2.486 6.023c-.097.234-.254.81-.257 1.22-.023 2.275-1.206 4.383-3.162 5.64l-.7.45a1.287 1.287 0 0 0-.38 1.817 1.38 1.38 0 0 0 1.877.369l.7-.45c2.032-1.306 3.46-3.277 4.06-5.51a21.548 21.548 0 0 1 4.957 5.168l.317.465c.26.382.692.589 1.131.589.256 0 .515-.07.745-.217a1.287 1.287 0 0 0 .384-1.817l-.317-.465a24.185 24.185 0 0 0-5.58-5.81l.963-2.332a17.813 17.813 0 0 0 5.233 2.72l.428.138c.142.046.286.067.428.067.567 0 1.095-.347 1.284-.897a1.24 1.24 0 0 0-.194-1.172l1.125-1.78h.24c.748 0 1.354-.605 1.354-1.33a1.44 1.44 0 0 0-.01-.162l2.163-1.155c.908-.483 1.464-1.373 1.486-2.377.022-1.004-.493-1.917-1.38-2.437zm-11 5.582c1.73.961 3.637 1.56 5.613 1.765l-.775 1.238a15.039 15.039 0 0 1-4.941-2.754l.102-.249zM20.86 7.258l-2.298 1.223.056-2.54c.02-.9.788-1.437 1.518-1.437.274 0 .537.072.78.215a1.442 1.442 0 0 1-.056 2.54zM8.773 2.404C8.773 1.076 9.884 0 11.255 0c1.37 0 2.48 1.076 2.48 2.404 0 1.327-1.11 2.403-2.48 2.403-1.37 0-2.482-1.076-2.482-2.403z" fill="#00D670" fill-rule="evenodd"/></svg>