<svg width="24" height="24" viewBox="0 0 24 24" xmlns="http://www.w3.org/2000/svg"><title>Beach volleyball Copy@3x</title><g fill="#B3B3B3" fill-rule="evenodd"><path d="M11.178 5.668c.417.207.862.312 1.324.312a2.974 2.974 0 0 0 2.681-1.663 2.969 2.969 0 0 0 .154-2.283A2.97 2.97 0 0 0 13.83.31 2.956 2.956 0 0 0 12.507 0a2.974 2.974 0 0 0-2.68 1.663 2.993 2.993 0 0 0 1.35 4.005z"/><path d="M19.497 7.913l-6.862-.793c-.037-.004-.073-.002-.11-.002L8.9 5.323l-.047-.03-6.675-3.306a.83.83 0 0 0-1.108.374l-.276.557a.822.822 0 0 0-.042.632c.07.21.218.379.416.476l5.869 2.907-3.11 6.278v.002L.356 20.422a1.381 1.381 0 0 0 .623 1.848l.087.043c.191.094.396.143.61.143.522 0 1.008-.301 1.238-.767l3.205-6.468.525.26-3.203 6.468a1.381 1.381 0 0 0 .623 1.849l.087.043c.191.094.396.142.609.142.522 0 1.009-.3 1.24-.766l3.632-7.334L12.793 9.5l6.359.735a.86.86 0 0 0 .939-.713l.108-.683a.799.799 0 0 0-.702-.926zM21.457 2.098a2.316 2.316 0 0 0-2.313 2.314 2.316 2.316 0 0 0 2.313 2.313 2.316 2.316 0 0 0 2.313-2.313 2.316 2.316 0 0 0-2.313-2.314z"/></g></svg>