<svg width="20" height="24" viewBox="0 0 20 24" xmlns="http://www.w3.org/2000/svg"><title>Indoor Volleyball Copy@3x</title><g fill="#B3B3B3" fill-rule="evenodd"><path d="M10.345 4.77a2.448 2.448 0 0 0 1.507-3.138A2.497 2.497 0 0 0 8.666.147 2.455 2.455 0 0 0 7.16 3.294c.465 1.268 1.892 1.937 3.185 1.476zM.234 13.687c.063.123.1.227.171.308.11.203.252.389.412.55.04.031.076.054.116.086l2.126 2.551-2.044 4.464c-.355.773-.009 1.68.784 2.033a1.55 1.55 0 0 0 2.05-.768l2.448-5.327c.032-.08.03-.15.052-.224.034-.11.07-.212.074-.322.001-.103-.014-.197-.028-.296-.014-.095-.02-.197-.052-.286-.037-.104-.102-.195-.154-.295.962.382 1.878.761 2.319.94a4715.47 4715.47 0 0 1 1.349 5.719 1.557 1.557 0 0 0 1.861 1.127c.834-.203 1.358-1.024 1.169-1.85l-1.53-6.466a1.53 1.53 0 0 0-.927-1.077L6.227 12.84l.79-.802 8.704 1.584a1.338 1.338 0 0 0 1.51-.883 1.186 1.186 0 0 0-.206-1.815L8.478 5.277c-.674-.446-1.688-.348-2.263.22L.792 10.852a2.607 2.607 0 0 0-.71 2.357c.02.166.073.328.152.478zm9.68-4.59l1.61 1.068-2.259-.41.648-.659z"/><ellipse cx="17.769" cy="7.138" rx="2.187" ry="2.16"/></g></svg>