<svg width="24" height="19" viewBox="0 0 24 19" xmlns="http://www.w3.org/2000/svg"><title>Water polo@3x</title><g fill="#00D670" fill-rule="evenodd"><path d="M2.116 16.174a3.629 3.629 0 0 1 2.165-.99l.03-2.698c-.151-.117-1.868-1.864-2.002-2l2.246 1.343a.9.9 0 0 0 .667.104l3.604-.847a.915.915 0 0 0 .676-1.099.903.903 0 0 0-1.087-.682l-3.25.764-1.933-1.156c1.354.398 1.07.314 1.731.51l2.174-.511 1.93-1.762a.92.92 0 0 0 .064-1.292.9.9 0 0 0-1.28-.064l-2.76 2.52-1.897-.625a4.776 4.776 0 0 0-.648-.095h-.747C.805 7.594 0 8.407 0 9.41v6.413a1.952 1.952 0 0 1 2.116.35zM2.182 7.064A2.098 2.098 0 0 0 4.27 4.956a2.099 2.099 0 0 0-2.088-2.109c-1.154 0-2.09.945-2.09 2.109 0 1.164.936 2.108 2.09 2.108zM14.199 6.351a.92.92 0 0 0-.138 1.286l2.492 3.13c.065.081.142.15.229.205l1.647 1.032a1.847 1.847 0 0 0-.091.428l1.095-.323-1.933 1.157-3.25-.765a.905.905 0 0 0-1.087.683.915.915 0 0 0 .676 1.098l3.604.848a.9.9 0 0 0 .667-.104l2.247-1.344-1.487 1.502c1.082-.164 2.233.125 3.064.877.22-.179.47-.296.731-.366v-3.089a1.807 1.807 0 0 0-1.798-1.815h-.747c-.056 0-.11.011-.164.016L17.87 9.501l-2.396-3.01a.902.902 0 0 0-1.274-.14z"/><path d="M20.483 10.26c1.155 0 2.09-.943 2.09-2.107a2.098 2.098 0 0 0-2.09-2.109 2.099 2.099 0 0 0-2.088 2.109c0 1.164.935 2.107 2.088 2.107zM13.152 4.319a2.143 2.143 0 0 0 2.133-2.153c0-1.19-.955-2.153-2.133-2.153a2.143 2.143 0 0 0-2.134 2.153c0 1.189.956 2.153 2.134 2.153zM23.724 17.048a.782.782 0 0 0-1.113 0 .981.981 0 0 1-1.363 0c-.956-.968-2.629-.97-3.59 0a.98.98 0 0 1-1.362 0c-.944-.954-2.644-.956-3.592.001a.957.957 0 0 1-1.362 0c-.957-.969-2.6-1-3.62.03a.936.936 0 0 1-1.302 0c-.942-.952-2.586-.953-3.53 0a1.112 1.112 0 0 1-1.545 0 .782.782 0 0 0-1.114 0 .8.8 0 0 0 0 1.124 2.637 2.637 0 0 0 1.886.788 2.64 2.64 0 0 0 1.886-.788.935.935 0 0 1 1.303 0c.945.952 2.554.983 3.56-.03a.978.978 0 0 1 1.364.001 2.526 2.526 0 0 0 3.591-.003c.357-.36 1.002-.362 1.36.001.962.969 2.632.969 3.59.001.367-.369 1-.369 1.364 0 .96.968 2.633.968 3.59-.001a.8.8 0 0 0 0-1.124z"/></g></svg>