<svg width="23" height="24" viewBox="0 0 23 24" xmlns="http://www.w3.org/2000/svg"><title>Weightlifting@3x</title><g fill="#00D670" fill-rule="evenodd"><path d="M11.503 7.936a2.192 2.192 0 0 0 2.203-2.182 2.193 2.193 0 0 0-2.203-2.183 2.192 2.192 0 0 0-2.202 2.183c0 1.206.985 2.182 2.202 2.182z"/><path d="M22.062.826c-.309 0-.57.16-.739.39V.92a.926.926 0 0 0-.93-.921.926.926 0 0 0-.93.92v1.363H3.543V.921A.926.926 0 0 0 2.613 0a.926.926 0 0 0-.93.92v.296a.915.915 0 0 0-.738-.39.926.926 0 0 0-.93.921V4.02c0 .51.416.921.93.921.308 0 .57-.159.738-.389v.295c0 .509.417.921.93.921.513 0 .93-.412.93-.92V3.484h.588c.015.085 1.844 3.66 1.844 3.66.05.095.115.18.194.253l2.665 2.456v6.501l-2.162 2.057a1.074 1.074 0 0 0-.335.78v3.685c0 .597.488 1.081 1.09 1.081.603 0 1.092-.484 1.092-1.081v-3.225l1.571-1.495h2.826l1.573 1.495v3.225c0 .597.488 1.081 1.09 1.081.603 0 1.092-.484 1.092-1.081v-3.685c0-.295-.121-.576-.336-.78l-2.16-2.056V9.853l2.663-2.455a.909.909 0 0 0 .193-.252s1.83-3.576 1.845-3.661h.588v1.362c0 .509.416.921.93.921.513 0 .93-.412.93-.92v-.296c.168.23.43.39.738.39.513 0 .93-.413.93-.922V1.747a.926.926 0 0 0-.93-.92zm-6.61 5.333L13.07 8.356H9.94L7.554 6.16l-1.39-2.674h10.68l-1.391 2.674z"/></g></svg>