<svg width="25" height="19" viewBox="0 0 25 19" xmlns="http://www.w3.org/2000/svg"><title>wrestling@3x</title><g fill="#00D670" fill-rule="evenodd"><path d="M22.412 13.162l.46-4.012a1.138 1.138 0 0 0-.109-.63.421.421 0 0 0-.1-.166l-.214-.216-5.003-5.08a.395.395 0 0 0-.589.029l-.552.657c-.055.038-.108.08-.158.13l-2.685 2.72-.802-.139a1.14 1.14 0 0 0 .002-.468c-.124-.596-.69-.977-1.263-.846l-1.79.402-.21-.264.23-.286a.508.508 0 0 0-.037-.652l-2.19-2.223a.366.366 0 0 0-.57.037L2.467 7.88a1.12 1.12 0 0 0-.435 1.057l.66 4.608-2.46 3.209a1.136 1.136 0 0 0 .17 1.554 1.032 1.032 0 0 0 1.493-.175l2.748-3.586c.184-.24.264-.548.22-.852l-.34-2.375c.022-.018.046-.03.065-.056l.26-.323 1.613 2.334.61 4.329c.077.55.53.945 1.05.945.05 0 .103-.004.155-.011.58-.089.983-.65.898-1.254l-.647-4.596a1.136 1.136 0 0 0-.188-.485L6.255 9.189l1.757-2.184.366.463a1.047 1.047 0 0 0 1.046.378l.943-.212c.103.41.426.739.853.812l2.424.42a1.043 1.043 0 0 0 .916-.298l1.466-1.484 2.738 3.203-2.025 2.592a1.132 1.132 0 0 0-.238.697v4.147c0 .61.476 1.105 1.063 1.105s1.063-.495 1.063-1.105v-3.754l1.82-2.33-.197 1.72c-.034.294.047.59.225.821l2.586 3.362a1.032 1.032 0 0 0 1.494.172 1.136 1.136 0 0 0 .166-1.553l-2.309-3z"/><path d="M13.25 5.67c1.1 0 1.993-.928 1.993-2.072 0-1.145-.893-2.074-1.994-2.074-.656 0-1.234.334-1.597.844.013-.097.028-.194.028-.295C11.68.928 10.788 0 9.687 0 8.585 0 7.692.929 7.692 2.073c0 1.146.893 2.074 1.995 2.074.656 0 1.233-.334 1.597-.843-.013.096-.029.193-.029.294 0 1.145.893 2.073 1.994 2.073z"/></g></svg>