<svg width="22" height="24" viewBox="0 0 22 24" xmlns="http://www.w3.org/2000/svg"><title>Badminton Copy@3x</title><path d="M21.902 7.548a1.321 1.321 0 0 0-1.67-.804l-7.52 2.52-3.66.162-1.145-3.07a1.316 1.316 0 0 0-1.35-.841l-.775-.761c.132-.389.142-.845.019-1.328-.176-.691-.606-1.399-1.211-1.992C3.776.635 2.763.158 1.878.158 1.338.158.872.334.534.666c-.918.901-.575 2.65.781 3.981.814.798 1.828 1.275 2.712 1.275.329 0 .63-.066.89-.191l.555.544c-.134.295-.156.64-.034.967l1.476 3.959a1.314 1.314 0 0 0 1.293.845l2.678-.117s-.015 4.251-.005 4.447c-1.14 1.79-2.502 3.374-4.188 4.688l-.807.628a1.274 1.274 0 0 0-.212 1.813c.26.321.643.488 1.03.488.287 0 .575-.091.817-.28l.807-.628a21.128 21.128 0 0 0 4.81-5.265 9.335 9.335 0 0 1 3.123 5.107l.01.041a1.31 1.31 0 0 0 1.569.978 1.29 1.29 0 0 0 .997-1.54l-.003-.041a11.866 11.866 0 0 0-3.99-6.52v-4.267c0-.098-.014-.194-.028-.288l6.271-2.104c.688-.23 1.05-.964.816-1.638zM4.027 4.632c-.527 0-1.227-.352-1.782-.897-.909-.893-1.07-1.873-.782-2.156.11-.108.286-.13.415-.13.527 0 1.227.352 1.782.897.433.424.748.932.866 1.393.086.34.055.626-.084.763-.11.107-.286.13-.415.13zm14.19-3.596l1.767-.995c.204-.116.47.028.47.26v2.407c0 .231-.266.375-.47.26l-1.762-.996a.536.536 0 0 1-.006-.936zM10.713 6.29c0-1.132.935-2.05 2.088-2.05 1.154 0 2.089.918 2.089 2.05 0 1.132-.935 2.05-2.089 2.05-1.153 0-2.088-.918-2.088-2.05z" fill="#B3B3B3" fill-rule="evenodd"/></svg>