<svg width="24" height="23" viewBox="0 0 24 23" xmlns="http://www.w3.org/2000/svg"><title>Basketball Copy 2@3x</title><g fill="#B3B3B3" fill-rule="evenodd"><path d="M23.068 16.854c-1.844-.457-4.082-1.084-4.543-1.317-.26-.205-1.606-1.78-1.606-1.78l-.746-4.214c1.248.38 1.592 1.16 2 2.658a.92.92 0 0 0 1.126.641.904.904 0 0 0 .65-1.108c-1.131-4.975-6.499-4.243-6.511-4.242-1.889.124-3.498-.342-3.63-.54-.144-.207-.726-1.13-.815-2.816a.914.914 0 0 0-1.297-.777c.34-.355.551-.83.551-1.355C8.247.908 7.345.02 6.232.02c-1.114 0-2.015.888-2.015 1.984 0 1.095.902 1.983 2.015 1.983.402 0 .775-.119 1.09-.32a.895.895 0 0 0-.167.563c.119 2.246.953 3.507 1.207 3.84.492.649 1.842 1.05 3.288 1.192l.002.017 1.133 5.32s-.291 2.942-.187 3.697c.043.32.154 1.166 3.528 4.372.23.219.53.328.827.328.31 0 .622-.12.855-.357a1.158 1.158 0 0 0-.03-1.656c-1.167-1.112-2.826-3.08-2.826-3.08s.063-1.318.175-2.331c.007-.097.179-.154.252-.066.188.24 1.388 1.698 1.844 1.992.712.458 3.604 1.215 5.265 1.626a1.187 1.187 0 0 0 1.444-.85 1.166 1.166 0 0 0-.864-1.42z"/><path d="M13.637 7.124c1.28-.27 2.095-1.51 1.82-2.768-.273-1.259-1.532-2.06-2.811-1.79-1.28.27-2.095 1.509-1.821 2.767.274 1.259 1.533 2.061 2.812 1.791zM.428 4.464L0 4.47l1.373 5.727 3.482-.004 1.171-5.732-5.598.003zM4.42 9.877l-.125-.239-.125.24h-.348l.3-.573-.445-.852-.445.852.3.573h-.348l-.126-.24-.126.241h-.347l.3-.574-.445-.852-.445.852.3.575H1.95l-.127-.242-.126.243h-.068l-.088-.368.109-.208-.294-.562L1.06 7.51l.144.276.445-.852-.445-.853-.333.639-.11-.457.269-.515-.505-.968h.347l.332.635.332-.636h.572l.333.636.332-.637h.572l.332.637.333-.637h.571l.333.637.334-.638h.347l-.507.971.25.478-.098.48-.326-.625-.444.853.444.852.172-.33-.223 1.095-.393.753.172.33-.05.242H4.42z"/><path d="M2.44 6.082l-.444.853.445.852.444-.852-.444-.853zM1.378 8.12l.444.852.445-.852-.445-.852-.444.852zM2.614 8.12l.445.852.445-.852-.445-.852-.445.852zM3.677 6.082l-.444.853.444.852.445-.852-.445-.853zM4.296 7.268l-.445.852.445.852.445-.852-.445-.852zM4.74 5.75l-.444-.853-.445.852.445.852.445-.852zM2.267 5.75l-.445-.853-.444.852.444.852.445-.852zM3.504 5.75l-.445-.853-.445.852.445.852.445-.852z"/></g></svg>