<svg width="23" height="24" viewBox="0 0 23 24" xmlns="http://www.w3.org/2000/svg"><title>Boxing Copy 7@3x</title><g fill="#B3B3B3" fill-rule="evenodd"><path d="M10.893 4.829c.286.197.61.332.948.4h.003a2.57 2.57 0 0 0 2.32-.723 2.7 2.7 0 0 0 .704-2.412A2.651 2.651 0 0 0 13.332.201a2.56 2.56 0 0 0-2.44.247 2.678 2.678 0 0 0-1.14 2.218c.007.86.443 1.683 1.141 2.163zM21.806 5.348a1.568 1.568 0 0 0-.42-.057c-.332 0-.65.002-.96.148-.05.023-.1.05-.147.078-.037.023-.06.042-.091.05h-.532a.977.977 0 0 0-.618.224c-.035.028-.055.072-.1.07l-.207-.014-2.43-.155-3.336-.213c-.682-.043-1.362-.13-2.045-.13-1.021 0-1.473.32-1.647.425a2.87 2.87 0 0 0-1.19 1.457L7.164 9.65c-.31.815-.723 1.612-1.033 2.426l-.02.054a3.635 3.635 0 0 0-.093.291c-.15.524-.013.586-.108.865l-.152.502c-.309 1.023-.62 2.045-.932 3.067l-.21.689-.145.154a28.3 28.3 0 0 1-.305.31c-.398.399-.802.79-1.207 1.18-.715.688-1.437 1.37-2.159 2.05-.13.122-.26.243-.39.367-.298.284-.439.713-.37 1.124.142.85 1.106 1.302 1.83.861.162-.099.311-.227.463-.342l1.094-.827c.846-.644 1.691-1.29 2.523-1.95.318-.254.639-.504.938-.78.437-.4.822-1.346.968-1.683.235-.543.464-1.09.696-1.634.867.563 3.485 2.302 3.485 2.302s.475 1.48.633 2.013c.144.49.284.981.423 1.473.092.323.164.66.279.977.293.804 1.32 1.07 1.951.503.291-.26.447-.655.413-1.049-.03-.345-.099-.69-.15-1.033a85.906 85.906 0 0 0-.512-3.141c-.087-.465-.165-.952-.34-1.393-.088-.222-.159-.403-1.16-1.26l-2.117-1.776 1.003-2.64.421.41c.278.272.663.351 1.028.248l.696-.198c.134-.038.267-.007.405-.034.109-.022.217-.051.325-.077l.22-.057a1.582 1.582 0 0 0 .951.06c.314-.075.612-.15.873-.355a1.653 1.653 0 0 0 .36-2.165 1.594 1.594 0 0 0-.922-.676c-.335-.09-.65-.035-.98.043a1.761 1.761 0 0 0-.502.192 1.582 1.582 0 0 0-.364.299c-.127.027-.405.093-.484.112-.06.014-.118.03-.175.053-.053.022-.065.052-.096.008l-.648-.898 2.09-.133 2.971-.19.3-.019c.052-.003.064.033.108.07a.976.976 0 0 0 .62.222h.543a1.503 1.503 0 0 0 .226.13c.308.144.629.15.96.147.786 0 1.473-.61 1.578-1.406.105-.798-.397-1.575-1.158-1.787z"/></g></svg>