<svg width="25" height="22" viewBox="0 0 25 22" xmlns="http://www.w3.org/2000/svg"><title>Canoeing Slalom@3x</title><g fill="#00D670" fill-rule="evenodd"><path d="M12.52 2.533c0 .168-.014.333-.021.5h.022v-.5zM10.67 2.584l-.253.511c-.204.341-.542.512-1.017.512h-.66c.44.648 1 .972 1.677.972.576 0 1.067-.196 1.473-.588.395-.38.597-.85.609-1.407H10.67z"/><path d="M7.978 3.095H9.4c.271 0 .44-.085.509-.255l.304-.512c.068-.17.254-.256.56-.256h2.184a3.159 3.159 0 0 0-.94-1.432 2.325 2.325 0 0 0-1.6-.614c-.712 0-1.313.238-1.804.716-.491.477-.737 1.074-.737 1.79 0 .376.034.563.102.563zM21.164 14.095c1.846-.34 3.074-.801 3.684-1.381-.305-.921-.991-1.467-2.058-1.637-1.067-.17-2.16 0-3.278.511-.339.17-.847.307-1.524.41l-.458-1.791c.44-.205.644-.546.61-1.023 0-.307-.11-.563-.33-.768a.95.95 0 0 0-.788-.256l-.355-1.33c.372-.273.508-.648.406-1.125a1.106 1.106 0 0 0-.483-.665c-.254-.171-.516-.222-.787-.154-3.184.034-5.285.188-6.301.46-.44.103-.821.401-1.143.896-.322.494-.55.946-.686 1.356l-.153.665-1.32 4.246H0v2.098h16.514c1.254 0 2.803-.17 4.65-.512zm-8.969-6.907l3.71-.153.304 1.125a287.5 287.5 0 0 0-4.37.256l.356-1.228zm-1.016 3.428l5.59-.256.457 1.791c-1.694.239-3.896.358-6.606.358l.559-1.893z"/><path d="M21.596 17.063c.101 0 .228-.009.38-.026.153-.017.424-.094.814-.23.39-.136.728-.307 1.016-.512.288-.204.559-.537.813-.997.254-.46.381-.998.381-1.612 0-.068-.017-.188-.05-.358-.882.648-2.27 1.117-4.167 1.407-1.897.29-3.32.435-4.269.435H0v2.558c.407 0 .796-.085 1.169-.256a4.616 4.616 0 0 1 1.905-.41c.66 0 1.296.137 1.906.41.372.17.77.256 1.194.256.423 0 .821-.085 1.194-.256a4.558 4.558 0 0 1 1.88-.41c.677 0 1.321.137 1.93.41.373.17.763.256 1.17.256.406 0 .796-.085 1.168-.256a4.616 4.616 0 0 1 1.906-.41c.66 0 1.295.137 1.905.41.373.17.762.256 1.169.256h.152l.509 1.893a4.054 4.054 0 0 1-2.185-.256 3.397 3.397 0 0 0-1.55-.358c-.56 0-1.076.12-1.55.358a3.806 3.806 0 0 1-1.524.307c-.542 0-1.05-.102-1.525-.307a3.664 3.664 0 0 0-1.575-.358c-.542 0-1.067.12-1.575.358a3.744 3.744 0 0 1-1.5.307 3.744 3.744 0 0 1-1.498-.307 3.664 3.664 0 0 0-1.575-.358c-.542 0-1.067.12-1.576.358A3.806 3.806 0 0 1 0 19.672v2.302c.542 0 1.05-.119 1.524-.358a4.18 4.18 0 0 1 3.15 0 3.29 3.29 0 0 0 1.5.358 3.29 3.29 0 0 0 1.499-.358 4.18 4.18 0 0 1 3.15 0c.474.24.983.358 1.525.358.542 0 1.05-.119 1.524-.358a4.18 4.18 0 0 1 1.575-.307c.542 0 1.05.103 1.525.307a3.61 3.61 0 0 0 1.55.358 3.29 3.29 0 0 0 1.498-.358 4.18 4.18 0 0 1 1.576-.307c.474 0 .965.103 1.473.307a3.14 3.14 0 0 0 1.423.358v-2.302c-.474 0-.949-.102-1.423-.307a3.557 3.557 0 0 0-1.524-.358c-.542 0-1.05.12-1.525.358-.067 0-.101.017-.101.051l-.458-1.842c.102-.034.187-.068.254-.102a4.558 4.558 0 0 1 1.88-.41z"/></g></svg>