<svg width="23" height="24" viewBox="0 0 23 24" xmlns="http://www.w3.org/2000/svg"><title>Canoeing Sprint@3x</title><path d="M22.716 20.663a.62.62 0 0 1-.111.886c-.132.1-3.27 2.45-8 2.45-2.65 0-4.322-.738-5.796-1.39-1.126-.496-2.098-.926-3.325-.926-2.746 0-4.15 1.016-4.164 1.026a.658.658 0 0 1-.909-.11.622.622 0 0 1 .114-.887c.069-.053 1.733-1.292 4.96-1.292 1.506 0 2.649.505 3.86 1.04 1.42.627 2.89 1.275 5.26 1.275 4.287 0 7.173-2.16 7.201-2.18a.66.66 0 0 1 .91.108zm-20.922-7.47c.296-.665 1.083-.976 1.77-.704l.756-1.703a1.228 1.228 0 0 1-.046-.402c.025-.46.3-.848.69-1.05L8.08 2.314a1.243 1.243 0 0 1-.359-1.75A1.318 1.318 0 0 1 9.52.212l1.658 1.074c1.806 1.17 2.877 3.13 2.864 5.243l-.002.385c.14.123.264.269.366.435l3.565 5.823c.47.77.317 1.733-.317 2.33a5.22 5.22 0 0 0 1.442 3.073c.037.038.07.078.1.12h1.857l-.132.097c.563-.311.876-.545.885-.552a.66.66 0 0 1 .91.109.62.62 0 0 1-.111.886c-.132.1-3.27 2.45-8 2.45-2.65 0-4.322-.738-5.796-1.39-1.126-.496-2.098-.926-3.325-.926-2.746 0-4.15 1.016-4.164 1.026a.658.658 0 0 1-.909-.11.622.622 0 0 1 .113-.887c.033-.025.418-.312 1.153-.61l-1.07-.45a.972.972 0 0 1-.524-1.29l1.71-3.853zm3.69 4.912c.906 0 1.68.183 2.417.445.02-.128.06-.256.123-.378l.715-1.395c.941-1.833 2.67-3.161 4.66-3.673l-1.62-2.649a8.693 8.693 0 0 1-5.05 1.319l-1.228-.063a1.367 1.367 0 0 1-.13-.013l-.58 1.307c.673.302.98 1.073.684 1.74l-1.536 3.46c.468-.062.982-.1 1.545-.1zm10.525.588a7.64 7.64 0 0 1-.95-3.092 1.905 1.905 0 0 1-.202-.19c-1.608.129-3.07 1.077-3.798 2.496l-.403.786h5.353zM9.742 3.39l-.53-.343L6.467 9.23l.398.02a6.047 6.047 0 0 0 2.775-.524 1.94 1.94 0 0 1-.919-1.642c0-1.079.898-1.954 2.006-1.954.166 0 .326.02.48.057a3.734 3.734 0 0 0-1.465-1.8z" fill="#00D670" fill-rule="evenodd"/></svg>